<?xml version="1.0" encoding="utf-8" standalone="no"?>
<!DOCTYPE svg PUBLIC "-//W3C//DTD SVG 1.1//EN"
  "http://www.w3.org/Graphics/SVG/1.1/DTD/svg11.dtd">
<svg xmlns:xlink="http://www.w3.org/1999/xlink" width="1080pt" height="720pt" viewBox="0 0 1080 720" xmlns="http://www.w3.org/2000/svg" version="1.1">
 <metadata>
  <rdf:RDF xmlns:dc="http://purl.org/dc/elements/1.1/" xmlns:cc="http://creativecommons.org/ns#" xmlns:rdf="http://www.w3.org/1999/02/22-rdf-syntax-ns#">
   <cc:Work>
    <dc:type rdf:resource="http://purl.org/dc/dcmitype/StillImage"/>
    <dc:date>2024-02-07T03:07:31.622001</dc:date>
    <dc:format>image/svg+xml</dc:format>
    <dc:creator>
     <cc:Agent>
      <dc:title>Matplotlib v3.8.2, https://matplotlib.org/</dc:title>
     </cc:Agent>
    </dc:creator>
   </cc:Work>
  </rdf:RDF>
 </metadata>
 <defs>
  <style type="text/css">*{stroke-linejoin: round; stroke-linecap: butt}</style>
 </defs>
 <g id="figure_1">
  <g id="patch_1">
   <path d="M 0 720 
L 1080 720 
L 1080 0 
L 0 0 
z
" style="fill: #ffffff"/>
  </g>
  <g id="axes_1">
   <g id="patch_2">
    <path d="M 135 640.8 
L 972 640.8 
L 972 86.4 
L 135 86.4 
z
" style="fill: #ffffff"/>
   </g>
   <g id="matplotlib.axis_1">
    <g id="xtick_1">
     <g id="line2d_1">
      <path d="M 226.756684 640.8 
L 226.756684 86.4 
" clip-path="url(#pb16aed158a)" style="fill: none; stroke: #cccccc; stroke-width: 1.5; stroke-linecap: round"/>
     </g>
     <g id="line2d_2">
      <defs>
       <path id="m8b393d392b" d="M 0 0 
L 0 9 
" style="stroke: #262626; stroke-width: 1.875"/>
      </defs>
      <g>
       <use xlink:href="#m8b393d392b" x="226.756684" y="640.8" style="fill: #262626; stroke: #262626; stroke-width: 1.875"/>
      </g>
     </g>
     <g id="text_1">
      <!-- 20 -->
      <g style="fill: #262626" transform="translate(217.581138 665.110391) scale(0.165 -0.165)">
       <defs>
        <path id="ArialMT-32" d="M 3222 541 
L 3222 0 
L 194 0 
Q 188 203 259 391 
Q 375 700 629 1000 
Q 884 1300 1366 1694 
Q 2113 2306 2375 2664 
Q 2638 3022 2638 3341 
Q 2638 3675 2398 3904 
Q 2159 4134 1775 4134 
Q 1369 4134 1125 3890 
Q 881 3647 878 3216 
L 300 3275 
Q 359 3922 746 4261 
Q 1134 4600 1788 4600 
Q 2447 4600 2831 4234 
Q 3216 3869 3216 3328 
Q 3216 3053 3103 2787 
Q 2991 2522 2730 2228 
Q 2469 1934 1863 1422 
Q 1356 997 1212 845 
Q 1069 694 975 541 
L 3222 541 
z
" transform="scale(0.015625)"/>
        <path id="ArialMT-30" d="M 266 2259 
Q 266 3072 433 3567 
Q 600 4063 929 4331 
Q 1259 4600 1759 4600 
Q 2128 4600 2406 4451 
Q 2684 4303 2865 4023 
Q 3047 3744 3150 3342 
Q 3253 2941 3253 2259 
Q 3253 1453 3087 958 
Q 2922 463 2592 192 
Q 2263 -78 1759 -78 
Q 1097 -78 719 397 
Q 266 969 266 2259 
z
M 844 2259 
Q 844 1131 1108 757 
Q 1372 384 1759 384 
Q 2147 384 2411 759 
Q 2675 1134 2675 2259 
Q 2675 3391 2411 3762 
Q 2147 4134 1753 4134 
Q 1366 4134 1134 3806 
Q 844 3388 844 2259 
z
" transform="scale(0.015625)"/>
       </defs>
       <use xlink:href="#ArialMT-32"/>
       <use xlink:href="#ArialMT-30" x="55.615234"/>
      </g>
     </g>
    </g>
    <g id="xtick_2">
     <g id="line2d_3">
      <path d="M 405.794118 640.8 
L 405.794118 86.4 
" clip-path="url(#pb16aed158a)" style="fill: none; stroke: #cccccc; stroke-width: 1.5; stroke-linecap: round"/>
     </g>
     <g id="line2d_4">
      <g>
       <use xlink:href="#m8b393d392b" x="405.794118" y="640.8" style="fill: #262626; stroke: #262626; stroke-width: 1.875"/>
      </g>
     </g>
     <g id="text_2">
      <!-- 40 -->
      <g style="fill: #262626" transform="translate(396.618571 665.110391) scale(0.165 -0.165)">
       <defs>
        <path id="ArialMT-34" d="M 2069 0 
L 2069 1097 
L 81 1097 
L 81 1613 
L 2172 4581 
L 2631 4581 
L 2631 1613 
L 3250 1613 
L 3250 1097 
L 2631 1097 
L 2631 0 
L 2069 0 
z
M 2069 1613 
L 2069 3678 
L 634 1613 
L 2069 1613 
z
" transform="scale(0.015625)"/>
       </defs>
       <use xlink:href="#ArialMT-34"/>
       <use xlink:href="#ArialMT-30" x="55.615234"/>
      </g>
     </g>
    </g>
    <g id="xtick_3">
     <g id="line2d_5">
      <path d="M 584.831551 640.8 
L 584.831551 86.4 
" clip-path="url(#pb16aed158a)" style="fill: none; stroke: #cccccc; stroke-width: 1.5; stroke-linecap: round"/>
     </g>
     <g id="line2d_6">
      <g>
       <use xlink:href="#m8b393d392b" x="584.831551" y="640.8" style="fill: #262626; stroke: #262626; stroke-width: 1.875"/>
      </g>
     </g>
     <g id="text_3">
      <!-- 60 -->
      <g style="fill: #262626" transform="translate(575.656004 665.110391) scale(0.165 -0.165)">
       <defs>
        <path id="ArialMT-36" d="M 3184 3459 
L 2625 3416 
Q 2550 3747 2413 3897 
Q 2184 4138 1850 4138 
Q 1581 4138 1378 3988 
Q 1113 3794 959 3422 
Q 806 3050 800 2363 
Q 1003 2672 1297 2822 
Q 1591 2972 1913 2972 
Q 2475 2972 2870 2558 
Q 3266 2144 3266 1488 
Q 3266 1056 3080 686 
Q 2894 316 2569 119 
Q 2244 -78 1831 -78 
Q 1128 -78 684 439 
Q 241 956 241 2144 
Q 241 3472 731 4075 
Q 1159 4600 1884 4600 
Q 2425 4600 2770 4297 
Q 3116 3994 3184 3459 
z
M 888 1484 
Q 888 1194 1011 928 
Q 1134 663 1356 523 
Q 1578 384 1822 384 
Q 2178 384 2434 671 
Q 2691 959 2691 1453 
Q 2691 1928 2437 2201 
Q 2184 2475 1800 2475 
Q 1419 2475 1153 2201 
Q 888 1928 888 1484 
z
" transform="scale(0.015625)"/>
       </defs>
       <use xlink:href="#ArialMT-36"/>
       <use xlink:href="#ArialMT-30" x="55.615234"/>
      </g>
     </g>
    </g>
    <g id="xtick_4">
     <g id="line2d_7">
      <path d="M 763.868984 640.8 
L 763.868984 86.4 
" clip-path="url(#pb16aed158a)" style="fill: none; stroke: #cccccc; stroke-width: 1.5; stroke-linecap: round"/>
     </g>
     <g id="line2d_8">
      <g>
       <use xlink:href="#m8b393d392b" x="763.868984" y="640.8" style="fill: #262626; stroke: #262626; stroke-width: 1.875"/>
      </g>
     </g>
     <g id="text_4">
      <!-- 80 -->
      <g style="fill: #262626" transform="translate(754.693437 665.110391) scale(0.165 -0.165)">
       <defs>
        <path id="ArialMT-38" d="M 1131 2484 
Q 781 2613 612 2850 
Q 444 3088 444 3419 
Q 444 3919 803 4259 
Q 1163 4600 1759 4600 
Q 2359 4600 2725 4251 
Q 3091 3903 3091 3403 
Q 3091 3084 2923 2848 
Q 2756 2613 2416 2484 
Q 2838 2347 3058 2040 
Q 3278 1734 3278 1309 
Q 3278 722 2862 322 
Q 2447 -78 1769 -78 
Q 1091 -78 675 323 
Q 259 725 259 1325 
Q 259 1772 486 2073 
Q 713 2375 1131 2484 
z
M 1019 3438 
Q 1019 3113 1228 2906 
Q 1438 2700 1772 2700 
Q 2097 2700 2305 2904 
Q 2513 3109 2513 3406 
Q 2513 3716 2298 3927 
Q 2084 4138 1766 4138 
Q 1444 4138 1231 3931 
Q 1019 3725 1019 3438 
z
M 838 1322 
Q 838 1081 952 856 
Q 1066 631 1291 507 
Q 1516 384 1775 384 
Q 2178 384 2440 643 
Q 2703 903 2703 1303 
Q 2703 1709 2433 1975 
Q 2163 2241 1756 2241 
Q 1359 2241 1098 1978 
Q 838 1716 838 1322 
z
" transform="scale(0.015625)"/>
       </defs>
       <use xlink:href="#ArialMT-38"/>
       <use xlink:href="#ArialMT-30" x="55.615234"/>
      </g>
     </g>
    </g>
    <g id="xtick_5">
     <g id="line2d_9">
      <path d="M 942.906417 640.8 
L 942.906417 86.4 
" clip-path="url(#pb16aed158a)" style="fill: none; stroke: #cccccc; stroke-width: 1.5; stroke-linecap: round"/>
     </g>
     <g id="line2d_10">
      <g>
       <use xlink:href="#m8b393d392b" x="942.906417" y="640.8" style="fill: #262626; stroke: #262626; stroke-width: 1.875"/>
      </g>
     </g>
     <g id="text_5">
      <!-- 100 -->
      <g style="fill: #262626" transform="translate(929.143097 665.110391) scale(0.165 -0.165)">
       <defs>
        <path id="ArialMT-31" d="M 2384 0 
L 1822 0 
L 1822 3584 
Q 1619 3391 1289 3197 
Q 959 3003 697 2906 
L 697 3450 
Q 1169 3672 1522 3987 
Q 1875 4303 2022 4600 
L 2384 4600 
L 2384 0 
z
" transform="scale(0.015625)"/>
       </defs>
       <use xlink:href="#ArialMT-31"/>
       <use xlink:href="#ArialMT-30" x="55.615234"/>
       <use xlink:href="#ArialMT-30" x="111.230469"/>
      </g>
     </g>
    </g>
   </g>
   <g id="matplotlib.axis_2">
    <g id="ytick_1">
     <g id="line2d_11">
      <path d="M 135 615.6 
L 972 615.6 
" clip-path="url(#pb16aed158a)" style="fill: none; stroke: #cccccc; stroke-width: 1.5; stroke-linecap: round"/>
     </g>
     <g id="line2d_12">
      <defs>
       <path id="mbfb57ee576" d="M 0 0 
L -9 0 
" style="stroke: #262626; stroke-width: 1.875"/>
      </defs>
      <g>
       <use xlink:href="#mbfb57ee576" x="135" y="615.6" style="fill: #262626; stroke: #262626; stroke-width: 1.875"/>
      </g>
     </g>
     <g id="text_6">
      <!-- 0.0 -->
      <g style="fill: #262626" transform="translate(99.565 621.505195) scale(0.165 -0.165)">
       <defs>
        <path id="ArialMT-2e" d="M 581 0 
L 581 641 
L 1222 641 
L 1222 0 
L 581 0 
z
" transform="scale(0.015625)"/>
       </defs>
       <use xlink:href="#ArialMT-30"/>
       <use xlink:href="#ArialMT-2e" x="55.615234"/>
       <use xlink:href="#ArialMT-30" x="83.398438"/>
      </g>
     </g>
    </g>
    <g id="ytick_2">
     <g id="line2d_13">
      <path d="M 135 501.430239 
L 972 501.430239 
" clip-path="url(#pb16aed158a)" style="fill: none; stroke: #cccccc; stroke-width: 1.5; stroke-linecap: round"/>
     </g>
     <g id="line2d_14">
      <g>
       <use xlink:href="#mbfb57ee576" x="135" y="501.430239" style="fill: #262626; stroke: #262626; stroke-width: 1.875"/>
      </g>
     </g>
     <g id="text_7">
      <!-- 0.2 -->
      <g style="fill: #262626" transform="translate(99.565 507.335434) scale(0.165 -0.165)">
       <use xlink:href="#ArialMT-30"/>
       <use xlink:href="#ArialMT-2e" x="55.615234"/>
       <use xlink:href="#ArialMT-32" x="83.398438"/>
      </g>
     </g>
    </g>
    <g id="ytick_3">
     <g id="line2d_15">
      <path d="M 135 387.260477 
L 972 387.260477 
" clip-path="url(#pb16aed158a)" style="fill: none; stroke: #cccccc; stroke-width: 1.5; stroke-linecap: round"/>
     </g>
     <g id="line2d_16">
      <g>
       <use xlink:href="#mbfb57ee576" x="135" y="387.260477" style="fill: #262626; stroke: #262626; stroke-width: 1.875"/>
      </g>
     </g>
     <g id="text_8">
      <!-- 0.4 -->
      <g style="fill: #262626" transform="translate(99.565 393.165673) scale(0.165 -0.165)">
       <use xlink:href="#ArialMT-30"/>
       <use xlink:href="#ArialMT-2e" x="55.615234"/>
       <use xlink:href="#ArialMT-34" x="83.398438"/>
      </g>
     </g>
    </g>
    <g id="ytick_4">
     <g id="line2d_17">
      <path d="M 135 273.090716 
L 972 273.090716 
" clip-path="url(#pb16aed158a)" style="fill: none; stroke: #cccccc; stroke-width: 1.5; stroke-linecap: round"/>
     </g>
     <g id="line2d_18">
      <g>
       <use xlink:href="#mbfb57ee576" x="135" y="273.090716" style="fill: #262626; stroke: #262626; stroke-width: 1.875"/>
      </g>
     </g>
     <g id="text_9">
      <!-- 0.6 -->
      <g style="fill: #262626" transform="translate(99.565 278.995912) scale(0.165 -0.165)">
       <use xlink:href="#ArialMT-30"/>
       <use xlink:href="#ArialMT-2e" x="55.615234"/>
       <use xlink:href="#ArialMT-36" x="83.398438"/>
      </g>
     </g>
    </g>
    <g id="ytick_5">
     <g id="line2d_19">
      <path d="M 135 158.920955 
L 972 158.920955 
" clip-path="url(#pb16aed158a)" style="fill: none; stroke: #cccccc; stroke-width: 1.5; stroke-linecap: round"/>
     </g>
     <g id="line2d_20">
      <g>
       <use xlink:href="#mbfb57ee576" x="135" y="158.920955" style="fill: #262626; stroke: #262626; stroke-width: 1.875"/>
      </g>
     </g>
     <g id="text_10">
      <!-- 0.8 -->
      <g style="fill: #262626" transform="translate(99.565 164.82615) scale(0.165 -0.165)">
       <use xlink:href="#ArialMT-30"/>
       <use xlink:href="#ArialMT-2e" x="55.615234"/>
       <use xlink:href="#ArialMT-38" x="83.398438"/>
      </g>
     </g>
    </g>
   </g>
   <g id="line2d_21">
    <path d="M 173.045455 615.599881 
L 181.997326 615.598663 
L 190.949198 615.588717 
L 199.90107 615.562013 
L 208.852941 615.546403 
L 217.804813 615.496606 
L 226.756684 615.386983 
L 235.708556 615.372907 
L 244.660428 615.215827 
L 253.612299 614.786146 
L 262.564171 614.662071 
L 271.516043 614.568802 
L 280.467914 613.348748 
L 289.419786 609.810469 
L 298.371658 605.513539 
L 307.323529 600.529188 
L 316.275401 598.003727 
L 325.227273 596.53983 
L 334.179144 595.747505 
L 343.131016 591.638639 
L 352.082888 583.490737 
L 361.034759 574.951272 
L 369.986631 564.336711 
L 378.938503 558.596442 
L 387.890374 543.998212 
L 396.842246 535.207726 
L 405.794118 530.038702 
L 414.745989 512.871208 
L 423.697861 494.113255 
L 432.649733 488.971883 
L 441.601604 484.154109 
L 450.553476 479.644413 
L 459.505348 462.324998 
L 468.457219 441.773965 
L 477.409091 430.230371 
L 486.360963 424.087806 
L 495.312834 424.615426 
L 504.264706 407.852576 
L 513.216578 391.475683 
L 522.168449 402.231788 
L 531.120321 403.810431 
L 540.072193 398.170526 
L 549.024064 398.550831 
L 557.975936 418.405753 
L 566.927807 422.69584 
L 575.879679 423.949174 
L 584.831551 416.847635 
L 593.783422 422.430909 
L 602.735294 434.172342 
L 611.687166 434.414386 
L 620.639037 422.166263 
L 629.590909 403.033703 
L 638.542781 401.977516 
L 647.494652 405.610363 
L 656.446524 381.165338 
L 665.398396 361.524822 
L 674.350267 352.556608 
L 683.302139 354.058776 
L 692.254011 336.194508 
L 701.205882 316.192071 
L 710.157754 297.495383 
L 719.109626 277.121088 
L 728.061497 271.439555 
L 737.013369 257.731817 
L 745.965241 260.523664 
L 754.917112 277.995904 
L 763.868984 292.792696 
L 772.820856 306.030984 
L 781.772727 311.811746 
L 790.724599 328.581475 
L 799.676471 346.001502 
L 808.628342 357.561321 
L 817.580214 353.677839 
L 826.532086 342.24931 
L 835.483957 334.340643 
L 844.435829 324.159848 
L 853.387701 323.261576 
L 862.339572 304.354052 
L 871.291444 291.442211 
L 880.243316 282.240529 
L 889.195187 277.935634 
L 898.147059 268.957471 
L 907.09893 259.372494 
L 916.050802 243.410496 
L 925.002674 233.875395 
L 933.954545 222.179318 
" clip-path="url(#pb16aed158a)" style="fill: none; stroke: #4c72b0; stroke-width: 2.25; stroke-linecap: round"/>
   </g>
   <g id="line2d_22">
    <path d="M 173.045455 615.6 
L 181.997326 615.6 
L 190.949198 615.6 
L 199.90107 615.6 
L 208.852941 615.6 
L 217.804813 615.6 
L 226.756684 615.6 
L 235.708556 615.6 
L 244.660428 615.6 
L 253.612299 615.6 
L 262.564171 615.6 
L 271.516043 615.599967 
L 280.467914 615.599932 
L 289.419786 615.599286 
L 298.371658 615.599235 
L 307.323529 615.595732 
L 316.275401 615.567877 
L 325.227273 615.562408 
L 334.179144 615.562249 
L 343.131016 615.559638 
L 352.082888 615.454647 
L 361.034759 615.252239 
L 369.986631 615.152455 
L 378.938503 614.864873 
L 387.890374 614.836606 
L 396.842246 614.534577 
L 405.794118 612.266741 
L 414.745989 611.283777 
L 423.697861 610.923618 
L 432.649733 609.962783 
L 441.601604 606.427913 
L 450.553476 605.04148 
L 459.505348 604.958558 
L 468.457219 604.547247 
L 477.409091 602.957482 
L 486.360963 600.459823 
L 495.312834 598.443887 
L 504.264706 597.594609 
L 513.216578 594.772805 
L 522.168449 593.450265 
L 531.120321 591.292519 
L 540.072193 585.374499 
L 549.024064 574.821039 
L 557.975936 570.752062 
L 566.927807 565.293677 
L 575.879679 561.537925 
L 584.831551 552.458484 
L 593.783422 547.920109 
L 602.735294 541.996062 
L 611.687166 531.728985 
L 620.639037 522.194071 
L 629.590909 514.723044 
L 638.542781 512.282122 
L 647.494652 506.201306 
L 656.446524 500.470965 
L 665.398396 491.686746 
L 674.350267 477.435587 
L 683.302139 463.739466 
L 692.254011 457.59997 
L 701.205882 454.419473 
L 710.157754 450.651624 
L 719.109626 444.905808 
L 728.061497 440.44594 
L 737.013369 435.160217 
L 745.965241 442.879704 
L 754.917112 443.384891 
L 763.868984 444.617831 
L 772.820856 427.677815 
L 781.772727 409.659524 
L 790.724599 399.523139 
L 799.676471 381.995045 
L 808.628342 388.817059 
L 817.580214 385.49607 
L 826.532086 377.526151 
L 835.483957 368.937465 
L 844.435829 350.614373 
L 853.387701 345.463276 
L 862.339572 333.625958 
L 871.291444 322.986798 
L 880.243316 300.025123 
L 889.195187 297.018161 
L 898.147059 296.59563 
L 907.09893 304.366468 
L 916.050802 309.491235 
L 925.002674 310.742363 
L 933.954545 330.301187 
" clip-path="url(#pb16aed158a)" style="fill: none; stroke: #dd8452; stroke-width: 2.25; stroke-linecap: round"/>
   </g>
   <g id="line2d_23">
    <path d="M 173.045455 615.6 
L 181.997326 615.6 
L 190.949198 615.6 
L 199.90107 615.6 
L 208.852941 615.6 
L 217.804813 615.6 
L 226.756684 615.6 
L 235.708556 615.6 
L 244.660428 615.6 
L 253.612299 615.6 
L 262.564171 615.6 
L 271.516043 615.6 
L 280.467914 615.6 
L 289.419786 615.6 
L 298.371658 615.6 
L 307.323529 615.599999 
L 316.275401 615.599999 
L 325.227273 615.599999 
L 334.179144 615.599999 
L 343.131016 615.599836 
L 352.082888 615.599798 
L 361.034759 615.59979 
L 369.986631 615.599697 
L 378.938503 615.598991 
L 387.890374 615.598692 
L 396.842246 615.598065 
L 405.794118 615.573107 
L 414.745989 615.572622 
L 423.697861 615.569787 
L 432.649733 615.563062 
L 441.601604 615.545261 
L 450.553476 615.539982 
L 459.505348 615.535137 
L 468.457219 615.520019 
L 477.409091 615.509171 
L 486.360963 615.503916 
L 495.312834 615.496494 
L 504.264706 615.436131 
L 513.216578 615.2426 
L 522.168449 614.860344 
L 531.120321 614.654234 
L 540.072193 614.575701 
L 549.024064 614.494644 
L 557.975936 614.438967 
L 566.927807 614.293229 
L 575.879679 614.008538 
L 584.831551 611.412991 
L 593.783422 606.774131 
L 602.735294 604.839197 
L 611.687166 602.494313 
L 620.639037 598.149808 
L 629.590909 595.383291 
L 638.542781 587.266455 
L 647.494652 573.271262 
L 656.446524 557.980101 
L 665.398396 547.829303 
L 674.350267 533.947682 
L 683.302139 526.231111 
L 692.254011 518.875952 
L 701.205882 516.119627 
L 710.157754 509.167939 
L 719.109626 502.273255 
L 728.061497 499.170395 
L 737.013369 497.498717 
L 745.965241 495.101804 
L 754.917112 495.980779 
L 763.868984 496.75479 
L 772.820856 499.741659 
L 781.772727 507.671714 
L 790.724599 516.376054 
L 799.676471 518.636356 
L 808.628342 526.024159 
L 817.580214 526.261591 
L 826.532086 524.220817 
L 835.483957 509.120397 
L 844.435829 500.935077 
L 853.387701 489.967326 
L 862.339572 482.98308 
L 871.291444 482.982097 
L 880.243316 482.412168 
L 889.195187 480.44368 
L 898.147059 480.750978 
L 907.09893 482.156952 
L 916.050802 482.74182 
L 925.002674 483.870045 
L 933.954545 484.676286 
" clip-path="url(#pb16aed158a)" style="fill: none; stroke: #55a868; stroke-width: 2.25; stroke-linecap: round"/>
   </g>
   <g id="line2d_24">
    <path d="M 173.045455 615.6 
L 181.997326 615.6 
L 190.949198 615.6 
L 199.90107 615.59999 
L 208.852941 615.599969 
L 217.804813 615.596819 
L 226.756684 615.590037 
L 235.708556 615.588866 
L 244.660428 615.579526 
L 253.612299 615.573883 
L 262.564171 615.527496 
L 271.516043 615.481998 
L 280.467914 615.290624 
L 289.419786 615.017028 
L 298.371658 614.361907 
L 307.323529 614.256871 
L 316.275401 614.169989 
L 325.227273 613.057777 
L 334.179144 609.672809 
L 343.131016 609.420546 
L 352.082888 608.053978 
L 361.034759 605.024812 
L 369.986631 597.775707 
L 378.938503 592.365632 
L 387.890374 590.955458 
L 396.842246 588.720191 
L 405.794118 587.307912 
L 414.745989 585.226224 
L 423.697861 583.765782 
L 432.649733 583.318028 
L 441.601604 572.595389 
L 450.553476 554.544904 
L 459.505348 543.980858 
L 468.457219 530.071799 
L 477.409091 522.705735 
L 486.360963 512.666686 
L 495.312834 503.686898 
L 504.264706 497.028248 
L 513.216578 488.979441 
L 522.168449 477.463563 
L 531.120321 468.310026 
L 540.072193 460.940147 
L 549.024064 448.104695 
L 557.975936 438.495684 
L 566.927807 423.759274 
L 575.879679 425.607328 
L 584.831551 436.726255 
L 593.783422 443.918154 
L 602.735294 456.415609 
L 611.687166 453.335487 
L 620.639037 453.93773 
L 629.590909 459.50471 
L 638.542781 464.414587 
L 647.494652 458.977151 
L 656.446524 458.3475 
L 665.398396 457.109642 
L 674.350267 461.647195 
L 683.302139 468.145639 
L 692.254011 472.554855 
L 701.205882 483.899589 
L 710.157754 489.507235 
L 719.109626 491.021038 
L 728.061497 484.438686 
L 737.013369 477.208144 
L 745.965241 467.639612 
L 754.917112 455.746883 
L 763.868984 434.749773 
L 772.820856 420.798813 
L 781.772727 415.10985 
L 790.724599 403.16331 
L 799.676471 378.954507 
L 808.628342 348.613146 
L 817.580214 321.879319 
L 826.532086 304.082535 
L 835.483957 278.567567 
L 844.435829 249.25739 
L 853.387701 224.75269 
L 862.339572 202.250561 
L 871.291444 180.688659 
L 880.243316 164.105904 
L 889.195187 149.600393 
L 898.147059 142.74334 
L 907.09893 128.256143 
L 916.050802 117.813067 
L 925.002674 111.6 
L 933.954545 113.336321 
" clip-path="url(#pb16aed158a)" style="fill: none; stroke: #c44e52; stroke-width: 2.25; stroke-linecap: round"/>
   </g>
   <g id="line2d_25">
    <path d="M 173.045455 615.599989 
L 181.997326 615.599659 
L 190.949198 615.599132 
L 199.90107 615.59874 
L 208.852941 615.59534 
L 217.804813 615.579192 
L 226.756684 615.499569 
L 235.708556 615.036159 
L 244.660428 614.823799 
L 253.612299 613.604725 
L 262.564171 613.474113 
L 271.516043 613.358732 
L 280.467914 613.140437 
L 289.419786 612.415445 
L 298.371658 607.420036 
L 307.323529 604.208673 
L 316.275401 602.431714 
L 325.227273 599.33946 
L 334.179144 595.87813 
L 343.131016 593.63488 
L 352.082888 590.803193 
L 361.034759 577.525475 
L 369.986631 552.282015 
L 378.938503 536.949634 
L 387.890374 524.772047 
L 396.842246 508.870992 
L 405.794118 496.385527 
L 414.745989 473.02414 
L 423.697861 443.626366 
L 432.649733 431.430059 
L 441.601604 415.27498 
L 450.553476 391.783468 
L 459.505348 369.759801 
L 468.457219 345.153455 
L 477.409091 327.725705 
L 486.360963 304.226977 
L 495.312834 312.132262 
L 504.264706 330.779413 
L 513.216578 322.121658 
L 522.168449 318.323607 
L 531.120321 319.968464 
L 540.072193 323.037941 
L 549.024064 341.874097 
L 557.975936 360.628518 
L 566.927807 367.662058 
L 575.879679 373.757229 
L 584.831551 388.033413 
L 593.783422 377.279619 
L 602.735294 373.396736 
L 611.687166 367.690865 
L 620.639037 366.522851 
L 629.590909 359.447093 
L 638.542781 344.381549 
L 647.494652 333.811085 
L 656.446524 315.110767 
L 665.398396 301.861543 
L 674.350267 276.775794 
L 683.302139 244.861671 
L 692.254011 229.751077 
L 701.205882 209.443807 
L 710.157754 203.928175 
L 719.109626 205.134291 
L 728.061497 226.254352 
L 737.013369 243.703778 
L 745.965241 251.177668 
L 754.917112 266.534504 
L 763.868984 274.965916 
L 772.820856 284.674681 
L 781.772727 310.539891 
L 790.724599 337.826732 
L 799.676471 352.800587 
L 808.628342 378.788626 
L 817.580214 397.584972 
L 826.532086 400.863447 
L 835.483957 412.802415 
L 844.435829 411.291577 
L 853.387701 413.366054 
L 862.339572 403.832495 
L 871.291444 413.542024 
L 880.243316 424.218843 
L 889.195187 431.040056 
L 898.147059 431.94279 
L 907.09893 441.496344 
L 916.050802 436.793023 
L 925.002674 428.212726 
L 933.954545 410.443169 
" clip-path="url(#pb16aed158a)" style="fill: none; stroke: #8172b3; stroke-width: 2.25; stroke-linecap: round"/>
   </g>
   <g id="line2d_26">
    <path d="M 173.045455 615.6 
L 181.997326 615.6 
L 190.949198 615.6 
L 199.90107 615.6 
L 208.852941 615.6 
L 217.804813 615.6 
L 226.756684 615.6 
L 235.708556 615.6 
L 244.660428 615.6 
L 253.612299 615.6 
L 262.564171 615.6 
L 271.516043 615.6 
L 280.467914 615.6 
L 289.419786 615.59999 
L 298.371658 615.599987 
L 307.323529 615.599968 
L 316.275401 615.599564 
L 325.227273 615.599558 
L 334.179144 615.598156 
L 343.131016 615.595296 
L 352.082888 615.587583 
L 361.034759 615.584179 
L 369.986631 615.559414 
L 378.938503 615.393674 
L 387.890374 615.351123 
L 396.842246 615.343212 
L 405.794118 615.159922 
L 414.745989 615.084219 
L 423.697861 614.286992 
L 432.649733 612.208705 
L 441.601604 611.27138 
L 450.553476 610.588317 
L 459.505348 609.337193 
L 468.457219 609.259731 
L 477.409091 609.050944 
L 486.360963 608.799638 
L 495.312834 608.608669 
L 504.264706 608.496634 
L 513.216578 606.747706 
L 522.168449 605.137442 
L 531.120321 604.69636 
L 540.072193 604.265949 
L 549.024064 604.061997 
L 557.975936 603.049562 
L 566.927807 603.559345 
L 575.879679 602.130415 
L 584.831551 600.240304 
L 593.783422 598.616453 
L 602.735294 590.619802 
L 611.687166 584.723622 
L 620.639037 576.52201 
L 629.590909 574.256313 
L 638.542781 566.991653 
L 647.494652 557.814504 
L 656.446524 552.488929 
L 665.398396 549.314962 
L 674.350267 547.345625 
L 683.302139 545.482203 
L 692.254011 541.848158 
L 701.205882 542.83015 
L 710.157754 543.631691 
L 719.109626 541.694616 
L 728.061497 537.797283 
L 737.013369 538.955367 
L 745.965241 530.256908 
L 754.917112 520.308484 
L 763.868984 504.130631 
L 772.820856 503.361362 
L 781.772727 511.474294 
L 790.724599 510.611171 
L 799.676471 492.989428 
L 808.628342 475.738286 
L 817.580214 454.396319 
L 826.532086 428.956763 
L 835.483957 405.458897 
L 844.435829 389.350232 
L 853.387701 388.092516 
L 862.339572 386.721506 
L 871.291444 388.312467 
L 880.243316 398.957758 
L 889.195187 405.741296 
L 898.147059 394.378056 
L 907.09893 388.053233 
L 916.050802 365.552795 
L 925.002674 345.279792 
L 933.954545 337.199065 
" clip-path="url(#pb16aed158a)" style="fill: none; stroke: #937860; stroke-width: 2.25; stroke-linecap: round"/>
   </g>
   <g id="line2d_27">
    <path d="M 173.045455 615.6 
L 181.997326 615.599999 
L 190.949198 615.599995 
L 199.90107 615.598147 
L 208.852941 615.586325 
L 217.804813 615.584212 
L 226.756684 615.533029 
L 235.708556 615.316153 
L 244.660428 615.176242 
L 253.612299 615.128806 
L 262.564171 615.026464 
L 271.516043 613.968492 
L 280.467914 611.750343 
L 289.419786 609.572548 
L 298.371658 607.030808 
L 307.323529 604.358653 
L 316.275401 602.176647 
L 325.227273 598.430428 
L 334.179144 591.656964 
L 343.131016 589.290688 
L 352.082888 586.553254 
L 361.034759 584.195495 
L 369.986631 581.892429 
L 378.938503 575.066109 
L 387.890374 570.208313 
L 396.842246 568.294347 
L 405.794118 568.762365 
L 414.745989 569.134788 
L 423.697861 570.89367 
L 432.649733 572.223558 
L 441.601604 574.406119 
L 450.553476 574.726049 
L 459.505348 575.415759 
L 468.457219 578.815942 
L 477.409091 574.934202 
L 486.360963 563.273664 
L 495.312834 548.239439 
L 504.264706 517.832729 
L 513.216578 495.716257 
L 522.168449 483.368261 
L 531.120321 453.899534 
L 540.072193 437.416233 
L 549.024064 429.362621 
L 557.975936 422.323259 
L 566.927807 408.81579 
L 575.879679 391.580653 
L 584.831551 361.479011 
L 593.783422 331.010361 
L 602.735294 307.833441 
L 611.687166 294.359089 
L 620.639037 295.765242 
L 629.590909 303.428849 
L 638.542781 320.156784 
L 647.494652 338.059762 
L 656.446524 346.366041 
L 665.398396 369.102664 
L 674.350267 373.760507 
L 683.302139 380.647231 
L 692.254011 385.244432 
L 701.205882 387.946497 
L 710.157754 398.4257 
L 719.109626 429.089089 
L 728.061497 461.741633 
L 737.013369 474.365706 
L 745.965241 483.784295 
L 754.917112 476.483754 
L 763.868984 464.799012 
L 772.820856 450.863388 
L 781.772727 435.477602 
L 790.724599 409.183628 
L 799.676471 389.262636 
L 808.628342 372.551438 
L 817.580214 349.521696 
L 826.532086 338.34179 
L 835.483957 331.726321 
L 844.435829 308.497585 
L 853.387701 283.772332 
L 862.339572 260.132736 
L 871.291444 257.907818 
L 880.243316 248.408985 
L 889.195187 249.790075 
L 898.147059 250.353501 
L 907.09893 256.170621 
L 916.050802 262.344079 
L 925.002674 267.814488 
L 933.954545 267.08772 
" clip-path="url(#pb16aed158a)" style="fill: none; stroke: #da8bc3; stroke-width: 2.25; stroke-linecap: round"/>
   </g>
   <g id="line2d_28">
    <path d="M 173.045455 615.6 
L 181.997326 615.6 
L 190.949198 615.6 
L 199.90107 615.6 
L 208.852941 615.599983 
L 217.804813 615.599979 
L 226.756684 615.599972 
L 235.708556 615.599667 
L 244.660428 615.598089 
L 253.612299 615.596991 
L 262.564171 615.590786 
L 271.516043 615.579048 
L 280.467914 615.559037 
L 289.419786 615.551392 
L 298.371658 615.203272 
L 307.323529 614.784456 
L 316.275401 614.59906 
L 325.227273 614.353483 
L 334.179144 614.083968 
L 343.131016 613.638578 
L 352.082888 613.034515 
L 361.034759 605.16693 
L 369.986631 599.403337 
L 378.938503 597.715358 
L 387.890374 596.81862 
L 396.842246 585.228709 
L 405.794118 577.809832 
L 414.745989 559.468339 
L 423.697861 546.947225 
L 432.649733 541.370866 
L 441.601604 533.970288 
L 450.553476 528.923949 
L 459.505348 523.230288 
L 468.457219 520.393375 
L 477.409091 517.173627 
L 486.360963 514.436224 
L 495.312834 517.70311 
L 504.264706 516.279224 
L 513.216578 516.128803 
L 522.168449 514.230147 
L 531.120321 521.811351 
L 540.072193 526.467678 
L 549.024064 540.957734 
L 557.975936 547.380092 
L 566.927807 552.447582 
L 575.879679 558.108086 
L 584.831551 561.307132 
L 593.783422 564.800607 
L 602.735294 567.468012 
L 611.687166 570.624086 
L 620.639037 573.785773 
L 629.590909 578.336546 
L 638.542781 585.292723 
L 647.494652 585.991232 
L 656.446524 587.960978 
L 665.398396 589.225376 
L 674.350267 586.52124 
L 683.302139 580.749079 
L 692.254011 581.705127 
L 701.205882 570.812608 
L 710.157754 567.80804 
L 719.109626 557.254175 
L 728.061497 547.858524 
L 737.013369 536.713547 
L 745.965241 520.214191 
L 754.917112 491.787935 
L 763.868984 464.959507 
L 772.820856 444.749209 
L 781.772727 422.798525 
L 790.724599 393.307578 
L 799.676471 361.481285 
L 808.628342 338.033669 
L 817.580214 317.899068 
L 826.532086 291.340277 
L 835.483957 268.704765 
L 844.435829 239.499925 
L 853.387701 218.062255 
L 862.339572 200.07901 
L 871.291444 176.268449 
L 880.243316 170.343008 
L 889.195187 179.61935 
L 898.147059 179.446867 
L 907.09893 173.305441 
L 916.050802 161.089381 
L 925.002674 155.116885 
L 933.954545 163.072525 
" clip-path="url(#pb16aed158a)" style="fill: none; stroke: #8c8c8c; stroke-width: 2.25; stroke-linecap: round"/>
   </g>
   <g id="line2d_29">
    <path d="M 173.045455 615.599938 
L 181.997326 615.598999 
L 190.949198 615.5978 
L 199.90107 615.547269 
L 208.852941 615.524078 
L 217.804813 615.519658 
L 226.756684 615.514895 
L 235.708556 615.447407 
L 244.660428 614.876377 
L 253.612299 614.242151 
L 262.564171 613.750339 
L 271.516043 613.174239 
L 280.467914 612.828293 
L 289.419786 612.409885 
L 298.371658 610.331811 
L 307.323529 607.896059 
L 316.275401 607.118299 
L 325.227273 606.327336 
L 334.179144 604.567814 
L 343.131016 603.594218 
L 352.082888 601.783402 
L 361.034759 587.416073 
L 369.986631 574.750519 
L 378.938503 562.98023 
L 387.890374 553.368535 
L 396.842246 527.617362 
L 405.794118 505.150297 
L 414.745989 480.900307 
L 423.697861 467.477438 
L 432.649733 453.548709 
L 441.601604 435.694216 
L 450.553476 410.857652 
L 459.505348 381.11561 
L 468.457219 366.456104 
L 477.409091 346.503552 
L 486.360963 325.355045 
L 495.312834 329.322196 
L 504.264706 322.268771 
L 513.216578 327.595698 
L 522.168449 331.282598 
L 531.120321 336.079728 
L 540.072193 343.22048 
L 549.024064 336.23169 
L 557.975936 326.057319 
L 566.927807 318.445463 
L 575.879679 311.325414 
L 584.831551 299.523136 
L 593.783422 295.828264 
L 602.735294 282.258691 
L 611.687166 283.286091 
L 620.639037 271.216058 
L 629.590909 248.821194 
L 638.542781 235.203413 
L 647.494652 205.687159 
L 656.446524 174.406402 
L 665.398396 166.905632 
L 674.350267 144.821459 
L 683.302139 145.189084 
L 692.254011 133.292405 
L 701.205882 121.050598 
L 710.157754 119.557793 
L 719.109626 126.773615 
L 728.061497 143.784899 
L 737.013369 162.275331 
L 745.965241 153.362883 
L 754.917112 159.205372 
L 763.868984 160.332205 
L 772.820856 174.643391 
L 781.772727 191.443394 
L 790.724599 211.534195 
L 799.676471 221.062118 
L 808.628342 242.928363 
L 817.580214 244.615097 
L 826.532086 248.847352 
L 835.483957 248.937192 
L 844.435829 255.454984 
L 853.387701 262.364215 
L 862.339572 253.611543 
L 871.291444 239.817789 
L 880.243316 247.689041 
L 889.195187 255.28666 
L 898.147059 265.674326 
L 907.09893 269.009024 
L 916.050802 276.144752 
L 925.002674 289.032317 
L 933.954545 288.869545 
" clip-path="url(#pb16aed158a)" style="fill: none; stroke: #ccb974; stroke-width: 2.25; stroke-linecap: round"/>
   </g>
   <g id="line2d_30">
    <path d="M 173.045455 594.227803 
L 181.997326 583.314899 
L 190.949198 581.837751 
L 199.90107 580.259793 
L 208.852941 574.12052 
L 217.804813 571.635938 
L 226.756684 556.867866 
L 235.708556 541.729705 
L 244.660428 521.397328 
L 253.612299 511.410185 
L 262.564171 482.722057 
L 271.516043 462.853088 
L 280.467914 439.491976 
L 289.419786 432.770974 
L 298.371658 422.469827 
L 307.323529 389.749033 
L 316.275401 376.66513 
L 325.227273 360.794588 
L 334.179144 341.760649 
L 343.131016 311.681917 
L 352.082888 291.136083 
L 361.034759 269.531159 
L 369.986631 247.054689 
L 378.938503 236.269185 
L 387.890374 237.051116 
L 396.842246 256.660222 
L 405.794118 265.942733 
L 414.745989 277.317483 
L 423.697861 266.867824 
L 432.649733 251.340363 
L 441.601604 262.145795 
L 450.553476 250.672822 
L 459.505348 230.506346 
L 468.457219 228.114621 
L 477.409091 238.030581 
L 486.360963 227.342921 
L 495.312834 226.559126 
L 504.264706 232.026941 
L 513.216578 234.874037 
L 522.168449 216.539771 
L 531.120321 195.692806 
L 540.072193 178.531902 
L 549.024064 173.13241 
L 557.975936 190.431734 
L 566.927807 197.149456 
L 575.879679 202.143766 
L 584.831551 218.356524 
L 593.783422 236.199842 
L 602.735294 239.872707 
L 611.687166 244.361942 
L 620.639037 259.254034 
L 629.590909 280.935163 
L 638.542781 297.56376 
L 647.494652 306.485815 
L 656.446524 306.978921 
L 665.398396 306.4846 
L 674.350267 311.871223 
L 683.302139 313.694024 
L 692.254011 290.48194 
L 701.205882 288.085797 
L 710.157754 295.095893 
L 719.109626 286.473933 
L 728.061497 280.983311 
L 737.013369 274.381456 
L 745.965241 288.933709 
L 754.917112 295.287112 
L 763.868984 304.997733 
L 772.820856 312.400264 
L 781.772727 326.541825 
L 790.724599 346.817597 
L 799.676471 372.839557 
L 808.628342 388.269245 
L 817.580214 399.599634 
L 826.532086 419.37698 
L 835.483957 448.918412 
L 844.435829 460.254195 
L 853.387701 482.804188 
L 862.339572 505.079224 
L 871.291444 519.358465 
L 880.243316 515.995151 
L 889.195187 516.902566 
L 898.147059 504.522811 
L 907.09893 504.509366 
L 916.050802 491.254112 
L 925.002674 479.592893 
L 933.954545 470.102185 
" clip-path="url(#pb16aed158a)" style="fill: none; stroke: #64b5cd; stroke-width: 2.25; stroke-linecap: round"/>
   </g>
   <g id="line2d_31">
    <path d="M 173.045455 615.599889 
L 181.997326 615.59117 
L 190.949198 615.59054 
L 199.90107 615.585884 
L 208.852941 615.585007 
L 217.804813 615.583256 
L 226.756684 615.555216 
L 235.708556 615.421057 
L 244.660428 615.396267 
L 253.612299 615.304285 
L 262.564171 614.15726 
L 271.516043 613.330596 
L 280.467914 611.280068 
L 289.419786 608.230714 
L 298.371658 603.321997 
L 307.323529 602.712049 
L 316.275401 599.646882 
L 325.227273 592.863139 
L 334.179144 590.497537 
L 343.131016 586.731789 
L 352.082888 584.092317 
L 361.034759 581.597585 
L 369.986631 576.459777 
L 378.938503 574.462602 
L 387.890374 571.031431 
L 396.842246 569.055356 
L 405.794118 568.295045 
L 414.745989 568.931473 
L 423.697861 569.524844 
L 432.649733 564.903142 
L 441.601604 562.597772 
L 450.553476 564.154149 
L 459.505348 569.889903 
L 468.457219 568.688994 
L 477.409091 564.016884 
L 486.360963 559.89511 
L 495.312834 534.54656 
L 504.264706 504.181183 
L 513.216578 476.311671 
L 522.168449 449.047035 
L 531.120321 424.19555 
L 540.072193 394.834337 
L 549.024064 369.363384 
L 557.975936 340.168569 
L 566.927807 328.330159 
L 575.879679 311.934929 
L 584.831551 298.594265 
L 593.783422 281.640782 
L 602.735294 260.026882 
L 611.687166 240.241516 
L 620.639037 227.715706 
L 629.590909 238.072787 
L 638.542781 254.414178 
L 647.494652 264.645576 
L 656.446524 261.308632 
L 665.398396 258.315032 
L 674.350267 264.554938 
L 683.302139 257.161934 
L 692.254011 264.359029 
L 701.205882 257.045109 
L 710.157754 246.099546 
L 719.109626 232.546795 
L 728.061497 214.170555 
L 737.013369 216.540273 
L 745.965241 207.760785 
L 754.917112 207.195118 
L 763.868984 203.312012 
L 772.820856 192.537898 
L 781.772727 187.023964 
L 790.724599 200.467002 
L 799.676471 202.801183 
L 808.628342 196.477891 
L 817.580214 198.155275 
L 826.532086 192.105691 
L 835.483957 190.233474 
L 844.435829 182.923868 
L 853.387701 183.985038 
L 862.339572 187.155498 
L 871.291444 186.174354 
L 880.243316 192.769899 
L 889.195187 191.348327 
L 898.147059 178.744227 
L 907.09893 171.476946 
L 916.050802 164.130284 
L 925.002674 152.781782 
L 933.954545 144.334933 
" clip-path="url(#pb16aed158a)" style="fill: none; stroke: #4c72b0; stroke-width: 2.25; stroke-linecap: round"/>
   </g>
   <g id="line2d_32">
    <path d="M 173.045455 615.6 
L 181.997326 615.6 
L 190.949198 615.6 
L 199.90107 615.6 
L 208.852941 615.6 
L 217.804813 615.6 
L 226.756684 615.6 
L 235.708556 615.6 
L 244.660428 615.6 
L 253.612299 615.6 
L 262.564171 615.6 
L 271.516043 615.6 
L 280.467914 615.6 
L 289.419786 615.6 
L 298.371658 615.6 
L 307.323529 615.6 
L 316.275401 615.6 
L 325.227273 615.6 
L 334.179144 615.6 
L 343.131016 615.599999 
L 352.082888 615.599978 
L 361.034759 615.599941 
L 369.986631 615.599916 
L 378.938503 615.599906 
L 387.890374 615.5999 
L 396.842246 615.599898 
L 405.794118 615.59971 
L 414.745989 615.599625 
L 423.697861 615.58682 
L 432.649733 615.586792 
L 441.601604 615.586772 
L 450.553476 615.586338 
L 459.505348 615.585743 
L 468.457219 615.579413 
L 477.409091 615.570385 
L 486.360963 615.545232 
L 495.312834 615.524023 
L 504.264706 615.505299 
L 513.216578 615.220754 
L 522.168449 615.061235 
L 531.120321 614.848393 
L 540.072193 614.763452 
L 549.024064 614.566325 
L 557.975936 614.524385 
L 566.927807 614.263548 
L 575.879679 614.184541 
L 584.831551 612.359432 
L 593.783422 611.035189 
L 602.735294 606.592476 
L 611.687166 601.274681 
L 620.639037 599.064413 
L 629.590909 596.002634 
L 638.542781 591.425059 
L 647.494652 589.078889 
L 656.446524 581.271019 
L 665.398396 574.722313 
L 674.350267 570.460947 
L 683.302139 569.371824 
L 692.254011 564.722445 
L 701.205882 558.27953 
L 710.157754 543.081859 
L 719.109626 533.968551 
L 728.061497 525.712657 
L 737.013369 517.422288 
L 745.965241 515.659318 
L 754.917112 494.296959 
L 763.868984 479.5304 
L 772.820856 471.85557 
L 781.772727 460.522833 
L 790.724599 463.799834 
L 799.676471 468.78162 
L 808.628342 467.201534 
L 817.580214 465.479029 
L 826.532086 463.271382 
L 835.483957 460.228129 
L 844.435829 470.169352 
L 853.387701 473.236893 
L 862.339572 480.94836 
L 871.291444 486.379287 
L 880.243316 489.857088 
L 889.195187 506.201738 
L 898.147059 521.024833 
L 907.09893 531.533021 
L 916.050802 540.080563 
L 925.002674 539.922395 
L 933.954545 535.106848 
" clip-path="url(#pb16aed158a)" style="fill: none; stroke: #dd8452; stroke-width: 2.25; stroke-linecap: round"/>
   </g>
   <g id="line2d_33">
    <path d="M 173.045455 615.6 
L 181.997326 615.6 
L 190.949198 615.6 
L 199.90107 615.599992 
L 208.852941 615.599986 
L 217.804813 615.599866 
L 226.756684 615.599778 
L 235.708556 615.599206 
L 244.660428 615.599137 
L 253.612299 615.598612 
L 262.564171 615.598352 
L 271.516043 615.598079 
L 280.467914 615.588 
L 289.419786 615.577159 
L 298.371658 615.451131 
L 307.323529 615.32351 
L 316.275401 614.601013 
L 325.227273 613.785105 
L 334.179144 613.408931 
L 343.131016 611.996904 
L 352.082888 610.614162 
L 361.034759 609.483142 
L 369.986631 607.936205 
L 378.938503 606.30978 
L 387.890374 605.899457 
L 396.842246 599.667435 
L 405.794118 587.15369 
L 414.745989 584.628623 
L 423.697861 582.539156 
L 432.649733 573.164919 
L 441.601604 564.311621 
L 450.553476 557.530441 
L 459.505348 543.581196 
L 468.457219 531.778528 
L 477.409091 517.672901 
L 486.360963 507.265543 
L 495.312834 488.341335 
L 504.264706 470.396803 
L 513.216578 445.038922 
L 522.168449 427.170044 
L 531.120321 407.324651 
L 540.072193 390.813153 
L 549.024064 357.599646 
L 557.975936 326.828726 
L 566.927807 323.503731 
L 575.879679 328.161581 
L 584.831551 328.192488 
L 593.783422 337.494605 
L 602.735294 346.035531 
L 611.687166 359.268846 
L 620.639037 369.621931 
L 629.590909 383.416273 
L 638.542781 389.022717 
L 647.494652 398.706583 
L 656.446524 386.247113 
L 665.398396 389.347727 
L 674.350267 400.467799 
L 683.302139 414.90047 
L 692.254011 428.080393 
L 701.205882 408.391703 
L 710.157754 378.251947 
L 719.109626 366.032894 
L 728.061497 342.231848 
L 737.013369 331.495216 
L 745.965241 299.631916 
L 754.917112 282.946715 
L 763.868984 266.627258 
L 772.820856 259.650035 
L 781.772727 256.157923 
L 790.724599 255.058553 
L 799.676471 246.260725 
L 808.628342 231.678051 
L 817.580214 216.852686 
L 826.532086 212.636905 
L 835.483957 213.906878 
L 844.435829 232.714184 
L 853.387701 227.527913 
L 862.339572 226.892192 
L 871.291444 215.853755 
L 880.243316 228.765337 
L 889.195187 236.643151 
L 898.147059 237.654386 
L 907.09893 229.832908 
L 916.050802 230.075536 
L 925.002674 243.514197 
L 933.954545 257.554743 
" clip-path="url(#pb16aed158a)" style="fill: none; stroke: #55a868; stroke-width: 2.25; stroke-linecap: round"/>
   </g>
   <g id="line2d_34">
    <path d="M 181.997326 587.05756 
L 190.949198 587.05756 
L 199.90107 587.05756 
L 208.852941 587.05756 
L 217.804813 587.05756 
L 226.756684 587.05756 
L 235.708556 587.05756 
L 244.660428 587.05756 
L 253.612299 587.05756 
L 262.564171 587.05756 
L 271.516043 587.05756 
L 280.467914 587.05756 
L 289.419786 587.05756 
L 298.371658 587.05756 
L 307.323529 587.05756 
L 316.275401 587.05756 
L 325.227273 587.05756 
L 334.179144 587.05756 
L 343.131016 587.05756 
L 352.082888 587.05756 
L 361.034759 587.05756 
L 369.986631 587.05756 
L 378.938503 587.05756 
L 387.890374 587.05756 
L 396.842246 587.05756 
L 405.794118 587.05756 
L 414.745989 587.05756 
L 423.697861 587.05756 
L 432.649733 587.05756 
L 441.601604 587.05756 
L 450.553476 587.05756 
L 459.505348 587.05756 
L 468.457219 587.05756 
L 477.409091 587.05756 
L 486.360963 587.05756 
L 495.312834 587.05756 
L 504.264706 587.05756 
L 513.216578 587.05756 
L 522.168449 587.05756 
L 531.120321 587.05756 
L 540.072193 587.05756 
L 549.024064 587.05756 
L 557.975936 587.05756 
L 566.927807 587.05756 
L 575.879679 587.05756 
L 584.831551 587.05756 
L 593.783422 587.05756 
L 602.735294 587.05756 
L 611.687166 587.05756 
L 620.639037 587.05756 
L 629.590909 587.05756 
L 638.542781 587.05756 
L 647.494652 587.05756 
L 656.446524 587.05756 
L 665.398396 587.05756 
L 674.350267 587.05756 
L 683.302139 587.05756 
L 692.254011 587.05756 
L 701.205882 587.05756 
L 710.157754 587.05756 
L 719.109626 587.05756 
L 728.061497 587.05756 
L 737.013369 587.05756 
L 745.965241 587.05756 
L 754.917112 587.05756 
L 763.868984 587.05756 
L 772.820856 587.05756 
L 781.772727 587.05756 
L 790.724599 587.05756 
L 799.676471 587.05756 
L 808.628342 587.05756 
L 817.580214 587.05756 
L 826.532086 587.05756 
L 835.483957 587.05756 
L 844.435829 587.05756 
L 853.387701 587.05756 
L 862.339572 587.05756 
L 871.291444 587.05756 
L 880.243316 587.05756 
L 889.195187 587.05756 
L 898.147059 587.05756 
L 907.09893 587.05756 
L 916.050802 587.05756 
L 925.002674 587.05756 
L 933.954545 587.05756 
" clip-path="url(#pb16aed158a)" style="fill: none; stroke-dasharray: 8.325,3.6; stroke-dashoffset: 0; stroke: #000000; stroke-width: 2.25"/>
   </g>
   <g id="patch_3">
    <path d="M 135 640.8 
L 135 86.4 
" style="fill: none; stroke: #262626; stroke-width: 1.875; stroke-linejoin: miter; stroke-linecap: square"/>
   </g>
   <g id="patch_4">
    <path d="M 972 640.8 
L 972 86.4 
" style="fill: none; stroke: #262626; stroke-width: 1.875; stroke-linejoin: miter; stroke-linecap: square"/>
   </g>
   <g id="patch_5">
    <path d="M 135 640.8 
L 972 640.8 
" style="fill: none; stroke: #262626; stroke-width: 1.875; stroke-linejoin: miter; stroke-linecap: square"/>
   </g>
   <g id="patch_6">
    <path d="M 135 86.4 
L 972 86.4 
" style="fill: none; stroke: #262626; stroke-width: 1.875; stroke-linejoin: miter; stroke-linecap: square"/>
   </g>
   <g id="text_11">
    <!-- Évolution des p-values (test KS loi exponentielle) pour $Z_n / n$ par loi -->
    <g style="fill: #262626" transform="translate(289.17 60.715875) scale(0.18 -0.18)">
     <defs>
      <path id="ArialMT-c9" d="M 506 0 
L 506 4581 
L 3819 4581 
L 3819 4041 
L 1113 4041 
L 1113 2638 
L 3647 2638 
L 3647 2100 
L 1113 2100 
L 1113 541 
L 3925 541 
L 3925 0 
L 506 0 
z
M 1758 4883 
L 2173 5758 
L 2911 5758 
L 2223 4883 
L 1758 4883 
z
" transform="scale(0.015625)"/>
      <path id="ArialMT-76" d="M 1344 0 
L 81 3319 
L 675 3319 
L 1388 1331 
Q 1503 1009 1600 663 
Q 1675 925 1809 1294 
L 2547 3319 
L 3125 3319 
L 1869 0 
L 1344 0 
z
" transform="scale(0.015625)"/>
      <path id="ArialMT-6f" d="M 213 1659 
Q 213 2581 725 3025 
Q 1153 3394 1769 3394 
Q 2453 3394 2887 2945 
Q 3322 2497 3322 1706 
Q 3322 1066 3130 698 
Q 2938 331 2570 128 
Q 2203 -75 1769 -75 
Q 1072 -75 642 372 
Q 213 819 213 1659 
z
M 791 1659 
Q 791 1022 1069 705 
Q 1347 388 1769 388 
Q 2188 388 2466 706 
Q 2744 1025 2744 1678 
Q 2744 2294 2464 2611 
Q 2184 2928 1769 2928 
Q 1347 2928 1069 2612 
Q 791 2297 791 1659 
z
" transform="scale(0.015625)"/>
      <path id="ArialMT-6c" d="M 409 0 
L 409 4581 
L 972 4581 
L 972 0 
L 409 0 
z
" transform="scale(0.015625)"/>
      <path id="ArialMT-75" d="M 2597 0 
L 2597 488 
Q 2209 -75 1544 -75 
Q 1250 -75 995 37 
Q 741 150 617 320 
Q 494 491 444 738 
Q 409 903 409 1263 
L 409 3319 
L 972 3319 
L 972 1478 
Q 972 1038 1006 884 
Q 1059 663 1231 536 
Q 1403 409 1656 409 
Q 1909 409 2131 539 
Q 2353 669 2445 892 
Q 2538 1116 2538 1541 
L 2538 3319 
L 3100 3319 
L 3100 0 
L 2597 0 
z
" transform="scale(0.015625)"/>
      <path id="ArialMT-74" d="M 1650 503 
L 1731 6 
Q 1494 -44 1306 -44 
Q 1000 -44 831 53 
Q 663 150 594 308 
Q 525 466 525 972 
L 525 2881 
L 113 2881 
L 113 3319 
L 525 3319 
L 525 4141 
L 1084 4478 
L 1084 3319 
L 1650 3319 
L 1650 2881 
L 1084 2881 
L 1084 941 
Q 1084 700 1114 631 
Q 1144 563 1211 522 
Q 1278 481 1403 481 
Q 1497 481 1650 503 
z
" transform="scale(0.015625)"/>
      <path id="ArialMT-69" d="M 425 3934 
L 425 4581 
L 988 4581 
L 988 3934 
L 425 3934 
z
M 425 0 
L 425 3319 
L 988 3319 
L 988 0 
L 425 0 
z
" transform="scale(0.015625)"/>
      <path id="ArialMT-6e" d="M 422 0 
L 422 3319 
L 928 3319 
L 928 2847 
Q 1294 3394 1984 3394 
Q 2284 3394 2536 3286 
Q 2788 3178 2913 3003 
Q 3038 2828 3088 2588 
Q 3119 2431 3119 2041 
L 3119 0 
L 2556 0 
L 2556 2019 
Q 2556 2363 2490 2533 
Q 2425 2703 2258 2804 
Q 2091 2906 1866 2906 
Q 1506 2906 1245 2678 
Q 984 2450 984 1813 
L 984 0 
L 422 0 
z
" transform="scale(0.015625)"/>
      <path id="ArialMT-20" transform="scale(0.015625)"/>
      <path id="ArialMT-64" d="M 2575 0 
L 2575 419 
Q 2259 -75 1647 -75 
Q 1250 -75 917 144 
Q 584 363 401 755 
Q 219 1147 219 1656 
Q 219 2153 384 2558 
Q 550 2963 881 3178 
Q 1213 3394 1622 3394 
Q 1922 3394 2156 3267 
Q 2391 3141 2538 2938 
L 2538 4581 
L 3097 4581 
L 3097 0 
L 2575 0 
z
M 797 1656 
Q 797 1019 1065 703 
Q 1334 388 1700 388 
Q 2069 388 2326 689 
Q 2584 991 2584 1609 
Q 2584 2291 2321 2609 
Q 2059 2928 1675 2928 
Q 1300 2928 1048 2622 
Q 797 2316 797 1656 
z
" transform="scale(0.015625)"/>
      <path id="ArialMT-65" d="M 2694 1069 
L 3275 997 
Q 3138 488 2766 206 
Q 2394 -75 1816 -75 
Q 1088 -75 661 373 
Q 234 822 234 1631 
Q 234 2469 665 2931 
Q 1097 3394 1784 3394 
Q 2450 3394 2872 2941 
Q 3294 2488 3294 1666 
Q 3294 1616 3291 1516 
L 816 1516 
Q 847 969 1125 678 
Q 1403 388 1819 388 
Q 2128 388 2347 550 
Q 2566 713 2694 1069 
z
M 847 1978 
L 2700 1978 
Q 2663 2397 2488 2606 
Q 2219 2931 1791 2931 
Q 1403 2931 1139 2672 
Q 875 2413 847 1978 
z
" transform="scale(0.015625)"/>
      <path id="ArialMT-73" d="M 197 991 
L 753 1078 
Q 800 744 1014 566 
Q 1228 388 1613 388 
Q 2000 388 2187 545 
Q 2375 703 2375 916 
Q 2375 1106 2209 1216 
Q 2094 1291 1634 1406 
Q 1016 1563 777 1677 
Q 538 1791 414 1992 
Q 291 2194 291 2438 
Q 291 2659 392 2848 
Q 494 3038 669 3163 
Q 800 3259 1026 3326 
Q 1253 3394 1513 3394 
Q 1903 3394 2198 3281 
Q 2494 3169 2634 2976 
Q 2775 2784 2828 2463 
L 2278 2388 
Q 2241 2644 2061 2787 
Q 1881 2931 1553 2931 
Q 1166 2931 1000 2803 
Q 834 2675 834 2503 
Q 834 2394 903 2306 
Q 972 2216 1119 2156 
Q 1203 2125 1616 2013 
Q 2213 1853 2448 1751 
Q 2684 1650 2818 1456 
Q 2953 1263 2953 975 
Q 2953 694 2789 445 
Q 2625 197 2315 61 
Q 2006 -75 1616 -75 
Q 969 -75 630 194 
Q 291 463 197 991 
z
" transform="scale(0.015625)"/>
      <path id="ArialMT-70" d="M 422 -1272 
L 422 3319 
L 934 3319 
L 934 2888 
Q 1116 3141 1344 3267 
Q 1572 3394 1897 3394 
Q 2322 3394 2647 3175 
Q 2972 2956 3137 2557 
Q 3303 2159 3303 1684 
Q 3303 1175 3120 767 
Q 2938 359 2589 142 
Q 2241 -75 1856 -75 
Q 1575 -75 1351 44 
Q 1128 163 984 344 
L 984 -1272 
L 422 -1272 
z
M 931 1641 
Q 931 1000 1190 694 
Q 1450 388 1819 388 
Q 2194 388 2461 705 
Q 2728 1022 2728 1688 
Q 2728 2322 2467 2637 
Q 2206 2953 1844 2953 
Q 1484 2953 1207 2617 
Q 931 2281 931 1641 
z
" transform="scale(0.015625)"/>
      <path id="ArialMT-2d" d="M 203 1375 
L 203 1941 
L 1931 1941 
L 1931 1375 
L 203 1375 
z
" transform="scale(0.015625)"/>
      <path id="ArialMT-61" d="M 2588 409 
Q 2275 144 1986 34 
Q 1697 -75 1366 -75 
Q 819 -75 525 192 
Q 231 459 231 875 
Q 231 1119 342 1320 
Q 453 1522 633 1644 
Q 813 1766 1038 1828 
Q 1203 1872 1538 1913 
Q 2219 1994 2541 2106 
Q 2544 2222 2544 2253 
Q 2544 2597 2384 2738 
Q 2169 2928 1744 2928 
Q 1347 2928 1158 2789 
Q 969 2650 878 2297 
L 328 2372 
Q 403 2725 575 2942 
Q 747 3159 1072 3276 
Q 1397 3394 1825 3394 
Q 2250 3394 2515 3294 
Q 2781 3194 2906 3042 
Q 3031 2891 3081 2659 
Q 3109 2516 3109 2141 
L 3109 1391 
Q 3109 606 3145 398 
Q 3181 191 3288 0 
L 2700 0 
Q 2613 175 2588 409 
z
M 2541 1666 
Q 2234 1541 1622 1453 
Q 1275 1403 1131 1340 
Q 988 1278 909 1158 
Q 831 1038 831 891 
Q 831 666 1001 516 
Q 1172 366 1500 366 
Q 1825 366 2078 508 
Q 2331 650 2450 897 
Q 2541 1088 2541 1459 
L 2541 1666 
z
" transform="scale(0.015625)"/>
      <path id="ArialMT-28" d="M 1497 -1347 
Q 1031 -759 709 28 
Q 388 816 388 1659 
Q 388 2403 628 3084 
Q 909 3875 1497 4659 
L 1900 4659 
Q 1522 4009 1400 3731 
Q 1209 3300 1100 2831 
Q 966 2247 966 1656 
Q 966 153 1900 -1347 
L 1497 -1347 
z
" transform="scale(0.015625)"/>
      <path id="ArialMT-4b" d="M 469 0 
L 469 4581 
L 1075 4581 
L 1075 2309 
L 3350 4581 
L 4172 4581 
L 2250 2725 
L 4256 0 
L 3456 0 
L 1825 2319 
L 1075 1588 
L 1075 0 
L 469 0 
z
" transform="scale(0.015625)"/>
      <path id="ArialMT-53" d="M 288 1472 
L 859 1522 
Q 900 1178 1048 958 
Q 1197 738 1509 602 
Q 1822 466 2213 466 
Q 2559 466 2825 569 
Q 3091 672 3220 851 
Q 3350 1031 3350 1244 
Q 3350 1459 3225 1620 
Q 3100 1781 2813 1891 
Q 2628 1963 1997 2114 
Q 1366 2266 1113 2400 
Q 784 2572 623 2826 
Q 463 3081 463 3397 
Q 463 3744 659 4045 
Q 856 4347 1234 4503 
Q 1613 4659 2075 4659 
Q 2584 4659 2973 4495 
Q 3363 4331 3572 4012 
Q 3781 3694 3797 3291 
L 3216 3247 
Q 3169 3681 2898 3903 
Q 2628 4125 2100 4125 
Q 1550 4125 1298 3923 
Q 1047 3722 1047 3438 
Q 1047 3191 1225 3031 
Q 1400 2872 2139 2705 
Q 2878 2538 3153 2413 
Q 3553 2228 3743 1945 
Q 3934 1663 3934 1294 
Q 3934 928 3725 604 
Q 3516 281 3123 101 
Q 2731 -78 2241 -78 
Q 1619 -78 1198 103 
Q 778 284 539 648 
Q 300 1013 288 1472 
z
" transform="scale(0.015625)"/>
      <path id="ArialMT-78" d="M 47 0 
L 1259 1725 
L 138 3319 
L 841 3319 
L 1350 2541 
Q 1494 2319 1581 2169 
Q 1719 2375 1834 2534 
L 2394 3319 
L 3066 3319 
L 1919 1756 
L 3153 0 
L 2463 0 
L 1781 1031 
L 1600 1309 
L 728 0 
L 47 0 
z
" transform="scale(0.015625)"/>
      <path id="ArialMT-29" d="M 791 -1347 
L 388 -1347 
Q 1322 153 1322 1656 
Q 1322 2244 1188 2822 
Q 1081 3291 891 3722 
Q 769 4003 388 4659 
L 791 4659 
Q 1378 3875 1659 3084 
Q 1900 2403 1900 1659 
Q 1900 816 1576 28 
Q 1253 -759 791 -1347 
z
" transform="scale(0.015625)"/>
      <path id="ArialMT-72" d="M 416 0 
L 416 3319 
L 922 3319 
L 922 2816 
Q 1116 3169 1280 3281 
Q 1444 3394 1641 3394 
Q 1925 3394 2219 3213 
L 2025 2691 
Q 1819 2813 1613 2813 
Q 1428 2813 1281 2702 
Q 1134 2591 1072 2394 
Q 978 2094 978 1738 
L 978 0 
L 416 0 
z
" transform="scale(0.015625)"/>
      <path id="DejaVuSans-Oblique-5a" d="M 838 4666 
L 4500 4666 
L 4409 4184 
L 794 531 
L 3769 531 
L 3669 0 
L -141 0 
L -50 481 
L 3566 4134 
L 738 4134 
L 838 4666 
z
" transform="scale(0.015625)"/>
      <path id="DejaVuSans-Oblique-6e" d="M 3566 2113 
L 3156 0 
L 2578 0 
L 2988 2091 
Q 3016 2238 3031 2350 
Q 3047 2463 3047 2528 
Q 3047 2791 2881 2937 
Q 2716 3084 2419 3084 
Q 1956 3084 1622 2776 
Q 1288 2469 1184 1941 
L 800 0 
L 225 0 
L 903 3500 
L 1478 3500 
L 1363 2950 
Q 1603 3253 1940 3418 
Q 2278 3584 2650 3584 
Q 3113 3584 3367 3334 
Q 3622 3084 3622 2631 
Q 3622 2519 3608 2391 
Q 3594 2263 3566 2113 
z
" transform="scale(0.015625)"/>
      <path id="DejaVuSans-2f" d="M 1625 4666 
L 2156 4666 
L 531 -594 
L 0 -594 
L 1625 4666 
z
" transform="scale(0.015625)"/>
     </defs>
     <use xlink:href="#ArialMT-c9" transform="translate(0 0.03125)"/>
     <use xlink:href="#ArialMT-76" transform="translate(66.699219 0.03125)"/>
     <use xlink:href="#ArialMT-6f" transform="translate(116.699219 0.03125)"/>
     <use xlink:href="#ArialMT-6c" transform="translate(172.314453 0.03125)"/>
     <use xlink:href="#ArialMT-75" transform="translate(194.53125 0.03125)"/>
     <use xlink:href="#ArialMT-74" transform="translate(250.146484 0.03125)"/>
     <use xlink:href="#ArialMT-69" transform="translate(277.929688 0.03125)"/>
     <use xlink:href="#ArialMT-6f" transform="translate(300.146484 0.03125)"/>
     <use xlink:href="#ArialMT-6e" transform="translate(355.761719 0.03125)"/>
     <use xlink:href="#ArialMT-20" transform="translate(411.376953 0.03125)"/>
     <use xlink:href="#ArialMT-64" transform="translate(439.160156 0.03125)"/>
     <use xlink:href="#ArialMT-65" transform="translate(494.775391 0.03125)"/>
     <use xlink:href="#ArialMT-73" transform="translate(550.390625 0.03125)"/>
     <use xlink:href="#ArialMT-20" transform="translate(600.390625 0.03125)"/>
     <use xlink:href="#ArialMT-70" transform="translate(628.173828 0.03125)"/>
     <use xlink:href="#ArialMT-2d" transform="translate(683.789062 0.03125)"/>
     <use xlink:href="#ArialMT-76" transform="translate(717.089844 0.03125)"/>
     <use xlink:href="#ArialMT-61" transform="translate(767.089844 0.03125)"/>
     <use xlink:href="#ArialMT-6c" transform="translate(822.705078 0.03125)"/>
     <use xlink:href="#ArialMT-75" transform="translate(844.921875 0.03125)"/>
     <use xlink:href="#ArialMT-65" transform="translate(900.537109 0.03125)"/>
     <use xlink:href="#ArialMT-73" transform="translate(956.152344 0.03125)"/>
     <use xlink:href="#ArialMT-20" transform="translate(1006.152344 0.03125)"/>
     <use xlink:href="#ArialMT-28" transform="translate(1033.935547 0.03125)"/>
     <use xlink:href="#ArialMT-74" transform="translate(1067.236328 0.03125)"/>
     <use xlink:href="#ArialMT-65" transform="translate(1095.019531 0.03125)"/>
     <use xlink:href="#ArialMT-73" transform="translate(1150.634766 0.03125)"/>
     <use xlink:href="#ArialMT-74" transform="translate(1200.634766 0.03125)"/>
     <use xlink:href="#ArialMT-20" transform="translate(1228.417969 0.03125)"/>
     <use xlink:href="#ArialMT-4b" transform="translate(1256.201172 0.03125)"/>
     <use xlink:href="#ArialMT-53" transform="translate(1322.900391 0.03125)"/>
     <use xlink:href="#ArialMT-20" transform="translate(1389.599609 0.03125)"/>
     <use xlink:href="#ArialMT-6c" transform="translate(1417.382812 0.03125)"/>
     <use xlink:href="#ArialMT-6f" transform="translate(1439.599609 0.03125)"/>
     <use xlink:href="#ArialMT-69" transform="translate(1495.214844 0.03125)"/>
     <use xlink:href="#ArialMT-20" transform="translate(1517.431641 0.03125)"/>
     <use xlink:href="#ArialMT-65" transform="translate(1545.214844 0.03125)"/>
     <use xlink:href="#ArialMT-78" transform="translate(1600.830078 0.03125)"/>
     <use xlink:href="#ArialMT-70" transform="translate(1650.830078 0.03125)"/>
     <use xlink:href="#ArialMT-6f" transform="translate(1706.445312 0.03125)"/>
     <use xlink:href="#ArialMT-6e" transform="translate(1762.060547 0.03125)"/>
     <use xlink:href="#ArialMT-65" transform="translate(1817.675781 0.03125)"/>
     <use xlink:href="#ArialMT-6e" transform="translate(1873.291016 0.03125)"/>
     <use xlink:href="#ArialMT-74" transform="translate(1928.90625 0.03125)"/>
     <use xlink:href="#ArialMT-69" transform="translate(1956.689453 0.03125)"/>
     <use xlink:href="#ArialMT-65" transform="translate(1978.90625 0.03125)"/>
     <use xlink:href="#ArialMT-6c" transform="translate(2034.521484 0.03125)"/>
     <use xlink:href="#ArialMT-6c" transform="translate(2056.738281 0.03125)"/>
     <use xlink:href="#ArialMT-65" transform="translate(2078.955078 0.03125)"/>
     <use xlink:href="#ArialMT-29" transform="translate(2134.570312 0.03125)"/>
     <use xlink:href="#ArialMT-20" transform="translate(2167.871094 0.03125)"/>
     <use xlink:href="#ArialMT-70" transform="translate(2195.654297 0.03125)"/>
     <use xlink:href="#ArialMT-6f" transform="translate(2251.269531 0.03125)"/>
     <use xlink:href="#ArialMT-75" transform="translate(2306.884766 0.03125)"/>
     <use xlink:href="#ArialMT-72" transform="translate(2362.5 0.03125)"/>
     <use xlink:href="#ArialMT-20" transform="translate(2395.800781 0.03125)"/>
     <use xlink:href="#DejaVuSans-Oblique-5a" transform="translate(2423.583984 0.03125)"/>
     <use xlink:href="#DejaVuSans-Oblique-6e" transform="translate(2492.089844 -16.375) scale(0.7)"/>
     <use xlink:href="#DejaVuSans-2f" transform="translate(2539.189453 0.03125)"/>
     <use xlink:href="#DejaVuSans-Oblique-6e" transform="translate(2572.880859 0.03125)"/>
     <use xlink:href="#ArialMT-20" transform="translate(2636.259766 0.03125)"/>
     <use xlink:href="#ArialMT-70" transform="translate(2664.042969 0.03125)"/>
     <use xlink:href="#ArialMT-61" transform="translate(2719.658203 0.03125)"/>
     <use xlink:href="#ArialMT-72" transform="translate(2775.273438 0.03125)"/>
     <use xlink:href="#ArialMT-20" transform="translate(2808.574219 0.03125)"/>
     <use xlink:href="#ArialMT-6c" transform="translate(2836.357422 0.03125)"/>
     <use xlink:href="#ArialMT-6f" transform="translate(2858.574219 0.03125)"/>
     <use xlink:href="#ArialMT-69" transform="translate(2914.189453 0.03125)"/>
    </g>
    <!-- (lissé avec une fenêtre de taille 15) -->
    <g style="fill: #262626" transform="translate(413.931094 80.4) scale(0.18 -0.18)">
     <defs>
      <path id="ArialMT-e9" d="M 2694 1069 
L 3275 997 
Q 3138 488 2766 206 
Q 2394 -75 1816 -75 
Q 1088 -75 661 373 
Q 234 822 234 1631 
Q 234 2469 665 2931 
Q 1097 3394 1784 3394 
Q 2450 3394 2872 2941 
Q 3294 2488 3294 1666 
Q 3294 1616 3291 1516 
L 816 1516 
Q 847 969 1125 678 
Q 1403 388 1819 388 
Q 2128 388 2347 550 
Q 2566 713 2694 1069 
z
M 847 1978 
L 2700 1978 
Q 2663 2397 2488 2606 
Q 2219 2931 1791 2931 
Q 1403 2931 1139 2672 
Q 875 2413 847 1978 
z
M 1454 3731 
L 1869 4606 
L 2607 4606 
L 1919 3731 
L 1454 3731 
z
" transform="scale(0.015625)"/>
      <path id="ArialMT-63" d="M 2588 1216 
L 3141 1144 
Q 3050 572 2676 248 
Q 2303 -75 1759 -75 
Q 1078 -75 664 370 
Q 250 816 250 1647 
Q 250 2184 428 2587 
Q 606 2991 970 3192 
Q 1334 3394 1763 3394 
Q 2303 3394 2647 3120 
Q 2991 2847 3088 2344 
L 2541 2259 
Q 2463 2594 2264 2762 
Q 2066 2931 1784 2931 
Q 1359 2931 1093 2626 
Q 828 2322 828 1663 
Q 828 994 1084 691 
Q 1341 388 1753 388 
Q 2084 388 2306 591 
Q 2528 794 2588 1216 
z
" transform="scale(0.015625)"/>
      <path id="ArialMT-66" d="M 556 0 
L 556 2881 
L 59 2881 
L 59 3319 
L 556 3319 
L 556 3672 
Q 556 4006 616 4169 
Q 697 4388 901 4523 
Q 1106 4659 1475 4659 
Q 1713 4659 2000 4603 
L 1916 4113 
Q 1741 4144 1584 4144 
Q 1328 4144 1222 4034 
Q 1116 3925 1116 3625 
L 1116 3319 
L 1763 3319 
L 1763 2881 
L 1116 2881 
L 1116 0 
L 556 0 
z
" transform="scale(0.015625)"/>
      <path id="ArialMT-ea" d="M 2694 1069 
L 3275 997 
Q 3138 488 2766 206 
Q 2394 -75 1816 -75 
Q 1088 -75 661 373 
Q 234 822 234 1631 
Q 234 2469 665 2931 
Q 1097 3394 1784 3394 
Q 2450 3394 2872 2941 
Q 3294 2488 3294 1666 
Q 3294 1616 3291 1516 
L 816 1516 
Q 847 969 1125 678 
Q 1403 388 1819 388 
Q 2128 388 2347 550 
Q 2566 713 2694 1069 
z
M 847 1978 
L 2700 1978 
Q 2663 2397 2488 2606 
Q 2219 2931 1791 2931 
Q 1403 2931 1139 2672 
Q 875 2413 847 1978 
z
M 1771 4263 
L 1418 3731 
L 774 3731 
L 1449 4606 
L 2049 4606 
L 2752 3731 
L 2115 3731 
L 1771 4263 
z
" transform="scale(0.015625)"/>
      <path id="ArialMT-35" d="M 266 1200 
L 856 1250 
Q 922 819 1161 601 
Q 1400 384 1738 384 
Q 2144 384 2425 690 
Q 2706 997 2706 1503 
Q 2706 1984 2436 2262 
Q 2166 2541 1728 2541 
Q 1456 2541 1237 2417 
Q 1019 2294 894 2097 
L 366 2166 
L 809 4519 
L 3088 4519 
L 3088 3981 
L 1259 3981 
L 1013 2750 
Q 1425 3038 1878 3038 
Q 2478 3038 2890 2622 
Q 3303 2206 3303 1553 
Q 3303 931 2941 478 
Q 2500 -78 1738 -78 
Q 1113 -78 717 272 
Q 322 622 266 1200 
z
" transform="scale(0.015625)"/>
     </defs>
     <use xlink:href="#ArialMT-28"/>
     <use xlink:href="#ArialMT-6c" x="33.300781"/>
     <use xlink:href="#ArialMT-69" x="55.517578"/>
     <use xlink:href="#ArialMT-73" x="77.734375"/>
     <use xlink:href="#ArialMT-73" x="127.734375"/>
     <use xlink:href="#ArialMT-e9" x="177.734375"/>
     <use xlink:href="#ArialMT-20" x="233.349609"/>
     <use xlink:href="#ArialMT-61" x="261.132812"/>
     <use xlink:href="#ArialMT-76" x="316.748047"/>
     <use xlink:href="#ArialMT-65" x="366.748047"/>
     <use xlink:href="#ArialMT-63" x="422.363281"/>
     <use xlink:href="#ArialMT-20" x="472.363281"/>
     <use xlink:href="#ArialMT-75" x="500.146484"/>
     <use xlink:href="#ArialMT-6e" x="555.761719"/>
     <use xlink:href="#ArialMT-65" x="611.376953"/>
     <use xlink:href="#ArialMT-20" x="666.992188"/>
     <use xlink:href="#ArialMT-66" x="694.775391"/>
     <use xlink:href="#ArialMT-65" x="722.558594"/>
     <use xlink:href="#ArialMT-6e" x="778.173828"/>
     <use xlink:href="#ArialMT-ea" x="833.789062"/>
     <use xlink:href="#ArialMT-74" x="889.404297"/>
     <use xlink:href="#ArialMT-72" x="917.1875"/>
     <use xlink:href="#ArialMT-65" x="950.488281"/>
     <use xlink:href="#ArialMT-20" x="1006.103516"/>
     <use xlink:href="#ArialMT-64" x="1033.886719"/>
     <use xlink:href="#ArialMT-65" x="1089.501953"/>
     <use xlink:href="#ArialMT-20" x="1145.117188"/>
     <use xlink:href="#ArialMT-74" x="1172.900391"/>
     <use xlink:href="#ArialMT-61" x="1200.683594"/>
     <use xlink:href="#ArialMT-69" x="1256.298828"/>
     <use xlink:href="#ArialMT-6c" x="1278.515625"/>
     <use xlink:href="#ArialMT-6c" x="1300.732422"/>
     <use xlink:href="#ArialMT-65" x="1322.949219"/>
     <use xlink:href="#ArialMT-20" x="1378.564453"/>
     <use xlink:href="#ArialMT-31" x="1406.347656"/>
     <use xlink:href="#ArialMT-35" x="1461.962891"/>
     <use xlink:href="#ArialMT-29" x="1517.578125"/>
    </g>
   </g>
   <g id="legend_1">
    <g id="patch_7">
     <path d="M 146.55 431.484609 
L 506.128828 431.484609 
Q 509.428828 431.484609 509.428828 428.184609 
L 509.428828 97.95 
Q 509.428828 94.65 506.128828 94.65 
L 146.55 94.65 
Q 143.25 94.65 143.25 97.95 
L 143.25 428.184609 
Q 143.25 431.484609 146.55 431.484609 
z
" style="fill: #ffffff; opacity: 0.8; stroke: #cccccc; stroke-width: 1.5; stroke-linejoin: miter"/>
    </g>
    <g id="line2d_35">
     <path d="M 149.85 107.486484 
L 166.35 107.486484 
L 182.85 107.486484 
" style="fill: none; stroke: #4c72b0; stroke-width: 2.25; stroke-linecap: round"/>
    </g>
    <g id="text_12">
     <!-- Poisson (λ = 1) -->
     <g style="fill: #262626" transform="translate(196.05 113.261484) scale(0.165 -0.165)">
      <defs>
       <path id="ArialMT-50" d="M 494 0 
L 494 4581 
L 2222 4581 
Q 2678 4581 2919 4538 
Q 3256 4481 3484 4323 
Q 3713 4166 3852 3881 
Q 3991 3597 3991 3256 
Q 3991 2672 3619 2267 
Q 3247 1863 2275 1863 
L 1100 1863 
L 1100 0 
L 494 0 
z
M 1100 2403 
L 2284 2403 
Q 2872 2403 3119 2622 
Q 3366 2841 3366 3238 
Q 3366 3525 3220 3729 
Q 3075 3934 2838 4000 
Q 2684 4041 2272 4041 
L 1100 4041 
L 1100 2403 
z
" transform="scale(0.015625)"/>
       <path id="ArialMT-3bb" d="M 1597 2481 
L 669 0 
L 75 0 
L 1306 3256 
L 813 4581 
L 1406 4581 
L 3119 0 
L 2525 0 
L 1597 2481 
z
" transform="scale(0.015625)"/>
       <path id="ArialMT-3d" d="M 3381 2694 
L 356 2694 
L 356 3219 
L 3381 3219 
L 3381 2694 
z
M 3381 1303 
L 356 1303 
L 356 1828 
L 3381 1828 
L 3381 1303 
z
" transform="scale(0.015625)"/>
      </defs>
      <use xlink:href="#ArialMT-50"/>
      <use xlink:href="#ArialMT-6f" x="66.699219"/>
      <use xlink:href="#ArialMT-69" x="122.314453"/>
      <use xlink:href="#ArialMT-73" x="144.53125"/>
      <use xlink:href="#ArialMT-73" x="194.53125"/>
      <use xlink:href="#ArialMT-6f" x="244.53125"/>
      <use xlink:href="#ArialMT-6e" x="300.146484"/>
      <use xlink:href="#ArialMT-20" x="355.761719"/>
      <use xlink:href="#ArialMT-28" x="383.544922"/>
      <use xlink:href="#ArialMT-3bb" x="416.845703"/>
      <use xlink:href="#ArialMT-20" x="466.845703"/>
      <use xlink:href="#ArialMT-3d" x="494.628906"/>
      <use xlink:href="#ArialMT-20" x="553.027344"/>
      <use xlink:href="#ArialMT-31" x="580.810547"/>
      <use xlink:href="#ArialMT-29" x="636.425781"/>
     </g>
    </g>
    <g id="line2d_36">
     <path d="M 149.85 131.220703 
L 166.35 131.220703 
L 182.85 131.220703 
" style="fill: none; stroke: #dd8452; stroke-width: 2.25; stroke-linecap: round"/>
    </g>
    <g id="text_13">
     <!-- Uniforme {0, 1, 2} -->
     <g style="fill: #262626" transform="translate(196.05 136.995703) scale(0.165 -0.165)">
      <defs>
       <path id="ArialMT-55" d="M 3500 4581 
L 4106 4581 
L 4106 1934 
Q 4106 1244 3950 837 
Q 3794 431 3386 176 
Q 2978 -78 2316 -78 
Q 1672 -78 1262 144 
Q 853 366 678 786 
Q 503 1206 503 1934 
L 503 4581 
L 1109 4581 
L 1109 1938 
Q 1109 1341 1220 1058 
Q 1331 775 1601 622 
Q 1872 469 2263 469 
Q 2931 469 3215 772 
Q 3500 1075 3500 1938 
L 3500 4581 
z
" transform="scale(0.015625)"/>
       <path id="ArialMT-6d" d="M 422 0 
L 422 3319 
L 925 3319 
L 925 2853 
Q 1081 3097 1340 3245 
Q 1600 3394 1931 3394 
Q 2300 3394 2536 3241 
Q 2772 3088 2869 2813 
Q 3263 3394 3894 3394 
Q 4388 3394 4653 3120 
Q 4919 2847 4919 2278 
L 4919 0 
L 4359 0 
L 4359 2091 
Q 4359 2428 4304 2576 
Q 4250 2725 4106 2815 
Q 3963 2906 3769 2906 
Q 3419 2906 3187 2673 
Q 2956 2441 2956 1928 
L 2956 0 
L 2394 0 
L 2394 2156 
Q 2394 2531 2256 2718 
Q 2119 2906 1806 2906 
Q 1569 2906 1367 2781 
Q 1166 2656 1075 2415 
Q 984 2175 984 1722 
L 984 0 
L 422 0 
z
" transform="scale(0.015625)"/>
       <path id="ArialMT-7b" d="M 178 1913 
Q 419 1919 570 2042 
Q 722 2166 772 2381 
Q 822 2597 825 3119 
Q 828 3641 844 3806 
Q 872 4069 948 4228 
Q 1025 4388 1137 4483 
Q 1250 4578 1425 4628 
Q 1544 4659 1813 4659 
L 1988 4659 
L 1988 4169 
L 1891 4169 
Q 1566 4169 1459 4051 
Q 1353 3934 1353 3528 
Q 1353 2709 1319 2494 
Q 1263 2159 1127 1978 
Q 991 1797 700 1656 
Q 1044 1513 1198 1217 
Q 1353 922 1353 250 
Q 1353 -359 1366 -475 
Q 1391 -688 1492 -772 
Q 1594 -856 1891 -856 
L 1988 -856 
L 1988 -1347 
L 1813 -1347 
Q 1506 -1347 1369 -1297 
Q 1169 -1225 1037 -1064 
Q 906 -903 867 -656 
Q 828 -409 825 153 
Q 822 716 772 931 
Q 722 1147 570 1272 
Q 419 1397 178 1403 
L 178 1913 
z
" transform="scale(0.015625)"/>
       <path id="ArialMT-2c" d="M 569 0 
L 569 641 
L 1209 641 
L 1209 0 
Q 1209 -353 1084 -570 
Q 959 -788 688 -906 
L 531 -666 
Q 709 -588 793 -436 
Q 878 -284 888 0 
L 569 0 
z
" transform="scale(0.015625)"/>
       <path id="ArialMT-7d" d="M 1956 1913 
L 1956 1403 
Q 1716 1397 1564 1272 
Q 1413 1147 1363 933 
Q 1313 719 1309 197 
Q 1306 -325 1291 -491 
Q 1263 -756 1186 -914 
Q 1109 -1072 996 -1167 
Q 884 -1263 709 -1313 
Q 591 -1347 322 -1347 
L 147 -1347 
L 147 -856 
L 244 -856 
Q 569 -856 675 -739 
Q 781 -622 781 -213 
Q 781 569 809 778 
Q 859 1125 1009 1333 
Q 1159 1541 1434 1656 
Q 1075 1828 928 2111 
Q 781 2394 781 3066 
Q 781 3675 766 3794 
Q 744 4003 642 4086 
Q 541 4169 244 4169 
L 147 4169 
L 147 4659 
L 322 4659 
Q 628 4659 766 4609 
Q 966 4541 1097 4378 
Q 1228 4216 1267 3969 
Q 1306 3722 1309 3159 
Q 1313 2597 1363 2383 
Q 1413 2169 1564 2044 
Q 1716 1919 1956 1913 
z
" transform="scale(0.015625)"/>
      </defs>
      <use xlink:href="#ArialMT-55"/>
      <use xlink:href="#ArialMT-6e" x="72.216797"/>
      <use xlink:href="#ArialMT-69" x="127.832031"/>
      <use xlink:href="#ArialMT-66" x="150.048828"/>
      <use xlink:href="#ArialMT-6f" x="177.832031"/>
      <use xlink:href="#ArialMT-72" x="233.447266"/>
      <use xlink:href="#ArialMT-6d" x="266.748047"/>
      <use xlink:href="#ArialMT-65" x="350.048828"/>
      <use xlink:href="#ArialMT-20" x="405.664062"/>
      <use xlink:href="#ArialMT-7b" x="433.447266"/>
      <use xlink:href="#ArialMT-30" x="466.845703"/>
      <use xlink:href="#ArialMT-2c" x="522.460938"/>
      <use xlink:href="#ArialMT-20" x="550.244141"/>
      <use xlink:href="#ArialMT-31" x="578.027344"/>
      <use xlink:href="#ArialMT-2c" x="633.642578"/>
      <use xlink:href="#ArialMT-20" x="661.425781"/>
      <use xlink:href="#ArialMT-32" x="689.208984"/>
      <use xlink:href="#ArialMT-7d" x="744.824219"/>
     </g>
    </g>
    <g id="line2d_37">
     <path d="M 149.85 154.954922 
L 166.35 154.954922 
L 182.85 154.954922 
" style="fill: none; stroke: #55a868; stroke-width: 2.25; stroke-linecap: round"/>
    </g>
    <g id="text_14">
     <!-- Binomiale (n=2, p=1/2) -->
     <g style="fill: #262626" transform="translate(196.05 160.729922) scale(0.165 -0.165)">
      <defs>
       <path id="ArialMT-42" d="M 469 0 
L 469 4581 
L 2188 4581 
Q 2713 4581 3030 4442 
Q 3347 4303 3526 4014 
Q 3706 3725 3706 3409 
Q 3706 3116 3547 2856 
Q 3388 2597 3066 2438 
Q 3481 2316 3704 2022 
Q 3928 1728 3928 1328 
Q 3928 1006 3792 729 
Q 3656 453 3456 303 
Q 3256 153 2954 76 
Q 2653 0 2216 0 
L 469 0 
z
M 1075 2656 
L 2066 2656 
Q 2469 2656 2644 2709 
Q 2875 2778 2992 2937 
Q 3109 3097 3109 3338 
Q 3109 3566 3000 3739 
Q 2891 3913 2687 3977 
Q 2484 4041 1991 4041 
L 1075 4041 
L 1075 2656 
z
M 1075 541 
L 2216 541 
Q 2509 541 2628 563 
Q 2838 600 2978 687 
Q 3119 775 3209 942 
Q 3300 1109 3300 1328 
Q 3300 1584 3169 1773 
Q 3038 1963 2805 2039 
Q 2572 2116 2134 2116 
L 1075 2116 
L 1075 541 
z
" transform="scale(0.015625)"/>
       <path id="ArialMT-2f" d="M 0 -78 
L 1328 4659 
L 1778 4659 
L 453 -78 
L 0 -78 
z
" transform="scale(0.015625)"/>
      </defs>
      <use xlink:href="#ArialMT-42"/>
      <use xlink:href="#ArialMT-69" x="66.699219"/>
      <use xlink:href="#ArialMT-6e" x="88.916016"/>
      <use xlink:href="#ArialMT-6f" x="144.53125"/>
      <use xlink:href="#ArialMT-6d" x="200.146484"/>
      <use xlink:href="#ArialMT-69" x="283.447266"/>
      <use xlink:href="#ArialMT-61" x="305.664062"/>
      <use xlink:href="#ArialMT-6c" x="361.279297"/>
      <use xlink:href="#ArialMT-65" x="383.496094"/>
      <use xlink:href="#ArialMT-20" x="439.111328"/>
      <use xlink:href="#ArialMT-28" x="466.894531"/>
      <use xlink:href="#ArialMT-6e" x="500.195312"/>
      <use xlink:href="#ArialMT-3d" x="555.810547"/>
      <use xlink:href="#ArialMT-32" x="614.208984"/>
      <use xlink:href="#ArialMT-2c" x="669.824219"/>
      <use xlink:href="#ArialMT-20" x="697.607422"/>
      <use xlink:href="#ArialMT-70" x="725.390625"/>
      <use xlink:href="#ArialMT-3d" x="781.005859"/>
      <use xlink:href="#ArialMT-31" x="839.404297"/>
      <use xlink:href="#ArialMT-2f" x="895.019531"/>
      <use xlink:href="#ArialMT-32" x="922.802734"/>
      <use xlink:href="#ArialMT-29" x="978.417969"/>
     </g>
    </g>
    <g id="line2d_38">
     <path d="M 149.85 178.689141 
L 166.35 178.689141 
L 182.85 178.689141 
" style="fill: none; stroke: #c44e52; stroke-width: 2.25; stroke-linecap: round"/>
    </g>
    <g id="text_15">
     <!-- Binomiale (n=10, p=1/10) -->
     <g style="fill: #262626" transform="translate(196.05 184.464141) scale(0.165 -0.165)">
      <use xlink:href="#ArialMT-42"/>
      <use xlink:href="#ArialMT-69" x="66.699219"/>
      <use xlink:href="#ArialMT-6e" x="88.916016"/>
      <use xlink:href="#ArialMT-6f" x="144.53125"/>
      <use xlink:href="#ArialMT-6d" x="200.146484"/>
      <use xlink:href="#ArialMT-69" x="283.447266"/>
      <use xlink:href="#ArialMT-61" x="305.664062"/>
      <use xlink:href="#ArialMT-6c" x="361.279297"/>
      <use xlink:href="#ArialMT-65" x="383.496094"/>
      <use xlink:href="#ArialMT-20" x="439.111328"/>
      <use xlink:href="#ArialMT-28" x="466.894531"/>
      <use xlink:href="#ArialMT-6e" x="500.195312"/>
      <use xlink:href="#ArialMT-3d" x="555.810547"/>
      <use xlink:href="#ArialMT-31" x="614.208984"/>
      <use xlink:href="#ArialMT-30" x="669.824219"/>
      <use xlink:href="#ArialMT-2c" x="725.439453"/>
      <use xlink:href="#ArialMT-20" x="753.222656"/>
      <use xlink:href="#ArialMT-70" x="781.005859"/>
      <use xlink:href="#ArialMT-3d" x="836.621094"/>
      <use xlink:href="#ArialMT-31" x="895.019531"/>
      <use xlink:href="#ArialMT-2f" x="950.634766"/>
      <use xlink:href="#ArialMT-31" x="978.417969"/>
      <use xlink:href="#ArialMT-30" x="1034.033203"/>
      <use xlink:href="#ArialMT-29" x="1089.648438"/>
     </g>
    </g>
    <g id="line2d_39">
     <path d="M 149.85 202.423359 
L 166.35 202.423359 
L 182.85 202.423359 
" style="fill: none; stroke: #8172b3; stroke-width: 2.25; stroke-linecap: round"/>
    </g>
    <g id="text_16">
     <!-- Binomiale (n=50, p=1/50) -->
     <g style="fill: #262626" transform="translate(196.05 208.198359) scale(0.165 -0.165)">
      <use xlink:href="#ArialMT-42"/>
      <use xlink:href="#ArialMT-69" x="66.699219"/>
      <use xlink:href="#ArialMT-6e" x="88.916016"/>
      <use xlink:href="#ArialMT-6f" x="144.53125"/>
      <use xlink:href="#ArialMT-6d" x="200.146484"/>
      <use xlink:href="#ArialMT-69" x="283.447266"/>
      <use xlink:href="#ArialMT-61" x="305.664062"/>
      <use xlink:href="#ArialMT-6c" x="361.279297"/>
      <use xlink:href="#ArialMT-65" x="383.496094"/>
      <use xlink:href="#ArialMT-20" x="439.111328"/>
      <use xlink:href="#ArialMT-28" x="466.894531"/>
      <use xlink:href="#ArialMT-6e" x="500.195312"/>
      <use xlink:href="#ArialMT-3d" x="555.810547"/>
      <use xlink:href="#ArialMT-35" x="614.208984"/>
      <use xlink:href="#ArialMT-30" x="669.824219"/>
      <use xlink:href="#ArialMT-2c" x="725.439453"/>
      <use xlink:href="#ArialMT-20" x="753.222656"/>
      <use xlink:href="#ArialMT-70" x="781.005859"/>
      <use xlink:href="#ArialMT-3d" x="836.621094"/>
      <use xlink:href="#ArialMT-31" x="895.019531"/>
      <use xlink:href="#ArialMT-2f" x="950.634766"/>
      <use xlink:href="#ArialMT-35" x="978.417969"/>
      <use xlink:href="#ArialMT-30" x="1034.033203"/>
      <use xlink:href="#ArialMT-29" x="1089.648438"/>
     </g>
    </g>
    <g id="line2d_40">
     <path d="M 149.85 226.157578 
L 166.35 226.157578 
L 182.85 226.157578 
" style="fill: none; stroke: #937860; stroke-width: 2.25; stroke-linecap: round"/>
    </g>
    <g id="text_17">
     <!-- Bêta-Binomiale (n=2, α=3, β=3) -->
     <g style="fill: #262626" transform="translate(196.05 231.932578) scale(0.165 -0.165)">
      <defs>
       <path id="ArialMT-3b1" d="M 2884 3319 
L 3459 3319 
Q 3241 2631 3056 1659 
Q 3275 453 3459 0 
L 2900 0 
Q 2766 313 2697 606 
Q 2438 -75 1613 -75 
Q 988 -75 606 394 
Q 225 863 225 1666 
Q 225 2491 608 2942 
Q 991 3394 1622 3394 
Q 2013 3394 2259 3236 
Q 2506 3078 2719 2756 
Q 2741 2866 2884 3319 
z
M 1716 2928 
Q 1313 2928 1078 2603 
Q 844 2278 844 1666 
Q 844 1069 1066 728 
Q 1288 388 1684 388 
Q 2072 388 2331 723 
Q 2591 1059 2591 1691 
Q 2591 2303 2348 2615 
Q 2106 2928 1716 2928 
z
" transform="scale(0.015625)"/>
       <path id="ArialMT-33" d="M 269 1209 
L 831 1284 
Q 928 806 1161 595 
Q 1394 384 1728 384 
Q 2125 384 2398 659 
Q 2672 934 2672 1341 
Q 2672 1728 2419 1979 
Q 2166 2231 1775 2231 
Q 1616 2231 1378 2169 
L 1441 2663 
Q 1497 2656 1531 2656 
Q 1891 2656 2178 2843 
Q 2466 3031 2466 3422 
Q 2466 3731 2256 3934 
Q 2047 4138 1716 4138 
Q 1388 4138 1169 3931 
Q 950 3725 888 3313 
L 325 3413 
Q 428 3978 793 4289 
Q 1159 4600 1703 4600 
Q 2078 4600 2393 4439 
Q 2709 4278 2876 4000 
Q 3044 3722 3044 3409 
Q 3044 3113 2884 2869 
Q 2725 2625 2413 2481 
Q 2819 2388 3044 2092 
Q 3269 1797 3269 1353 
Q 3269 753 2831 336 
Q 2394 -81 1725 -81 
Q 1122 -81 723 278 
Q 325 638 269 1209 
z
" transform="scale(0.015625)"/>
       <path id="ArialMT-3b2" d="M 997 422 
L 997 -1272 
L 438 -1272 
L 438 3144 
Q 438 3672 580 3970 
Q 722 4269 1069 4464 
Q 1416 4659 1841 4659 
Q 2469 4659 2792 4298 
Q 3116 3938 3116 3509 
Q 3116 3091 2855 2834 
Q 2594 2578 2256 2519 
Q 2800 2466 3095 2128 
Q 3391 1791 3391 1297 
Q 3391 766 3042 345 
Q 2694 -75 2034 -75 
Q 1359 -75 997 422 
z
M 1494 2700 
Q 2069 2700 2331 2900 
Q 2594 3100 2594 3478 
Q 2594 3784 2370 3990 
Q 2147 4197 1813 4197 
Q 1522 4197 1308 4044 
Q 1094 3891 1045 3703 
Q 997 3516 997 3047 
L 997 1788 
Q 997 1250 1072 997 
Q 1147 744 1394 541 
Q 1641 338 1963 338 
Q 2353 338 2579 605 
Q 2806 872 2806 1266 
Q 2806 1591 2639 1848 
Q 2472 2106 2226 2198 
Q 1981 2291 1575 2291 
L 1494 2291 
L 1494 2700 
z
" transform="scale(0.015625)"/>
      </defs>
      <use xlink:href="#ArialMT-42"/>
      <use xlink:href="#ArialMT-ea" x="66.699219"/>
      <use xlink:href="#ArialMT-74" x="122.314453"/>
      <use xlink:href="#ArialMT-61" x="150.097656"/>
      <use xlink:href="#ArialMT-2d" x="205.712891"/>
      <use xlink:href="#ArialMT-42" x="239.013672"/>
      <use xlink:href="#ArialMT-69" x="305.712891"/>
      <use xlink:href="#ArialMT-6e" x="327.929688"/>
      <use xlink:href="#ArialMT-6f" x="383.544922"/>
      <use xlink:href="#ArialMT-6d" x="439.160156"/>
      <use xlink:href="#ArialMT-69" x="522.460938"/>
      <use xlink:href="#ArialMT-61" x="544.677734"/>
      <use xlink:href="#ArialMT-6c" x="600.292969"/>
      <use xlink:href="#ArialMT-65" x="622.509766"/>
      <use xlink:href="#ArialMT-20" x="678.125"/>
      <use xlink:href="#ArialMT-28" x="705.908203"/>
      <use xlink:href="#ArialMT-6e" x="739.208984"/>
      <use xlink:href="#ArialMT-3d" x="794.824219"/>
      <use xlink:href="#ArialMT-32" x="853.222656"/>
      <use xlink:href="#ArialMT-2c" x="908.837891"/>
      <use xlink:href="#ArialMT-20" x="936.621094"/>
      <use xlink:href="#ArialMT-3b1" x="964.404297"/>
      <use xlink:href="#ArialMT-3d" x="1022.216797"/>
      <use xlink:href="#ArialMT-33" x="1080.615234"/>
      <use xlink:href="#ArialMT-2c" x="1136.230469"/>
      <use xlink:href="#ArialMT-20" x="1164.013672"/>
      <use xlink:href="#ArialMT-3b2" x="1191.796875"/>
      <use xlink:href="#ArialMT-3d" x="1249.316406"/>
      <use xlink:href="#ArialMT-33" x="1307.714844"/>
      <use xlink:href="#ArialMT-29" x="1363.330078"/>
     </g>
    </g>
    <g id="line2d_41">
     <path d="M 149.85 249.891797 
L 166.35 249.891797 
L 182.85 249.891797 
" style="fill: none; stroke: #da8bc3; stroke-width: 2.25; stroke-linecap: round"/>
    </g>
    <g id="text_18">
     <!-- Bêta-Binomiale (n=5, α=5, β=20) -->
     <g style="fill: #262626" transform="translate(196.05 255.666797) scale(0.165 -0.165)">
      <use xlink:href="#ArialMT-42"/>
      <use xlink:href="#ArialMT-ea" x="66.699219"/>
      <use xlink:href="#ArialMT-74" x="122.314453"/>
      <use xlink:href="#ArialMT-61" x="150.097656"/>
      <use xlink:href="#ArialMT-2d" x="205.712891"/>
      <use xlink:href="#ArialMT-42" x="239.013672"/>
      <use xlink:href="#ArialMT-69" x="305.712891"/>
      <use xlink:href="#ArialMT-6e" x="327.929688"/>
      <use xlink:href="#ArialMT-6f" x="383.544922"/>
      <use xlink:href="#ArialMT-6d" x="439.160156"/>
      <use xlink:href="#ArialMT-69" x="522.460938"/>
      <use xlink:href="#ArialMT-61" x="544.677734"/>
      <use xlink:href="#ArialMT-6c" x="600.292969"/>
      <use xlink:href="#ArialMT-65" x="622.509766"/>
      <use xlink:href="#ArialMT-20" x="678.125"/>
      <use xlink:href="#ArialMT-28" x="705.908203"/>
      <use xlink:href="#ArialMT-6e" x="739.208984"/>
      <use xlink:href="#ArialMT-3d" x="794.824219"/>
      <use xlink:href="#ArialMT-35" x="853.222656"/>
      <use xlink:href="#ArialMT-2c" x="908.837891"/>
      <use xlink:href="#ArialMT-20" x="936.621094"/>
      <use xlink:href="#ArialMT-3b1" x="964.404297"/>
      <use xlink:href="#ArialMT-3d" x="1022.216797"/>
      <use xlink:href="#ArialMT-35" x="1080.615234"/>
      <use xlink:href="#ArialMT-2c" x="1136.230469"/>
      <use xlink:href="#ArialMT-20" x="1164.013672"/>
      <use xlink:href="#ArialMT-3b2" x="1191.796875"/>
      <use xlink:href="#ArialMT-3d" x="1249.316406"/>
      <use xlink:href="#ArialMT-32" x="1307.714844"/>
      <use xlink:href="#ArialMT-30" x="1363.330078"/>
      <use xlink:href="#ArialMT-29" x="1418.945312"/>
     </g>
    </g>
    <g id="line2d_42">
     <path d="M 149.85 273.626016 
L 166.35 273.626016 
L 182.85 273.626016 
" style="fill: none; stroke: #8c8c8c; stroke-width: 2.25; stroke-linecap: round"/>
    </g>
    <g id="text_19">
     <!-- Bêta-Binomiale (n=3, α=5, β=10) -->
     <g style="fill: #262626" transform="translate(196.05 279.401016) scale(0.165 -0.165)">
      <use xlink:href="#ArialMT-42"/>
      <use xlink:href="#ArialMT-ea" x="66.699219"/>
      <use xlink:href="#ArialMT-74" x="122.314453"/>
      <use xlink:href="#ArialMT-61" x="150.097656"/>
      <use xlink:href="#ArialMT-2d" x="205.712891"/>
      <use xlink:href="#ArialMT-42" x="239.013672"/>
      <use xlink:href="#ArialMT-69" x="305.712891"/>
      <use xlink:href="#ArialMT-6e" x="327.929688"/>
      <use xlink:href="#ArialMT-6f" x="383.544922"/>
      <use xlink:href="#ArialMT-6d" x="439.160156"/>
      <use xlink:href="#ArialMT-69" x="522.460938"/>
      <use xlink:href="#ArialMT-61" x="544.677734"/>
      <use xlink:href="#ArialMT-6c" x="600.292969"/>
      <use xlink:href="#ArialMT-65" x="622.509766"/>
      <use xlink:href="#ArialMT-20" x="678.125"/>
      <use xlink:href="#ArialMT-28" x="705.908203"/>
      <use xlink:href="#ArialMT-6e" x="739.208984"/>
      <use xlink:href="#ArialMT-3d" x="794.824219"/>
      <use xlink:href="#ArialMT-33" x="853.222656"/>
      <use xlink:href="#ArialMT-2c" x="908.837891"/>
      <use xlink:href="#ArialMT-20" x="936.621094"/>
      <use xlink:href="#ArialMT-3b1" x="964.404297"/>
      <use xlink:href="#ArialMT-3d" x="1022.216797"/>
      <use xlink:href="#ArialMT-35" x="1080.615234"/>
      <use xlink:href="#ArialMT-2c" x="1136.230469"/>
      <use xlink:href="#ArialMT-20" x="1164.013672"/>
      <use xlink:href="#ArialMT-3b2" x="1191.796875"/>
      <use xlink:href="#ArialMT-3d" x="1249.316406"/>
      <use xlink:href="#ArialMT-31" x="1307.714844"/>
      <use xlink:href="#ArialMT-30" x="1363.330078"/>
      <use xlink:href="#ArialMT-29" x="1418.945312"/>
     </g>
    </g>
    <g id="line2d_43">
     <path d="M 149.85 297.360234 
L 166.35 297.360234 
L 182.85 297.360234 
" style="fill: none; stroke: #ccb974; stroke-width: 2.25; stroke-linecap: round"/>
    </g>
    <g id="text_20">
     <!-- Bêta-Binomiale (n=10, α=5, β=45) -->
     <g style="fill: #262626" transform="translate(196.05 303.135234) scale(0.165 -0.165)">
      <use xlink:href="#ArialMT-42"/>
      <use xlink:href="#ArialMT-ea" x="66.699219"/>
      <use xlink:href="#ArialMT-74" x="122.314453"/>
      <use xlink:href="#ArialMT-61" x="150.097656"/>
      <use xlink:href="#ArialMT-2d" x="205.712891"/>
      <use xlink:href="#ArialMT-42" x="239.013672"/>
      <use xlink:href="#ArialMT-69" x="305.712891"/>
      <use xlink:href="#ArialMT-6e" x="327.929688"/>
      <use xlink:href="#ArialMT-6f" x="383.544922"/>
      <use xlink:href="#ArialMT-6d" x="439.160156"/>
      <use xlink:href="#ArialMT-69" x="522.460938"/>
      <use xlink:href="#ArialMT-61" x="544.677734"/>
      <use xlink:href="#ArialMT-6c" x="600.292969"/>
      <use xlink:href="#ArialMT-65" x="622.509766"/>
      <use xlink:href="#ArialMT-20" x="678.125"/>
      <use xlink:href="#ArialMT-28" x="705.908203"/>
      <use xlink:href="#ArialMT-6e" x="739.208984"/>
      <use xlink:href="#ArialMT-3d" x="794.824219"/>
      <use xlink:href="#ArialMT-31" x="853.222656"/>
      <use xlink:href="#ArialMT-30" x="908.837891"/>
      <use xlink:href="#ArialMT-2c" x="964.453125"/>
      <use xlink:href="#ArialMT-20" x="992.236328"/>
      <use xlink:href="#ArialMT-3b1" x="1020.019531"/>
      <use xlink:href="#ArialMT-3d" x="1077.832031"/>
      <use xlink:href="#ArialMT-35" x="1136.230469"/>
      <use xlink:href="#ArialMT-2c" x="1191.845703"/>
      <use xlink:href="#ArialMT-20" x="1219.628906"/>
      <use xlink:href="#ArialMT-3b2" x="1247.412109"/>
      <use xlink:href="#ArialMT-3d" x="1304.931641"/>
      <use xlink:href="#ArialMT-34" x="1363.330078"/>
      <use xlink:href="#ArialMT-35" x="1418.945312"/>
      <use xlink:href="#ArialMT-29" x="1474.560547"/>
     </g>
    </g>
    <g id="line2d_44">
     <path d="M 149.85 321.094453 
L 166.35 321.094453 
L 182.85 321.094453 
" style="fill: none; stroke: #64b5cd; stroke-width: 2.25; stroke-linecap: round"/>
    </g>
    <g id="text_21">
     <!-- Négative Binomiale (n=1, p=0.5) -->
     <g style="fill: #262626" transform="translate(196.05 326.869453) scale(0.165 -0.165)">
      <defs>
       <path id="ArialMT-4e" d="M 488 0 
L 488 4581 
L 1109 4581 
L 3516 984 
L 3516 4581 
L 4097 4581 
L 4097 0 
L 3475 0 
L 1069 3600 
L 1069 0 
L 488 0 
z
" transform="scale(0.015625)"/>
       <path id="ArialMT-67" d="M 319 -275 
L 866 -356 
Q 900 -609 1056 -725 
Q 1266 -881 1628 -881 
Q 2019 -881 2231 -725 
Q 2444 -569 2519 -288 
Q 2563 -116 2559 434 
Q 2191 0 1641 0 
Q 956 0 581 494 
Q 206 988 206 1678 
Q 206 2153 378 2554 
Q 550 2956 876 3175 
Q 1203 3394 1644 3394 
Q 2231 3394 2613 2919 
L 2613 3319 
L 3131 3319 
L 3131 450 
Q 3131 -325 2973 -648 
Q 2816 -972 2473 -1159 
Q 2131 -1347 1631 -1347 
Q 1038 -1347 672 -1080 
Q 306 -813 319 -275 
z
M 784 1719 
Q 784 1066 1043 766 
Q 1303 466 1694 466 
Q 2081 466 2343 764 
Q 2606 1063 2606 1700 
Q 2606 2309 2336 2618 
Q 2066 2928 1684 2928 
Q 1309 2928 1046 2623 
Q 784 2319 784 1719 
z
" transform="scale(0.015625)"/>
      </defs>
      <use xlink:href="#ArialMT-4e"/>
      <use xlink:href="#ArialMT-e9" x="72.216797"/>
      <use xlink:href="#ArialMT-67" x="127.832031"/>
      <use xlink:href="#ArialMT-61" x="183.447266"/>
      <use xlink:href="#ArialMT-74" x="239.0625"/>
      <use xlink:href="#ArialMT-69" x="266.845703"/>
      <use xlink:href="#ArialMT-76" x="289.0625"/>
      <use xlink:href="#ArialMT-65" x="339.0625"/>
      <use xlink:href="#ArialMT-20" x="394.677734"/>
      <use xlink:href="#ArialMT-42" x="422.460938"/>
      <use xlink:href="#ArialMT-69" x="489.160156"/>
      <use xlink:href="#ArialMT-6e" x="511.376953"/>
      <use xlink:href="#ArialMT-6f" x="566.992188"/>
      <use xlink:href="#ArialMT-6d" x="622.607422"/>
      <use xlink:href="#ArialMT-69" x="705.908203"/>
      <use xlink:href="#ArialMT-61" x="728.125"/>
      <use xlink:href="#ArialMT-6c" x="783.740234"/>
      <use xlink:href="#ArialMT-65" x="805.957031"/>
      <use xlink:href="#ArialMT-20" x="861.572266"/>
      <use xlink:href="#ArialMT-28" x="889.355469"/>
      <use xlink:href="#ArialMT-6e" x="922.65625"/>
      <use xlink:href="#ArialMT-3d" x="978.271484"/>
      <use xlink:href="#ArialMT-31" x="1036.669922"/>
      <use xlink:href="#ArialMT-2c" x="1092.285156"/>
      <use xlink:href="#ArialMT-20" x="1120.068359"/>
      <use xlink:href="#ArialMT-70" x="1147.851562"/>
      <use xlink:href="#ArialMT-3d" x="1203.466797"/>
      <use xlink:href="#ArialMT-30" x="1261.865234"/>
      <use xlink:href="#ArialMT-2e" x="1317.480469"/>
      <use xlink:href="#ArialMT-35" x="1345.263672"/>
      <use xlink:href="#ArialMT-29" x="1400.878906"/>
     </g>
    </g>
    <g id="line2d_45">
     <path d="M 149.85 344.828672 
L 166.35 344.828672 
L 182.85 344.828672 
" style="fill: none; stroke: #4c72b0; stroke-width: 2.25; stroke-linecap: round"/>
    </g>
    <g id="text_22">
     <!-- Négative Binomiale (n=10, p=10/11) -->
     <g style="fill: #262626" transform="translate(196.05 350.603672) scale(0.165 -0.165)">
      <use xlink:href="#ArialMT-4e"/>
      <use xlink:href="#ArialMT-e9" x="72.216797"/>
      <use xlink:href="#ArialMT-67" x="127.832031"/>
      <use xlink:href="#ArialMT-61" x="183.447266"/>
      <use xlink:href="#ArialMT-74" x="239.0625"/>
      <use xlink:href="#ArialMT-69" x="266.845703"/>
      <use xlink:href="#ArialMT-76" x="289.0625"/>
      <use xlink:href="#ArialMT-65" x="339.0625"/>
      <use xlink:href="#ArialMT-20" x="394.677734"/>
      <use xlink:href="#ArialMT-42" x="422.460938"/>
      <use xlink:href="#ArialMT-69" x="489.160156"/>
      <use xlink:href="#ArialMT-6e" x="511.376953"/>
      <use xlink:href="#ArialMT-6f" x="566.992188"/>
      <use xlink:href="#ArialMT-6d" x="622.607422"/>
      <use xlink:href="#ArialMT-69" x="705.908203"/>
      <use xlink:href="#ArialMT-61" x="728.125"/>
      <use xlink:href="#ArialMT-6c" x="783.740234"/>
      <use xlink:href="#ArialMT-65" x="805.957031"/>
      <use xlink:href="#ArialMT-20" x="861.572266"/>
      <use xlink:href="#ArialMT-28" x="889.355469"/>
      <use xlink:href="#ArialMT-6e" x="922.65625"/>
      <use xlink:href="#ArialMT-3d" x="978.271484"/>
      <use xlink:href="#ArialMT-31" x="1036.669922"/>
      <use xlink:href="#ArialMT-30" x="1092.285156"/>
      <use xlink:href="#ArialMT-2c" x="1147.900391"/>
      <use xlink:href="#ArialMT-20" x="1175.683594"/>
      <use xlink:href="#ArialMT-70" x="1203.466797"/>
      <use xlink:href="#ArialMT-3d" x="1259.082031"/>
      <use xlink:href="#ArialMT-31" x="1317.480469"/>
      <use xlink:href="#ArialMT-30" x="1373.095703"/>
      <use xlink:href="#ArialMT-2f" x="1428.710938"/>
      <use xlink:href="#ArialMT-31" x="1456.494141"/>
      <use xlink:href="#ArialMT-31" x="1504.734375"/>
      <use xlink:href="#ArialMT-29" x="1560.349609"/>
     </g>
    </g>
    <g id="line2d_46">
     <path d="M 149.85 368.562891 
L 166.35 368.562891 
L 182.85 368.562891 
" style="fill: none; stroke: #dd8452; stroke-width: 2.25; stroke-linecap: round"/>
    </g>
    <g id="text_23">
     <!-- Hyper-Géométrique (N=10, n=2, p=0.5) -->
     <g style="fill: #262626" transform="translate(196.05 374.337891) scale(0.165 -0.165)">
      <defs>
       <path id="ArialMT-48" d="M 513 0 
L 513 4581 
L 1119 4581 
L 1119 2700 
L 3500 2700 
L 3500 4581 
L 4106 4581 
L 4106 0 
L 3500 0 
L 3500 2159 
L 1119 2159 
L 1119 0 
L 513 0 
z
" transform="scale(0.015625)"/>
       <path id="ArialMT-79" d="M 397 -1278 
L 334 -750 
Q 519 -800 656 -800 
Q 844 -800 956 -737 
Q 1069 -675 1141 -563 
Q 1194 -478 1313 -144 
Q 1328 -97 1363 -6 
L 103 3319 
L 709 3319 
L 1400 1397 
Q 1534 1031 1641 628 
Q 1738 1016 1872 1384 
L 2581 3319 
L 3144 3319 
L 1881 -56 
Q 1678 -603 1566 -809 
Q 1416 -1088 1222 -1217 
Q 1028 -1347 759 -1347 
Q 597 -1347 397 -1278 
z
" transform="scale(0.015625)"/>
       <path id="ArialMT-47" d="M 2638 1797 
L 2638 2334 
L 4578 2338 
L 4578 638 
Q 4131 281 3656 101 
Q 3181 -78 2681 -78 
Q 2006 -78 1454 211 
Q 903 500 622 1047 
Q 341 1594 341 2269 
Q 341 2938 620 3517 
Q 900 4097 1425 4378 
Q 1950 4659 2634 4659 
Q 3131 4659 3532 4498 
Q 3934 4338 4162 4050 
Q 4391 3763 4509 3300 
L 3963 3150 
Q 3859 3500 3706 3700 
Q 3553 3900 3268 4020 
Q 2984 4141 2638 4141 
Q 2222 4141 1919 4014 
Q 1616 3888 1430 3681 
Q 1244 3475 1141 3228 
Q 966 2803 966 2306 
Q 966 1694 1177 1281 
Q 1388 869 1791 669 
Q 2194 469 2647 469 
Q 3041 469 3416 620 
Q 3791 772 3984 944 
L 3984 1797 
L 2638 1797 
z
" transform="scale(0.015625)"/>
       <path id="ArialMT-71" d="M 2538 -1272 
L 2538 353 
Q 2406 169 2170 47 
Q 1934 -75 1669 -75 
Q 1078 -75 651 397 
Q 225 869 225 1691 
Q 225 2191 398 2587 
Q 572 2984 901 3189 
Q 1231 3394 1625 3394 
Q 2241 3394 2594 2875 
L 2594 3319 
L 3100 3319 
L 3100 -1272 
L 2538 -1272 
z
M 803 1669 
Q 803 1028 1072 708 
Q 1341 388 1716 388 
Q 2075 388 2334 692 
Q 2594 997 2594 1619 
Q 2594 2281 2320 2615 
Q 2047 2950 1678 2950 
Q 1313 2950 1058 2639 
Q 803 2328 803 1669 
z
" transform="scale(0.015625)"/>
      </defs>
      <use xlink:href="#ArialMT-48"/>
      <use xlink:href="#ArialMT-79" x="72.216797"/>
      <use xlink:href="#ArialMT-70" x="122.216797"/>
      <use xlink:href="#ArialMT-65" x="177.832031"/>
      <use xlink:href="#ArialMT-72" x="233.447266"/>
      <use xlink:href="#ArialMT-2d" x="266.748047"/>
      <use xlink:href="#ArialMT-47" x="300.048828"/>
      <use xlink:href="#ArialMT-e9" x="377.832031"/>
      <use xlink:href="#ArialMT-6f" x="433.447266"/>
      <use xlink:href="#ArialMT-6d" x="489.0625"/>
      <use xlink:href="#ArialMT-e9" x="572.363281"/>
      <use xlink:href="#ArialMT-74" x="627.978516"/>
      <use xlink:href="#ArialMT-72" x="655.761719"/>
      <use xlink:href="#ArialMT-69" x="689.0625"/>
      <use xlink:href="#ArialMT-71" x="711.279297"/>
      <use xlink:href="#ArialMT-75" x="766.894531"/>
      <use xlink:href="#ArialMT-65" x="822.509766"/>
      <use xlink:href="#ArialMT-20" x="878.125"/>
      <use xlink:href="#ArialMT-28" x="905.908203"/>
      <use xlink:href="#ArialMT-4e" x="939.208984"/>
      <use xlink:href="#ArialMT-3d" x="1011.425781"/>
      <use xlink:href="#ArialMT-31" x="1069.824219"/>
      <use xlink:href="#ArialMT-30" x="1125.439453"/>
      <use xlink:href="#ArialMT-2c" x="1181.054688"/>
      <use xlink:href="#ArialMT-20" x="1208.837891"/>
      <use xlink:href="#ArialMT-6e" x="1236.621094"/>
      <use xlink:href="#ArialMT-3d" x="1292.236328"/>
      <use xlink:href="#ArialMT-32" x="1350.634766"/>
      <use xlink:href="#ArialMT-2c" x="1406.25"/>
      <use xlink:href="#ArialMT-20" x="1434.033203"/>
      <use xlink:href="#ArialMT-70" x="1461.816406"/>
      <use xlink:href="#ArialMT-3d" x="1517.431641"/>
      <use xlink:href="#ArialMT-30" x="1575.830078"/>
      <use xlink:href="#ArialMT-2e" x="1631.445312"/>
      <use xlink:href="#ArialMT-35" x="1659.228516"/>
      <use xlink:href="#ArialMT-29" x="1714.84375"/>
     </g>
    </g>
    <g id="line2d_47">
     <path d="M 149.85 392.297109 
L 166.35 392.297109 
L 182.85 392.297109 
" style="fill: none; stroke: #55a868; stroke-width: 2.25; stroke-linecap: round"/>
    </g>
    <g id="text_24">
     <!-- Hyper-Géométrique (N=100, n=10, p=0.1) -->
     <g style="fill: #262626" transform="translate(196.05 398.072109) scale(0.165 -0.165)">
      <use xlink:href="#ArialMT-48"/>
      <use xlink:href="#ArialMT-79" x="72.216797"/>
      <use xlink:href="#ArialMT-70" x="122.216797"/>
      <use xlink:href="#ArialMT-65" x="177.832031"/>
      <use xlink:href="#ArialMT-72" x="233.447266"/>
      <use xlink:href="#ArialMT-2d" x="266.748047"/>
      <use xlink:href="#ArialMT-47" x="300.048828"/>
      <use xlink:href="#ArialMT-e9" x="377.832031"/>
      <use xlink:href="#ArialMT-6f" x="433.447266"/>
      <use xlink:href="#ArialMT-6d" x="489.0625"/>
      <use xlink:href="#ArialMT-e9" x="572.363281"/>
      <use xlink:href="#ArialMT-74" x="627.978516"/>
      <use xlink:href="#ArialMT-72" x="655.761719"/>
      <use xlink:href="#ArialMT-69" x="689.0625"/>
      <use xlink:href="#ArialMT-71" x="711.279297"/>
      <use xlink:href="#ArialMT-75" x="766.894531"/>
      <use xlink:href="#ArialMT-65" x="822.509766"/>
      <use xlink:href="#ArialMT-20" x="878.125"/>
      <use xlink:href="#ArialMT-28" x="905.908203"/>
      <use xlink:href="#ArialMT-4e" x="939.208984"/>
      <use xlink:href="#ArialMT-3d" x="1011.425781"/>
      <use xlink:href="#ArialMT-31" x="1069.824219"/>
      <use xlink:href="#ArialMT-30" x="1125.439453"/>
      <use xlink:href="#ArialMT-30" x="1181.054688"/>
      <use xlink:href="#ArialMT-2c" x="1236.669922"/>
      <use xlink:href="#ArialMT-20" x="1264.453125"/>
      <use xlink:href="#ArialMT-6e" x="1292.236328"/>
      <use xlink:href="#ArialMT-3d" x="1347.851562"/>
      <use xlink:href="#ArialMT-31" x="1406.25"/>
      <use xlink:href="#ArialMT-30" x="1461.865234"/>
      <use xlink:href="#ArialMT-2c" x="1517.480469"/>
      <use xlink:href="#ArialMT-20" x="1545.263672"/>
      <use xlink:href="#ArialMT-70" x="1573.046875"/>
      <use xlink:href="#ArialMT-3d" x="1628.662109"/>
      <use xlink:href="#ArialMT-30" x="1687.060547"/>
      <use xlink:href="#ArialMT-2e" x="1742.675781"/>
      <use xlink:href="#ArialMT-31" x="1770.458984"/>
      <use xlink:href="#ArialMT-29" x="1826.074219"/>
     </g>
    </g>
    <g id="line2d_48">
     <path d="M 149.85 415.830234 
L 166.35 415.830234 
L 182.85 415.830234 
" style="fill: none; stroke-dasharray: 8.325,3.6; stroke-dashoffset: 0; stroke: #000000; stroke-width: 2.25"/>
    </g>
    <g id="text_25">
     <!-- $\alpha = 0.05$ -->
     <g style="fill: #262626" transform="translate(196.05 421.605234) scale(0.165 -0.165)">
      <defs>
       <path id="DejaVuSans-Oblique-3b1" d="M 2619 1628 
L 2622 2350 
Q 2625 3088 2069 3091 
Q 1653 3094 1394 2747 
Q 1069 2319 959 1747 
Q 825 1059 994 731 
Q 1169 397 1547 397 
Q 1966 397 2319 1063 
L 2619 1628 
z
M 2166 3578 
Q 3141 3594 3128 2584 
Q 3128 2584 3616 3500 
L 4128 3500 
L 3119 1603 
L 3109 919 
Q 3109 766 3194 638 
Q 3291 488 3391 488 
L 3669 488 
L 3575 0 
L 3228 0 
Q 2934 0 2722 263 
Q 2622 394 2619 669 
Q 2416 334 2066 50 
Q 1900 -81 1453 -78 
Q 722 -72 456 397 
Q 184 884 353 1747 
Q 534 2675 1009 3097 
Q 1544 3569 2166 3578 
z
" transform="scale(0.015625)"/>
       <path id="DejaVuSans-3d" d="M 678 2906 
L 4684 2906 
L 4684 2381 
L 678 2381 
L 678 2906 
z
M 678 1631 
L 4684 1631 
L 4684 1100 
L 678 1100 
L 678 1631 
z
" transform="scale(0.015625)"/>
       <path id="DejaVuSans-30" d="M 2034 4250 
Q 1547 4250 1301 3770 
Q 1056 3291 1056 2328 
Q 1056 1369 1301 889 
Q 1547 409 2034 409 
Q 2525 409 2770 889 
Q 3016 1369 3016 2328 
Q 3016 3291 2770 3770 
Q 2525 4250 2034 4250 
z
M 2034 4750 
Q 2819 4750 3233 4129 
Q 3647 3509 3647 2328 
Q 3647 1150 3233 529 
Q 2819 -91 2034 -91 
Q 1250 -91 836 529 
Q 422 1150 422 2328 
Q 422 3509 836 4129 
Q 1250 4750 2034 4750 
z
" transform="scale(0.015625)"/>
       <path id="DejaVuSans-2e" d="M 684 794 
L 1344 794 
L 1344 0 
L 684 0 
L 684 794 
z
" transform="scale(0.015625)"/>
       <path id="DejaVuSans-35" d="M 691 4666 
L 3169 4666 
L 3169 4134 
L 1269 4134 
L 1269 2991 
Q 1406 3038 1543 3061 
Q 1681 3084 1819 3084 
Q 2600 3084 3056 2656 
Q 3513 2228 3513 1497 
Q 3513 744 3044 326 
Q 2575 -91 1722 -91 
Q 1428 -91 1123 -41 
Q 819 9 494 109 
L 494 744 
Q 775 591 1075 516 
Q 1375 441 1709 441 
Q 2250 441 2565 725 
Q 2881 1009 2881 1497 
Q 2881 1984 2565 2268 
Q 2250 2553 1709 2553 
Q 1456 2553 1204 2497 
Q 953 2441 691 2322 
L 691 4666 
z
" transform="scale(0.015625)"/>
      </defs>
      <use xlink:href="#DejaVuSans-Oblique-3b1" transform="translate(0 0.78125)"/>
      <use xlink:href="#DejaVuSans-3d" transform="translate(85.400391 0.78125)"/>
      <use xlink:href="#DejaVuSans-30" transform="translate(188.671875 0.78125)"/>
      <use xlink:href="#DejaVuSans-2e" transform="translate(252.294922 0.78125)"/>
      <use xlink:href="#DejaVuSans-30" transform="translate(284.082031 0.78125)"/>
      <use xlink:href="#DejaVuSans-35" transform="translate(347.705078 0.78125)"/>
     </g>
    </g>
   </g>
  </g>
 </g>
 <defs>
  <clipPath id="pb16aed158a">
   <rect x="135" y="86.4" width="837" height="554.4"/>
  </clipPath>
 </defs>
</svg>
