<?xml version="1.0" encoding="utf-8" standalone="no"?>
<!DOCTYPE svg PUBLIC "-//W3C//DTD SVG 1.1//EN"
  "http://www.w3.org/Graphics/SVG/1.1/DTD/svg11.dtd">
<svg xmlns:xlink="http://www.w3.org/1999/xlink" width="1080pt" height="720pt" viewBox="0 0 1080 720" xmlns="http://www.w3.org/2000/svg" version="1.1">
 <metadata>
  <rdf:RDF xmlns:dc="http://purl.org/dc/elements/1.1/" xmlns:cc="http://creativecommons.org/ns#" xmlns:rdf="http://www.w3.org/1999/02/22-rdf-syntax-ns#">
   <cc:Work>
    <dc:type rdf:resource="http://purl.org/dc/dcmitype/StillImage"/>
    <dc:date>2024-02-06T23:26:30.774127</dc:date>
    <dc:format>image/svg+xml</dc:format>
    <dc:creator>
     <cc:Agent>
      <dc:title>Matplotlib v3.8.2, https://matplotlib.org/</dc:title>
     </cc:Agent>
    </dc:creator>
   </cc:Work>
  </rdf:RDF>
 </metadata>
 <defs>
  <style type="text/css">*{stroke-linejoin: round; stroke-linecap: butt}</style>
 </defs>
 <g id="figure_1">
  <g id="patch_1">
   <path d="M 0 720 
L 1080 720 
L 1080 0 
L 0 0 
z
" style="fill: #ffffff"/>
  </g>
  <g id="axes_1">
   <g id="patch_2">
    <path d="M 135 640.8 
L 972 640.8 
L 972 86.4 
L 135 86.4 
z
" style="fill: #eaeaf2"/>
   </g>
   <g id="matplotlib.axis_1">
    <g id="xtick_1">
     <g id="line2d_1">
      <path d="M 226.756684 640.8 
L 226.756684 86.4 
" clip-path="url(#p132bd72c4c)" style="fill: none; stroke: #ffffff; stroke-linecap: round"/>
     </g>
     <g id="text_1">
      <!-- 20 -->
      <g style="fill: #262626" transform="translate(220.639653 658.173594) scale(0.11 -0.11)">
       <defs>
        <path id="ArialMT-32" d="M 3222 541 
L 3222 0 
L 194 0 
Q 188 203 259 391 
Q 375 700 629 1000 
Q 884 1300 1366 1694 
Q 2113 2306 2375 2664 
Q 2638 3022 2638 3341 
Q 2638 3675 2398 3904 
Q 2159 4134 1775 4134 
Q 1369 4134 1125 3890 
Q 881 3647 878 3216 
L 300 3275 
Q 359 3922 746 4261 
Q 1134 4600 1788 4600 
Q 2447 4600 2831 4234 
Q 3216 3869 3216 3328 
Q 3216 3053 3103 2787 
Q 2991 2522 2730 2228 
Q 2469 1934 1863 1422 
Q 1356 997 1212 845 
Q 1069 694 975 541 
L 3222 541 
z
" transform="scale(0.015625)"/>
        <path id="ArialMT-30" d="M 266 2259 
Q 266 3072 433 3567 
Q 600 4063 929 4331 
Q 1259 4600 1759 4600 
Q 2128 4600 2406 4451 
Q 2684 4303 2865 4023 
Q 3047 3744 3150 3342 
Q 3253 2941 3253 2259 
Q 3253 1453 3087 958 
Q 2922 463 2592 192 
Q 2263 -78 1759 -78 
Q 1097 -78 719 397 
Q 266 969 266 2259 
z
M 844 2259 
Q 844 1131 1108 757 
Q 1372 384 1759 384 
Q 2147 384 2411 759 
Q 2675 1134 2675 2259 
Q 2675 3391 2411 3762 
Q 2147 4134 1753 4134 
Q 1366 4134 1134 3806 
Q 844 3388 844 2259 
z
" transform="scale(0.015625)"/>
       </defs>
       <use xlink:href="#ArialMT-32"/>
       <use xlink:href="#ArialMT-30" x="55.615234"/>
      </g>
     </g>
    </g>
    <g id="xtick_2">
     <g id="line2d_2">
      <path d="M 405.794118 640.8 
L 405.794118 86.4 
" clip-path="url(#p132bd72c4c)" style="fill: none; stroke: #ffffff; stroke-linecap: round"/>
     </g>
     <g id="text_2">
      <!-- 40 -->
      <g style="fill: #262626" transform="translate(399.677086 658.173594) scale(0.11 -0.11)">
       <defs>
        <path id="ArialMT-34" d="M 2069 0 
L 2069 1097 
L 81 1097 
L 81 1613 
L 2172 4581 
L 2631 4581 
L 2631 1613 
L 3250 1613 
L 3250 1097 
L 2631 1097 
L 2631 0 
L 2069 0 
z
M 2069 1613 
L 2069 3678 
L 634 1613 
L 2069 1613 
z
" transform="scale(0.015625)"/>
       </defs>
       <use xlink:href="#ArialMT-34"/>
       <use xlink:href="#ArialMT-30" x="55.615234"/>
      </g>
     </g>
    </g>
    <g id="xtick_3">
     <g id="line2d_3">
      <path d="M 584.831551 640.8 
L 584.831551 86.4 
" clip-path="url(#p132bd72c4c)" style="fill: none; stroke: #ffffff; stroke-linecap: round"/>
     </g>
     <g id="text_3">
      <!-- 60 -->
      <g style="fill: #262626" transform="translate(578.71452 658.173594) scale(0.11 -0.11)">
       <defs>
        <path id="ArialMT-36" d="M 3184 3459 
L 2625 3416 
Q 2550 3747 2413 3897 
Q 2184 4138 1850 4138 
Q 1581 4138 1378 3988 
Q 1113 3794 959 3422 
Q 806 3050 800 2363 
Q 1003 2672 1297 2822 
Q 1591 2972 1913 2972 
Q 2475 2972 2870 2558 
Q 3266 2144 3266 1488 
Q 3266 1056 3080 686 
Q 2894 316 2569 119 
Q 2244 -78 1831 -78 
Q 1128 -78 684 439 
Q 241 956 241 2144 
Q 241 3472 731 4075 
Q 1159 4600 1884 4600 
Q 2425 4600 2770 4297 
Q 3116 3994 3184 3459 
z
M 888 1484 
Q 888 1194 1011 928 
Q 1134 663 1356 523 
Q 1578 384 1822 384 
Q 2178 384 2434 671 
Q 2691 959 2691 1453 
Q 2691 1928 2437 2201 
Q 2184 2475 1800 2475 
Q 1419 2475 1153 2201 
Q 888 1928 888 1484 
z
" transform="scale(0.015625)"/>
       </defs>
       <use xlink:href="#ArialMT-36"/>
       <use xlink:href="#ArialMT-30" x="55.615234"/>
      </g>
     </g>
    </g>
    <g id="xtick_4">
     <g id="line2d_4">
      <path d="M 763.868984 640.8 
L 763.868984 86.4 
" clip-path="url(#p132bd72c4c)" style="fill: none; stroke: #ffffff; stroke-linecap: round"/>
     </g>
     <g id="text_4">
      <!-- 80 -->
      <g style="fill: #262626" transform="translate(757.751953 658.173594) scale(0.11 -0.11)">
       <defs>
        <path id="ArialMT-38" d="M 1131 2484 
Q 781 2613 612 2850 
Q 444 3088 444 3419 
Q 444 3919 803 4259 
Q 1163 4600 1759 4600 
Q 2359 4600 2725 4251 
Q 3091 3903 3091 3403 
Q 3091 3084 2923 2848 
Q 2756 2613 2416 2484 
Q 2838 2347 3058 2040 
Q 3278 1734 3278 1309 
Q 3278 722 2862 322 
Q 2447 -78 1769 -78 
Q 1091 -78 675 323 
Q 259 725 259 1325 
Q 259 1772 486 2073 
Q 713 2375 1131 2484 
z
M 1019 3438 
Q 1019 3113 1228 2906 
Q 1438 2700 1772 2700 
Q 2097 2700 2305 2904 
Q 2513 3109 2513 3406 
Q 2513 3716 2298 3927 
Q 2084 4138 1766 4138 
Q 1444 4138 1231 3931 
Q 1019 3725 1019 3438 
z
M 838 1322 
Q 838 1081 952 856 
Q 1066 631 1291 507 
Q 1516 384 1775 384 
Q 2178 384 2440 643 
Q 2703 903 2703 1303 
Q 2703 1709 2433 1975 
Q 2163 2241 1756 2241 
Q 1359 2241 1098 1978 
Q 838 1716 838 1322 
z
" transform="scale(0.015625)"/>
       </defs>
       <use xlink:href="#ArialMT-38"/>
       <use xlink:href="#ArialMT-30" x="55.615234"/>
      </g>
     </g>
    </g>
    <g id="xtick_5">
     <g id="line2d_5">
      <path d="M 942.906417 640.8 
L 942.906417 86.4 
" clip-path="url(#p132bd72c4c)" style="fill: none; stroke: #ffffff; stroke-linecap: round"/>
     </g>
     <g id="text_5">
      <!-- 100 -->
      <g style="fill: #262626" transform="translate(933.73087 658.173594) scale(0.11 -0.11)">
       <defs>
        <path id="ArialMT-31" d="M 2384 0 
L 1822 0 
L 1822 3584 
Q 1619 3391 1289 3197 
Q 959 3003 697 2906 
L 697 3450 
Q 1169 3672 1522 3987 
Q 1875 4303 2022 4600 
L 2384 4600 
L 2384 0 
z
" transform="scale(0.015625)"/>
       </defs>
       <use xlink:href="#ArialMT-31"/>
       <use xlink:href="#ArialMT-30" x="55.615234"/>
       <use xlink:href="#ArialMT-30" x="111.230469"/>
      </g>
     </g>
    </g>
   </g>
   <g id="matplotlib.axis_2">
    <g id="ytick_1">
     <g id="line2d_6">
      <path d="M 135 615.6 
L 972 615.6 
" clip-path="url(#p132bd72c4c)" style="fill: none; stroke: #ffffff; stroke-linecap: round"/>
     </g>
     <g id="text_6">
      <!-- 0.0 -->
      <g style="fill: #262626" transform="translate(110.21 619.536797) scale(0.11 -0.11)">
       <defs>
        <path id="ArialMT-2e" d="M 581 0 
L 581 641 
L 1222 641 
L 1222 0 
L 581 0 
z
" transform="scale(0.015625)"/>
       </defs>
       <use xlink:href="#ArialMT-30"/>
       <use xlink:href="#ArialMT-2e" x="55.615234"/>
       <use xlink:href="#ArialMT-30" x="83.398438"/>
      </g>
     </g>
    </g>
    <g id="ytick_2">
     <g id="line2d_7">
      <path d="M 135 504.09602 
L 972 504.09602 
" clip-path="url(#p132bd72c4c)" style="fill: none; stroke: #ffffff; stroke-linecap: round"/>
     </g>
     <g id="text_7">
      <!-- 0.2 -->
      <g style="fill: #262626" transform="translate(110.21 508.032817) scale(0.11 -0.11)">
       <use xlink:href="#ArialMT-30"/>
       <use xlink:href="#ArialMT-2e" x="55.615234"/>
       <use xlink:href="#ArialMT-32" x="83.398438"/>
      </g>
     </g>
    </g>
    <g id="ytick_3">
     <g id="line2d_8">
      <path d="M 135 392.59204 
L 972 392.59204 
" clip-path="url(#p132bd72c4c)" style="fill: none; stroke: #ffffff; stroke-linecap: round"/>
     </g>
     <g id="text_8">
      <!-- 0.4 -->
      <g style="fill: #262626" transform="translate(110.21 396.528837) scale(0.11 -0.11)">
       <use xlink:href="#ArialMT-30"/>
       <use xlink:href="#ArialMT-2e" x="55.615234"/>
       <use xlink:href="#ArialMT-34" x="83.398438"/>
      </g>
     </g>
    </g>
    <g id="ytick_4">
     <g id="line2d_9">
      <path d="M 135 281.08806 
L 972 281.08806 
" clip-path="url(#p132bd72c4c)" style="fill: none; stroke: #ffffff; stroke-linecap: round"/>
     </g>
     <g id="text_9">
      <!-- 0.6 -->
      <g style="fill: #262626" transform="translate(110.21 285.024857) scale(0.11 -0.11)">
       <use xlink:href="#ArialMT-30"/>
       <use xlink:href="#ArialMT-2e" x="55.615234"/>
       <use xlink:href="#ArialMT-36" x="83.398438"/>
      </g>
     </g>
    </g>
    <g id="ytick_5">
     <g id="line2d_10">
      <path d="M 135 169.58408 
L 972 169.58408 
" clip-path="url(#p132bd72c4c)" style="fill: none; stroke: #ffffff; stroke-linecap: round"/>
     </g>
     <g id="text_10">
      <!-- 0.8 -->
      <g style="fill: #262626" transform="translate(110.21 173.520877) scale(0.11 -0.11)">
       <use xlink:href="#ArialMT-30"/>
       <use xlink:href="#ArialMT-2e" x="55.615234"/>
       <use xlink:href="#ArialMT-38" x="83.398438"/>
      </g>
     </g>
    </g>
   </g>
   <g id="line2d_11">
    <path d="M 173.045455 615.599817 
L 181.997326 615.592428 
L 190.949198 615.592229 
L 199.90107 615.591653 
L 208.852941 615.548722 
L 217.804813 615.51679 
L 226.756684 615.43025 
L 235.708556 615.396908 
L 244.660428 613.808091 
L 253.612299 613.12099 
L 262.564171 610.790206 
L 271.516043 602.318591 
L 280.467914 599.26652 
L 289.419786 596.306173 
L 298.371658 595.714193 
L 307.323529 595.144165 
L 316.275401 594.824643 
L 325.227273 594.193401 
L 334.179144 592.883006 
L 343.131016 586.573399 
L 352.082888 579.139107 
L 361.034759 573.455857 
L 369.986631 563.584682 
L 378.938503 556.670455 
L 387.890374 551.422335 
L 396.842246 548.490342 
L 405.794118 539.067499 
L 414.745989 532.322642 
L 423.697861 527.540159 
L 432.649733 524.665518 
L 441.601604 516.311392 
L 450.553476 511.879836 
L 459.505348 498.255444 
L 468.457219 486.662247 
L 477.409091 466.76884 
L 486.360963 452.982259 
L 495.312834 438.214607 
L 504.264706 435.246196 
L 513.216578 427.021467 
L 522.168449 426.192969 
L 531.120321 415.291832 
L 540.072193 410.59468 
L 549.024064 399.668383 
L 557.975936 385.102413 
L 566.927807 355.679844 
L 575.879679 337.170311 
L 584.831551 335.357004 
L 593.783422 329.542697 
L 602.735294 318.01936 
L 611.687166 316.387835 
L 620.639037 306.858844 
L 629.590909 292.822923 
L 638.542781 281.871109 
L 647.494652 279.916454 
L 656.446524 270.633174 
L 665.398396 258.341417 
L 674.350267 258.807739 
L 683.302139 258.880616 
L 692.254011 264.277541 
L 701.205882 274.452728 
L 710.157754 269.510411 
L 719.109626 239.701974 
L 728.061497 223.729552 
L 737.013369 211.598732 
L 745.965241 203.035315 
L 754.917112 203.909569 
L 763.868984 214.24543 
L 772.820856 203.91847 
L 781.772727 198.091869 
L 790.724599 184.064002 
L 799.676471 182.095169 
L 808.628342 170.472626 
L 817.580214 176.153112 
L 826.532086 175.031687 
L 835.483957 185.596578 
L 844.435829 186.945477 
L 853.387701 199.530648 
L 862.339572 216.850932 
L 871.291444 234.355422 
L 880.243316 245.895713 
L 889.195187 243.372004 
L 898.147059 245.68244 
L 907.09893 245.387838 
L 916.050802 238.109297 
L 925.002674 234.095174 
L 933.954545 245.26551 
" clip-path="url(#p132bd72c4c)" style="fill: none; stroke: #4c72b0; stroke-width: 1.5; stroke-linecap: round"/>
   </g>
   <g id="line2d_12">
    <path d="M 173.045455 615.6 
L 181.997326 615.6 
L 190.949198 615.6 
L 199.90107 615.6 
L 208.852941 615.6 
L 217.804813 615.599977 
L 226.756684 615.59997 
L 235.708556 615.599959 
L 244.660428 615.599388 
L 253.612299 615.597322 
L 262.564171 615.595859 
L 271.516043 615.594025 
L 280.467914 615.579463 
L 289.419786 615.56773 
L 298.371658 615.557332 
L 307.323529 615.546994 
L 316.275401 615.486354 
L 325.227273 615.435787 
L 334.179144 615.424146 
L 343.131016 615.394216 
L 352.082888 615.385417 
L 361.034759 615.357754 
L 369.986631 615.256731 
L 378.938503 615.143956 
L 387.890374 613.741317 
L 396.842246 613.052147 
L 405.794118 612.131019 
L 414.745989 610.780963 
L 423.697861 607.782337 
L 432.649733 600.400417 
L 441.601604 592.983265 
L 450.553476 590.095733 
L 459.505348 589.262694 
L 468.457219 587.739921 
L 477.409091 587.311173 
L 486.360963 583.336024 
L 495.312834 582.594405 
L 504.264706 582.440463 
L 513.216578 578.526025 
L 522.168449 577.614804 
L 531.120321 572.729172 
L 540.072193 570.480153 
L 549.024064 568.01335 
L 557.975936 566.542915 
L 566.927807 567.496895 
L 575.879679 567.496393 
L 584.831551 563.575889 
L 593.783422 560.35361 
L 602.735294 556.298236 
L 611.687166 547.877268 
L 620.639037 536.324512 
L 629.590909 510.96114 
L 638.542781 491.735063 
L 647.494652 474.58823 
L 656.446524 461.241352 
L 665.398396 446.406653 
L 674.350267 418.623423 
L 683.302139 389.12938 
L 692.254011 359.408008 
L 701.205882 345.956217 
L 710.157754 318.204837 
L 719.109626 298.545606 
L 728.061497 272.850306 
L 737.013369 268.578644 
L 745.965241 252.856233 
L 754.917112 236.371835 
L 763.868984 243.916975 
L 772.820856 240.04307 
L 781.772727 240.7858 
L 790.724599 246.842739 
L 799.676471 251.514043 
L 808.628342 264.784427 
L 817.580214 269.378907 
L 826.532086 278.079744 
L 835.483957 280.722773 
L 844.435829 301.532647 
L 853.387701 314.08857 
L 862.339572 334.700242 
L 871.291444 329.243145 
L 880.243316 337.221125 
L 889.195187 357.849809 
L 898.147059 360.434473 
L 907.09893 359.097899 
L 916.050802 351.534334 
L 925.002674 335.500458 
L 933.954545 322.367686 
" clip-path="url(#p132bd72c4c)" style="fill: none; stroke: #dd8452; stroke-width: 1.5; stroke-linecap: round"/>
   </g>
   <g id="line2d_13">
    <path d="M 173.045455 615.6 
L 181.997326 615.6 
L 190.949198 615.6 
L 199.90107 615.6 
L 208.852941 615.6 
L 217.804813 615.6 
L 226.756684 615.6 
L 235.708556 615.6 
L 244.660428 615.6 
L 253.612299 615.6 
L 262.564171 615.6 
L 271.516043 615.6 
L 280.467914 615.599999 
L 289.419786 615.599965 
L 298.371658 615.599767 
L 307.323529 615.597129 
L 316.275401 615.596943 
L 325.227273 615.596641 
L 334.179144 615.592239 
L 343.131016 615.578226 
L 352.082888 615.562414 
L 361.034759 615.177163 
L 369.986631 615.174427 
L 378.938503 615.139802 
L 387.890374 615.053829 
L 396.842246 615.012124 
L 405.794118 614.9946 
L 414.745989 614.957807 
L 423.697861 614.86227 
L 432.649733 614.837087 
L 441.601604 614.697065 
L 450.553476 614.342974 
L 459.505348 614.290764 
L 468.457219 614.202852 
L 477.409091 614.20741 
L 486.360963 614.21256 
L 495.312834 614.440543 
L 504.264706 614.051471 
L 513.216578 614.022841 
L 522.168449 613.950274 
L 531.120321 613.642269 
L 540.072193 612.974475 
L 549.024064 608.799297 
L 557.975936 604.281601 
L 566.927807 597.875453 
L 575.879679 594.07099 
L 584.831551 590.812905 
L 593.783422 583.868227 
L 602.735294 578.866398 
L 611.687166 572.273043 
L 620.639037 569.609611 
L 629.590909 565.590077 
L 638.542781 560.26318 
L 647.494652 555.686465 
L 656.446524 551.728004 
L 665.398396 542.461137 
L 674.350267 524.621681 
L 683.302139 513.017808 
L 692.254011 503.048448 
L 701.205882 486.458932 
L 710.157754 483.890868 
L 719.109626 469.878229 
L 728.061497 458.062185 
L 737.013369 431.82358 
L 745.965241 415.098125 
L 754.917112 401.457718 
L 763.868984 384.829703 
L 772.820856 367.061317 
L 781.772727 341.131177 
L 790.724599 312.803483 
L 799.676471 299.890218 
L 808.628342 293.670083 
L 817.580214 292.929289 
L 826.532086 290.220311 
L 835.483957 296.814525 
L 844.435829 280.946772 
L 853.387701 268.619846 
L 862.339572 272.374646 
L 871.291444 279.396966 
L 880.243316 283.108378 
L 889.195187 284.46708 
L 898.147059 291.030904 
L 907.09893 290.758937 
L 916.050802 311.628814 
L 925.002674 328.17622 
L 933.954545 343.106341 
" clip-path="url(#p132bd72c4c)" style="fill: none; stroke: #55a868; stroke-width: 1.5; stroke-linecap: round"/>
   </g>
   <g id="line2d_14">
    <path d="M 173.045455 615.599937 
L 181.997326 615.599092 
L 190.949198 615.576105 
L 199.90107 615.504421 
L 208.852941 615.483694 
L 217.804813 615.409413 
L 226.756684 615.353705 
L 235.708556 614.93385 
L 244.660428 614.496352 
L 253.612299 612.602446 
L 262.564171 611.309744 
L 271.516043 609.746455 
L 280.467914 609.056676 
L 289.419786 602.889451 
L 298.371658 598.137828 
L 307.323529 594.876538 
L 316.275401 589.314951 
L 325.227273 585.533837 
L 334.179144 580.900413 
L 343.131016 574.470521 
L 352.082888 565.252627 
L 361.034759 543.571106 
L 369.986631 541.579386 
L 378.938503 532.558094 
L 387.890374 531.543672 
L 396.842246 522.130661 
L 405.794118 515.138926 
L 414.745989 508.07611 
L 423.697861 504.337543 
L 432.649733 507.240323 
L 441.601604 505.61005 
L 450.553476 501.679239 
L 459.505348 495.506807 
L 468.457219 489.144592 
L 477.409091 473.684125 
L 486.360963 456.424195 
L 495.312834 452.275468 
L 504.264706 432.928778 
L 513.216578 427.560356 
L 522.168449 414.800306 
L 531.120321 417.576468 
L 540.072193 407.830513 
L 549.024064 404.609627 
L 557.975936 408.47826 
L 566.927807 406.507038 
L 575.879679 401.311817 
L 584.831551 400.287227 
L 593.783422 385.602412 
L 602.735294 383.182322 
L 611.687166 390.465779 
L 620.639037 407.739869 
L 629.590909 417.383941 
L 638.542781 427.252264 
L 647.494652 429.035579 
L 656.446524 426.806438 
L 665.398396 415.890474 
L 674.350267 408.347111 
L 683.302139 390.93874 
L 692.254011 390.423672 
L 701.205882 381.746928 
L 710.157754 371.356096 
L 719.109626 366.276428 
L 728.061497 374.020898 
L 737.013369 371.938438 
L 745.965241 365.610438 
L 754.917112 359.944787 
L 763.868984 346.138162 
L 772.820856 335.05805 
L 781.772727 326.058657 
L 790.724599 320.434256 
L 799.676471 310.404693 
L 808.628342 315.923808 
L 817.580214 327.910076 
L 826.532086 320.981025 
L 835.483957 308.097109 
L 844.435829 306.284998 
L 853.387701 300.078645 
L 862.339572 298.004094 
L 871.291444 290.442679 
L 880.243316 281.801572 
L 889.195187 270.955503 
L 898.147059 275.492282 
L 907.09893 270.826868 
L 916.050802 272.237338 
L 925.002674 269.386769 
L 933.954545 275.072937 
" clip-path="url(#p132bd72c4c)" style="fill: none; stroke: #c44e52; stroke-width: 1.5; stroke-linecap: round"/>
   </g>
   <g id="line2d_15">
    <path d="M 173.045455 615.598927 
L 181.997326 615.550113 
L 190.949198 615.544727 
L 199.90107 615.346765 
L 208.852941 615.081183 
L 217.804813 614.989098 
L 226.756684 614.633461 
L 235.708556 614.376593 
L 244.660428 613.618459 
L 253.612299 609.961653 
L 262.564171 609.76127 
L 271.516043 607.822048 
L 280.467914 605.007403 
L 289.419786 587.100249 
L 298.371658 575.405174 
L 307.323529 566.768572 
L 316.275401 554.337607 
L 325.227273 536.320952 
L 334.179144 510.777882 
L 343.131016 493.78471 
L 352.082888 477.694651 
L 361.034759 447.937749 
L 369.986631 421.642348 
L 378.938503 395.051878 
L 387.890374 371.863568 
L 396.842246 350.00624 
L 405.794118 333.997641 
L 414.745989 326.960403 
L 423.697861 344.309263 
L 432.649733 354.502699 
L 441.601604 362.489301 
L 450.553476 372.191644 
L 459.505348 388.322688 
L 468.457219 403.496356 
L 477.409091 410.028836 
L 486.360963 417.028117 
L 495.312834 441.194805 
L 504.264706 461.193069 
L 513.216578 480.892133 
L 522.168449 481.729786 
L 531.120321 482.466243 
L 540.072193 467.793278 
L 549.024064 450.221776 
L 557.975936 425.114783 
L 566.927807 392.534265 
L 575.879679 362.929102 
L 584.831551 339.730543 
L 593.783422 307.65071 
L 602.735294 293.996063 
L 611.687166 281.829894 
L 620.639037 266.197983 
L 629.590909 254.003503 
L 638.542781 246.829771 
L 647.494652 242.209659 
L 656.446524 249.386641 
L 665.398396 247.84207 
L 674.350267 245.917518 
L 683.302139 247.566877 
L 692.254011 255.943349 
L 701.205882 261.965935 
L 710.157754 268.274441 
L 719.109626 281.461052 
L 728.061497 293.286978 
L 737.013369 289.318312 
L 745.965241 303.205225 
L 754.917112 319.877724 
L 763.868984 315.393425 
L 772.820856 312.457992 
L 781.772727 310.469221 
L 790.724599 296.582158 
L 799.676471 284.828916 
L 808.628342 284.602214 
L 817.580214 277.908341 
L 826.532086 259.665988 
L 835.483957 256.452884 
L 844.435829 246.235332 
L 853.387701 228.639369 
L 862.339572 230.005489 
L 871.291444 229.809719 
L 880.243316 213.481958 
L 889.195187 191.305545 
L 898.147059 184.944163 
L 907.09893 177.610254 
L 916.050802 164.522216 
L 925.002674 167.14798 
L 933.954545 178.885417 
" clip-path="url(#p132bd72c4c)" style="fill: none; stroke: #8172b3; stroke-width: 1.5; stroke-linecap: round"/>
   </g>
   <g id="line2d_16">
    <path d="M 173.045455 615.6 
L 181.997326 615.6 
L 190.949198 615.6 
L 199.90107 615.6 
L 208.852941 615.6 
L 217.804813 615.6 
L 226.756684 615.6 
L 235.708556 615.6 
L 244.660428 615.6 
L 253.612299 615.599998 
L 262.564171 615.599984 
L 271.516043 615.599883 
L 280.467914 615.599749 
L 289.419786 615.599737 
L 298.371658 615.599727 
L 307.323529 615.599425 
L 316.275401 615.599417 
L 325.227273 615.599329 
L 334.179144 615.599129 
L 343.131016 615.590868 
L 352.082888 615.532247 
L 361.034759 615.408409 
L 369.986631 615.358965 
L 378.938503 614.882755 
L 387.890374 614.335253 
L 396.842246 614.051481 
L 405.794118 612.767719 
L 414.745989 611.157277 
L 423.697861 609.5531 
L 432.649733 602.894621 
L 441.601604 601.007263 
L 450.553476 600.189841 
L 459.505348 599.248879 
L 468.457219 598.727009 
L 477.409091 598.536578 
L 486.360963 598.266144 
L 495.312834 597.5684 
L 504.264706 594.538483 
L 513.216578 586.04922 
L 522.168449 584.526353 
L 531.120321 584.423353 
L 540.072193 583.674513 
L 549.024064 582.019413 
L 557.975936 580.972487 
L 566.927807 585.17019 
L 575.879679 582.879289 
L 584.831551 577.544171 
L 593.783422 571.085734 
L 602.735294 567.254859 
L 611.687166 564.803754 
L 620.639037 562.836759 
L 629.590909 559.980172 
L 638.542781 560.545515 
L 647.494652 566.776287 
L 656.446524 563.25699 
L 665.398396 545.792884 
L 674.350267 531.369835 
L 683.302139 516.017553 
L 692.254011 499.368959 
L 701.205882 472.135044 
L 710.157754 452.803397 
L 719.109626 436.698874 
L 728.061497 420.988042 
L 737.013369 396.89544 
L 745.965241 373.007668 
L 754.917112 364.574436 
L 763.868984 355.118457 
L 772.820856 349.451418 
L 781.772727 342.439062 
L 790.724599 340.056032 
L 799.676471 339.322122 
L 808.628342 342.459836 
L 817.580214 343.306873 
L 826.532086 355.551336 
L 835.483957 379.399916 
L 844.435829 391.818444 
L 853.387701 393.301252 
L 862.339572 400.131523 
L 871.291444 412.553292 
L 880.243316 408.539641 
L 889.195187 394.143367 
L 898.147059 378.250344 
L 907.09893 359.628754 
L 916.050802 334.879466 
L 925.002674 307.186918 
L 933.954545 298.151571 
" clip-path="url(#p132bd72c4c)" style="fill: none; stroke: #937860; stroke-width: 1.5; stroke-linecap: round"/>
   </g>
   <g id="line2d_17">
    <path d="M 173.045455 615.599971 
L 181.997326 615.59932 
L 190.949198 615.598761 
L 199.90107 615.543992 
L 208.852941 615.540995 
L 217.804813 615.517931 
L 226.756684 615.511729 
L 235.708556 615.478651 
L 244.660428 615.369127 
L 253.612299 615.270619 
L 262.564171 614.55261 
L 271.516043 614.370209 
L 280.467914 614.299812 
L 289.419786 614.204709 
L 298.371658 612.374426 
L 307.323529 607.63557 
L 316.275401 606.087723 
L 325.227273 605.828833 
L 334.179144 605.086982 
L 343.131016 604.559321 
L 352.082888 604.18323 
L 361.034759 604.113875 
L 369.986631 603.692887 
L 378.938503 600.669021 
L 387.890374 599.804233 
L 396.842246 599.219263 
L 405.794118 588.390352 
L 414.745989 582.114089 
L 423.697861 574.928272 
L 432.649733 561.912547 
L 441.601604 550.938871 
L 450.553476 523.220114 
L 459.505348 514.413788 
L 468.457219 505.757648 
L 477.409091 496.009188 
L 486.360963 492.114015 
L 495.312834 483.640654 
L 504.264706 469.109036 
L 513.216578 457.861275 
L 522.168449 431.428403 
L 531.120321 415.948042 
L 540.072193 418.453352 
L 549.024064 416.735787 
L 557.975936 407.323748 
L 566.927807 404.022814 
L 575.879679 393.170325 
L 584.831551 406.736438 
L 593.783422 400.648251 
L 602.735294 383.601897 
L 611.687166 356.872322 
L 620.639037 336.205872 
L 629.590909 313.103676 
L 638.542781 296.369838 
L 647.494652 281.753723 
L 656.446524 273.86963 
L 665.398396 258.363755 
L 674.350267 230.080418 
L 683.302139 202.416589 
L 692.254011 186.401056 
L 701.205882 167.431455 
L 710.157754 159.250743 
L 719.109626 140.848841 
L 728.061497 122.390205 
L 737.013369 116.811709 
L 745.965241 118.437799 
L 754.917112 111.6 
L 763.868984 114.590661 
L 772.820856 114.45986 
L 781.772727 114.69824 
L 790.724599 116.344685 
L 799.676471 119.646611 
L 808.628342 121.32668 
L 817.580214 120.592094 
L 826.532086 116.307445 
L 835.483957 119.447015 
L 844.435829 121.693911 
L 853.387701 125.711857 
L 862.339572 126.352691 
L 871.291444 145.763564 
L 880.243316 172.562218 
L 889.195187 197.229113 
L 898.147059 213.717752 
L 907.09893 233.029612 
L 916.050802 238.795447 
L 925.002674 253.407758 
L 933.954545 276.819013 
" clip-path="url(#p132bd72c4c)" style="fill: none; stroke: #da8bc3; stroke-width: 1.5; stroke-linecap: round"/>
   </g>
   <g id="line2d_18">
    <path d="M 173.045455 615.6 
L 181.997326 615.6 
L 190.949198 615.599999 
L 199.90107 615.599991 
L 208.852941 615.599986 
L 217.804813 615.599801 
L 226.756684 615.596401 
L 235.708556 615.593726 
L 244.660428 615.55002 
L 253.612299 615.53903 
L 262.564171 615.360716 
L 271.516043 615.224661 
L 280.467914 614.376543 
L 289.419786 614.305596 
L 298.371658 614.289235 
L 307.323529 614.225137 
L 316.275401 613.967813 
L 325.227273 613.594452 
L 334.179144 609.923168 
L 343.131016 606.907429 
L 352.082888 602.141831 
L 361.034759 597.078257 
L 369.986631 594.941639 
L 378.938503 593.135322 
L 387.890374 585.934597 
L 396.842246 577.28351 
L 405.794118 565.933496 
L 414.745989 556.633352 
L 423.697861 551.605617 
L 432.649733 541.08604 
L 441.601604 534.242295 
L 450.553476 518.473891 
L 459.505348 501.720709 
L 468.457219 485.064821 
L 477.409091 463.554767 
L 486.360963 438.294114 
L 495.312834 420.156073 
L 504.264706 404.704399 
L 513.216578 382.731684 
L 522.168449 376.360363 
L 531.120321 370.965855 
L 540.072193 368.148496 
L 549.024064 363.936649 
L 557.975936 358.205833 
L 566.927807 343.864305 
L 575.879679 328.838111 
L 584.831551 320.711807 
L 593.783422 329.447082 
L 602.735294 335.760377 
L 611.687166 348.854337 
L 620.639037 372.500932 
L 629.590909 390.230021 
L 638.542781 401.680939 
L 647.494652 420.703429 
L 656.446524 426.056709 
L 665.398396 428.757823 
L 674.350267 423.6219 
L 683.302139 411.256736 
L 692.254011 412.921083 
L 701.205882 418.251168 
L 710.157754 414.122207 
L 719.109626 418.5499 
L 728.061497 417.598136 
L 737.013369 422.080893 
L 745.965241 417.276464 
L 754.917112 412.298039 
L 763.868984 414.060275 
L 772.820856 415.023529 
L 781.772727 406.921263 
L 790.724599 401.48934 
L 799.676471 389.880693 
L 808.628342 385.391913 
L 817.580214 383.547848 
L 826.532086 377.553216 
L 835.483957 371.586679 
L 844.435829 373.793255 
L 853.387701 367.429568 
L 862.339572 351.276609 
L 871.291444 331.765873 
L 880.243316 311.192755 
L 889.195187 285.681253 
L 898.147059 253.571554 
L 907.09893 225.61398 
L 916.050802 209.41656 
L 925.002674 186.074556 
L 933.954545 172.228155 
" clip-path="url(#p132bd72c4c)" style="fill: none; stroke: #8c8c8c; stroke-width: 1.5; stroke-linecap: round"/>
   </g>
   <g id="line2d_19">
    <path d="M 173.045455 615.597032 
L 181.997326 615.596663 
L 190.949198 615.525511 
L 199.90107 615.435571 
L 208.852941 615.040054 
L 217.804813 614.860391 
L 226.756684 614.755618 
L 235.708556 614.719886 
L 244.660428 614.491664 
L 253.612299 613.472972 
L 262.564171 611.557699 
L 271.516043 603.925497 
L 280.467914 593.178414 
L 289.419786 584.502841 
L 298.371658 579.935072 
L 307.323529 575.73604 
L 316.275401 570.813287 
L 325.227273 567.46214 
L 334.179144 565.056233 
L 343.131016 558.322693 
L 352.082888 553.171793 
L 361.034759 547.34077 
L 369.986631 542.031679 
L 378.938503 540.040485 
L 387.890374 535.029205 
L 396.842246 521.201151 
L 405.794118 513.252312 
L 414.745989 517.349967 
L 423.697861 513.833838 
L 432.649733 494.271149 
L 441.601604 492.833418 
L 450.553476 494.945987 
L 459.505348 497.405209 
L 468.457219 498.339916 
L 477.409091 504.250425 
L 486.360963 506.264593 
L 495.312834 499.56265 
L 504.264706 501.464988 
L 513.216578 496.241046 
L 522.168449 495.315839 
L 531.120321 491.990017 
L 540.072193 492.891325 
L 549.024064 493.825817 
L 557.975936 498.443406 
L 566.927807 505.323961 
L 575.879679 494.843332 
L 584.831551 488.516066 
L 593.783422 466.401512 
L 602.735294 444.580917 
L 611.687166 412.616668 
L 620.639037 384.542128 
L 629.590909 360.700497 
L 638.542781 332.456669 
L 647.494652 307.985368 
L 656.446524 282.962802 
L 665.398396 272.023396 
L 674.350267 250.595722 
L 683.302139 227.561116 
L 692.254011 204.473118 
L 701.205882 192.275619 
L 710.157754 183.274732 
L 719.109626 174.973 
L 728.061497 168.236254 
L 737.013369 170.727754 
L 745.965241 169.12847 
L 754.917112 166.620136 
L 763.868984 180.092017 
L 772.820856 197.182415 
L 781.772727 206.569831 
L 790.724599 209.068707 
L 799.676471 210.213891 
L 808.628342 217.140585 
L 817.580214 226.213712 
L 826.532086 230.028143 
L 835.483957 237.154544 
L 844.435829 231.559671 
L 853.387701 218.64394 
L 862.339572 213.4301 
L 871.291444 204.283889 
L 880.243316 208.16877 
L 889.195187 227.686108 
L 898.147059 223.043907 
L 907.09893 226.406525 
L 916.050802 230.479368 
L 925.002674 236.849136 
L 933.954545 248.360525 
" clip-path="url(#p132bd72c4c)" style="fill: none; stroke: #ccb974; stroke-width: 1.5; stroke-linecap: round"/>
   </g>
   <g id="line2d_20">
    <path d="M 173.045455 590.406052 
L 181.997326 579.38662 
L 190.949198 560.974856 
L 199.90107 548.030673 
L 208.852941 543.136725 
L 217.804813 536.182049 
L 226.756684 522.52149 
L 235.708556 499.067193 
L 244.660428 467.964143 
L 253.612299 448.686824 
L 262.564171 419.46957 
L 271.516043 408.191638 
L 280.467914 396.465435 
L 289.419786 384.575619 
L 298.371658 364.324276 
L 307.323529 339.759037 
L 316.275401 325.485795 
L 325.227273 327.166839 
L 334.179144 306.302796 
L 343.131016 279.69271 
L 352.082888 265.799197 
L 361.034759 257.728516 
L 369.986631 246.302181 
L 378.938503 241.431624 
L 387.890374 224.300765 
L 396.842246 233.893011 
L 405.794118 215.239789 
L 414.745989 213.342672 
L 423.697861 209.368163 
L 432.649733 228.390267 
L 441.601604 243.072922 
L 450.553476 253.630054 
L 459.505348 246.337069 
L 468.457219 257.878642 
L 477.409091 277.233517 
L 486.360963 276.989037 
L 495.312834 270.801714 
L 504.264706 271.446768 
L 513.216578 273.581214 
L 522.168449 283.106067 
L 531.120321 267.927104 
L 540.072193 265.970258 
L 549.024064 247.262985 
L 557.975936 231.75367 
L 566.927807 211.336914 
L 575.879679 200.516695 
L 584.831551 179.122108 
L 593.783422 166.714267 
L 602.735294 156.37791 
L 611.687166 132.062333 
L 620.639037 116.967751 
L 629.590909 111.740244 
L 638.542781 115.67179 
L 647.494652 118.720499 
L 656.446524 115.820769 
L 665.398396 121.233342 
L 674.350267 130.58798 
L 683.302139 133.21022 
L 692.254011 131.04978 
L 701.205882 137.728459 
L 710.157754 142.900542 
L 719.109626 154.138146 
L 728.061497 168.228401 
L 737.013369 177.828643 
L 745.965241 202.726624 
L 754.917112 232.690705 
L 763.868984 248.122722 
L 772.820856 250.403867 
L 781.772727 256.198805 
L 790.724599 259.146727 
L 799.676471 257.84028 
L 808.628342 251.962501 
L 817.580214 251.888297 
L 826.532086 255.606086 
L 835.483957 244.023233 
L 844.435829 232.430041 
L 853.387701 220.743924 
L 862.339572 207.363291 
L 871.291444 199.739996 
L 880.243316 177.960428 
L 889.195187 163.844434 
L 898.147059 160.669309 
L 907.09893 179.316342 
L 916.050802 181.329329 
L 925.002674 193.799689 
L 933.954545 208.228263 
" clip-path="url(#p132bd72c4c)" style="fill: none; stroke: #64b5cd; stroke-width: 1.5; stroke-linecap: round"/>
   </g>
   <g id="line2d_21">
    <path d="M 173.045455 615.506553 
L 181.997326 615.458304 
L 190.949198 615.267482 
L 199.90107 614.604174 
L 208.852941 614.393275 
L 217.804813 614.255445 
L 226.756684 613.23504 
L 235.708556 611.605471 
L 244.660428 611.034409 
L 253.612299 610.714225 
L 262.564171 608.828993 
L 271.516043 604.859791 
L 280.467914 603.389489 
L 289.419786 600.678091 
L 298.371658 594.39464 
L 307.323529 582.617766 
L 316.275401 566.943031 
L 325.227273 562.704966 
L 334.179144 560.081808 
L 343.131016 556.023798 
L 352.082888 554.008332 
L 361.034759 553.1607 
L 369.986631 554.079625 
L 378.938503 551.88708 
L 387.890374 551.021405 
L 396.842246 550.18767 
L 405.794118 550.903962 
L 414.745989 546.372339 
L 423.697861 544.102354 
L 432.649733 533.168481 
L 441.601604 531.140816 
L 450.553476 540.830868 
L 459.505348 526.260236 
L 468.457219 505.83902 
L 477.409091 491.486042 
L 486.360963 463.179602 
L 495.312834 445.796832 
L 504.264706 421.878289 
L 513.216578 394.545066 
L 522.168449 372.95226 
L 531.120321 348.940057 
L 540.072193 327.773803 
L 549.024064 311.069401 
L 557.975936 304.919906 
L 566.927807 302.269233 
L 575.879679 301.203463 
L 584.831551 290.051076 
L 593.783422 294.114894 
L 602.735294 304.165477 
L 611.687166 305.120216 
L 620.639037 318.919439 
L 629.590909 318.625215 
L 638.542781 324.995248 
L 647.494652 339.394583 
L 656.446524 336.243374 
L 665.398396 338.934778 
L 674.350267 328.320572 
L 683.302139 319.366944 
L 692.254011 294.346979 
L 701.205882 282.398734 
L 710.157754 261.454581 
L 719.109626 249.722036 
L 728.061497 231.659869 
L 737.013369 213.760353 
L 745.965241 201.936919 
L 754.917112 193.008949 
L 763.868984 179.81556 
L 772.820856 161.941134 
L 781.772727 152.095938 
L 790.724599 147.938991 
L 799.676471 150.059615 
L 808.628342 175.779753 
L 817.580214 191.750888 
L 826.532086 201.104793 
L 835.483957 199.170305 
L 844.435829 205.333902 
L 853.387701 210.936742 
L 862.339572 218.272984 
L 871.291444 216.537657 
L 880.243316 209.602576 
L 889.195187 205.759041 
L 898.147059 204.946948 
L 907.09893 213.368814 
L 916.050802 204.421895 
L 925.002674 199.354711 
L 933.954545 195.572397 
" clip-path="url(#p132bd72c4c)" style="fill: none; stroke: #4c72b0; stroke-width: 1.5; stroke-linecap: round"/>
   </g>
   <g id="line2d_22">
    <path d="M 173.045455 615.6 
L 181.997326 615.6 
L 190.949198 615.6 
L 199.90107 615.6 
L 208.852941 615.6 
L 217.804813 615.6 
L 226.756684 615.6 
L 235.708556 615.6 
L 244.660428 615.6 
L 253.612299 615.6 
L 262.564171 615.6 
L 271.516043 615.599996 
L 280.467914 615.599994 
L 289.419786 615.599986 
L 298.371658 615.599961 
L 307.323529 615.599958 
L 316.275401 615.599939 
L 325.227273 615.599251 
L 334.179144 615.5906 
L 343.131016 615.581399 
L 352.082888 615.568576 
L 361.034759 615.517031 
L 369.986631 615.512379 
L 378.938503 615.481376 
L 387.890374 615.407609 
L 396.842246 615.342483 
L 405.794118 615.146223 
L 414.745989 615.125113 
L 423.697861 615.101312 
L 432.649733 615.068542 
L 441.601604 615.028183 
L 450.553476 614.982628 
L 459.505348 614.95015 
L 468.457219 614.488633 
L 477.409091 613.339102 
L 486.360963 612.674218 
L 495.312834 612.078394 
L 504.264706 610.589449 
L 513.216578 610.298937 
L 522.168449 608.252407 
L 531.120321 606.628167 
L 540.072193 606.241427 
L 549.024064 605.907185 
L 557.975936 604.068536 
L 566.927807 602.068062 
L 575.879679 595.882263 
L 584.831551 588.279794 
L 593.783422 582.05078 
L 602.735294 573.672736 
L 611.687166 566.550783 
L 620.639037 557.512173 
L 629.590909 550.368548 
L 638.542781 548.945947 
L 647.494652 543.691564 
L 656.446524 530.144497 
L 665.398396 517.912493 
L 674.350267 499.89493 
L 683.302139 487.395573 
L 692.254011 486.468728 
L 701.205882 484.507664 
L 710.157754 485.477777 
L 719.109626 488.35361 
L 728.061497 490.279501 
L 737.013369 495.91502 
L 745.965241 499.300518 
L 754.917112 500.010205 
L 763.868984 494.090081 
L 772.820856 478.577453 
L 781.772727 474.416807 
L 790.724599 483.212995 
L 799.676471 483.378453 
L 808.628342 485.825532 
L 817.580214 484.721327 
L 826.532086 466.964189 
L 835.483957 460.713343 
L 844.435829 460.43778 
L 853.387701 461.972573 
L 862.339572 457.506823 
L 871.291444 451.371535 
L 880.243316 439.389817 
L 889.195187 434.062911 
L 898.147059 432.059406 
L 907.09893 439.070697 
L 916.050802 435.509805 
L 925.002674 431.306601 
L 933.954545 436.670036 
" clip-path="url(#p132bd72c4c)" style="fill: none; stroke: #dd8452; stroke-width: 1.5; stroke-linecap: round"/>
   </g>
   <g id="line2d_23">
    <path d="M 173.045455 615.6 
L 181.997326 615.599967 
L 190.949198 615.599949 
L 199.90107 615.599421 
L 208.852941 615.597004 
L 217.804813 615.596116 
L 226.756684 615.541554 
L 235.708556 615.533239 
L 244.660428 615.52036 
L 253.612299 615.410984 
L 262.564171 615.39289 
L 271.516043 615.270227 
L 280.467914 615.08077 
L 289.419786 614.401115 
L 298.371658 613.970674 
L 307.323529 613.155682 
L 316.275401 609.947558 
L 325.227273 605.677547 
L 334.179144 604.159091 
L 343.131016 600.70911 
L 352.082888 595.717633 
L 361.034759 592.208321 
L 369.986631 589.270624 
L 378.938503 582.969707 
L 387.890374 581.861049 
L 396.842246 573.958922 
L 405.794118 564.777501 
L 414.745989 538.368901 
L 423.697861 521.608401 
L 432.649733 504.361777 
L 441.601604 480.790155 
L 450.553476 460.401092 
L 459.505348 438.92236 
L 468.457219 428.499735 
L 477.409091 415.154042 
L 486.360963 399.125884 
L 495.312834 389.748974 
L 504.264706 378.108412 
L 513.216578 372.198574 
L 522.168449 364.482905 
L 531.120321 354.66347 
L 540.072193 337.901566 
L 549.024064 345.049768 
L 557.975936 344.913695 
L 566.927807 336.447677 
L 575.879679 334.939115 
L 584.831551 335.508547 
L 593.783422 330.229351 
L 602.735294 308.475939 
L 611.687166 289.571114 
L 620.639037 283.795515 
L 629.590909 268.430978 
L 638.542781 249.891316 
L 647.494652 231.811002 
L 656.446524 220.102891 
L 665.398396 214.684758 
L 674.350267 209.112112 
L 683.302139 202.736248 
L 692.254011 190.019938 
L 701.205882 188.169765 
L 710.157754 184.530673 
L 719.109626 184.713606 
L 728.061497 184.172088 
L 737.013369 184.716053 
L 745.965241 196.883111 
L 754.917112 190.53454 
L 763.868984 197.814838 
L 772.820856 209.001534 
L 781.772727 206.02961 
L 790.724599 193.210752 
L 799.676471 184.606645 
L 808.628342 186.19452 
L 817.580214 176.717123 
L 826.532086 172.400245 
L 835.483957 172.116071 
L 844.435829 168.441933 
L 853.387701 169.316698 
L 862.339572 172.700417 
L 871.291444 171.206863 
L 880.243316 172.298243 
L 889.195187 182.977676 
L 898.147059 175.446622 
L 907.09893 164.818745 
L 916.050802 169.097569 
L 925.002674 168.201343 
L 933.954545 169.750288 
" clip-path="url(#p132bd72c4c)" style="fill: none; stroke: #55a868; stroke-width: 1.5; stroke-linecap: round"/>
   </g>
   <g id="line2d_24">
    <path d="M 181.997326 587.724005 
L 190.949198 587.724005 
L 199.90107 587.724005 
L 208.852941 587.724005 
L 217.804813 587.724005 
L 226.756684 587.724005 
L 235.708556 587.724005 
L 244.660428 587.724005 
L 253.612299 587.724005 
L 262.564171 587.724005 
L 271.516043 587.724005 
L 280.467914 587.724005 
L 289.419786 587.724005 
L 298.371658 587.724005 
L 307.323529 587.724005 
L 316.275401 587.724005 
L 325.227273 587.724005 
L 334.179144 587.724005 
L 343.131016 587.724005 
L 352.082888 587.724005 
L 361.034759 587.724005 
L 369.986631 587.724005 
L 378.938503 587.724005 
L 387.890374 587.724005 
L 396.842246 587.724005 
L 405.794118 587.724005 
L 414.745989 587.724005 
L 423.697861 587.724005 
L 432.649733 587.724005 
L 441.601604 587.724005 
L 450.553476 587.724005 
L 459.505348 587.724005 
L 468.457219 587.724005 
L 477.409091 587.724005 
L 486.360963 587.724005 
L 495.312834 587.724005 
L 504.264706 587.724005 
L 513.216578 587.724005 
L 522.168449 587.724005 
L 531.120321 587.724005 
L 540.072193 587.724005 
L 549.024064 587.724005 
L 557.975936 587.724005 
L 566.927807 587.724005 
L 575.879679 587.724005 
L 584.831551 587.724005 
L 593.783422 587.724005 
L 602.735294 587.724005 
L 611.687166 587.724005 
L 620.639037 587.724005 
L 629.590909 587.724005 
L 638.542781 587.724005 
L 647.494652 587.724005 
L 656.446524 587.724005 
L 665.398396 587.724005 
L 674.350267 587.724005 
L 683.302139 587.724005 
L 692.254011 587.724005 
L 701.205882 587.724005 
L 710.157754 587.724005 
L 719.109626 587.724005 
L 728.061497 587.724005 
L 737.013369 587.724005 
L 745.965241 587.724005 
L 754.917112 587.724005 
L 763.868984 587.724005 
L 772.820856 587.724005 
L 781.772727 587.724005 
L 790.724599 587.724005 
L 799.676471 587.724005 
L 808.628342 587.724005 
L 817.580214 587.724005 
L 826.532086 587.724005 
L 835.483957 587.724005 
L 844.435829 587.724005 
L 853.387701 587.724005 
L 862.339572 587.724005 
L 871.291444 587.724005 
L 880.243316 587.724005 
L 889.195187 587.724005 
L 898.147059 587.724005 
L 907.09893 587.724005 
L 916.050802 587.724005 
L 925.002674 587.724005 
L 933.954545 587.724005 
" clip-path="url(#p132bd72c4c)" style="fill: none; stroke-dasharray: 5.55,2.4; stroke-dashoffset: 0; stroke: #000000; stroke-width: 1.5"/>
   </g>
   <g id="patch_3">
    <path d="M 135 640.8 
L 135 86.4 
" style="fill: none; stroke: #ffffff; stroke-width: 1.25; stroke-linejoin: miter; stroke-linecap: square"/>
   </g>
   <g id="patch_4">
    <path d="M 972 640.8 
L 972 86.4 
" style="fill: none; stroke: #ffffff; stroke-width: 1.25; stroke-linejoin: miter; stroke-linecap: square"/>
   </g>
   <g id="patch_5">
    <path d="M 135 640.8 
L 972 640.8 
" style="fill: none; stroke: #ffffff; stroke-width: 1.25; stroke-linejoin: miter; stroke-linecap: square"/>
   </g>
   <g id="patch_6">
    <path d="M 135 86.4 
L 972 86.4 
" style="fill: none; stroke: #ffffff; stroke-width: 1.25; stroke-linejoin: miter; stroke-linecap: square"/>
   </g>
   <g id="text_11">
    <!-- Évolution des p-values (test KS loi exponentielle) pour $Z_n / n$ par loi -->
    <g style="fill: #262626" transform="translate(377.28 67.27725) scale(0.12 -0.12)">
     <defs>
      <path id="ArialMT-c9" d="M 506 0 
L 506 4581 
L 3819 4581 
L 3819 4041 
L 1113 4041 
L 1113 2638 
L 3647 2638 
L 3647 2100 
L 1113 2100 
L 1113 541 
L 3925 541 
L 3925 0 
L 506 0 
z
M 1758 4883 
L 2173 5758 
L 2911 5758 
L 2223 4883 
L 1758 4883 
z
" transform="scale(0.015625)"/>
      <path id="ArialMT-76" d="M 1344 0 
L 81 3319 
L 675 3319 
L 1388 1331 
Q 1503 1009 1600 663 
Q 1675 925 1809 1294 
L 2547 3319 
L 3125 3319 
L 1869 0 
L 1344 0 
z
" transform="scale(0.015625)"/>
      <path id="ArialMT-6f" d="M 213 1659 
Q 213 2581 725 3025 
Q 1153 3394 1769 3394 
Q 2453 3394 2887 2945 
Q 3322 2497 3322 1706 
Q 3322 1066 3130 698 
Q 2938 331 2570 128 
Q 2203 -75 1769 -75 
Q 1072 -75 642 372 
Q 213 819 213 1659 
z
M 791 1659 
Q 791 1022 1069 705 
Q 1347 388 1769 388 
Q 2188 388 2466 706 
Q 2744 1025 2744 1678 
Q 2744 2294 2464 2611 
Q 2184 2928 1769 2928 
Q 1347 2928 1069 2612 
Q 791 2297 791 1659 
z
" transform="scale(0.015625)"/>
      <path id="ArialMT-6c" d="M 409 0 
L 409 4581 
L 972 4581 
L 972 0 
L 409 0 
z
" transform="scale(0.015625)"/>
      <path id="ArialMT-75" d="M 2597 0 
L 2597 488 
Q 2209 -75 1544 -75 
Q 1250 -75 995 37 
Q 741 150 617 320 
Q 494 491 444 738 
Q 409 903 409 1263 
L 409 3319 
L 972 3319 
L 972 1478 
Q 972 1038 1006 884 
Q 1059 663 1231 536 
Q 1403 409 1656 409 
Q 1909 409 2131 539 
Q 2353 669 2445 892 
Q 2538 1116 2538 1541 
L 2538 3319 
L 3100 3319 
L 3100 0 
L 2597 0 
z
" transform="scale(0.015625)"/>
      <path id="ArialMT-74" d="M 1650 503 
L 1731 6 
Q 1494 -44 1306 -44 
Q 1000 -44 831 53 
Q 663 150 594 308 
Q 525 466 525 972 
L 525 2881 
L 113 2881 
L 113 3319 
L 525 3319 
L 525 4141 
L 1084 4478 
L 1084 3319 
L 1650 3319 
L 1650 2881 
L 1084 2881 
L 1084 941 
Q 1084 700 1114 631 
Q 1144 563 1211 522 
Q 1278 481 1403 481 
Q 1497 481 1650 503 
z
" transform="scale(0.015625)"/>
      <path id="ArialMT-69" d="M 425 3934 
L 425 4581 
L 988 4581 
L 988 3934 
L 425 3934 
z
M 425 0 
L 425 3319 
L 988 3319 
L 988 0 
L 425 0 
z
" transform="scale(0.015625)"/>
      <path id="ArialMT-6e" d="M 422 0 
L 422 3319 
L 928 3319 
L 928 2847 
Q 1294 3394 1984 3394 
Q 2284 3394 2536 3286 
Q 2788 3178 2913 3003 
Q 3038 2828 3088 2588 
Q 3119 2431 3119 2041 
L 3119 0 
L 2556 0 
L 2556 2019 
Q 2556 2363 2490 2533 
Q 2425 2703 2258 2804 
Q 2091 2906 1866 2906 
Q 1506 2906 1245 2678 
Q 984 2450 984 1813 
L 984 0 
L 422 0 
z
" transform="scale(0.015625)"/>
      <path id="ArialMT-20" transform="scale(0.015625)"/>
      <path id="ArialMT-64" d="M 2575 0 
L 2575 419 
Q 2259 -75 1647 -75 
Q 1250 -75 917 144 
Q 584 363 401 755 
Q 219 1147 219 1656 
Q 219 2153 384 2558 
Q 550 2963 881 3178 
Q 1213 3394 1622 3394 
Q 1922 3394 2156 3267 
Q 2391 3141 2538 2938 
L 2538 4581 
L 3097 4581 
L 3097 0 
L 2575 0 
z
M 797 1656 
Q 797 1019 1065 703 
Q 1334 388 1700 388 
Q 2069 388 2326 689 
Q 2584 991 2584 1609 
Q 2584 2291 2321 2609 
Q 2059 2928 1675 2928 
Q 1300 2928 1048 2622 
Q 797 2316 797 1656 
z
" transform="scale(0.015625)"/>
      <path id="ArialMT-65" d="M 2694 1069 
L 3275 997 
Q 3138 488 2766 206 
Q 2394 -75 1816 -75 
Q 1088 -75 661 373 
Q 234 822 234 1631 
Q 234 2469 665 2931 
Q 1097 3394 1784 3394 
Q 2450 3394 2872 2941 
Q 3294 2488 3294 1666 
Q 3294 1616 3291 1516 
L 816 1516 
Q 847 969 1125 678 
Q 1403 388 1819 388 
Q 2128 388 2347 550 
Q 2566 713 2694 1069 
z
M 847 1978 
L 2700 1978 
Q 2663 2397 2488 2606 
Q 2219 2931 1791 2931 
Q 1403 2931 1139 2672 
Q 875 2413 847 1978 
z
" transform="scale(0.015625)"/>
      <path id="ArialMT-73" d="M 197 991 
L 753 1078 
Q 800 744 1014 566 
Q 1228 388 1613 388 
Q 2000 388 2187 545 
Q 2375 703 2375 916 
Q 2375 1106 2209 1216 
Q 2094 1291 1634 1406 
Q 1016 1563 777 1677 
Q 538 1791 414 1992 
Q 291 2194 291 2438 
Q 291 2659 392 2848 
Q 494 3038 669 3163 
Q 800 3259 1026 3326 
Q 1253 3394 1513 3394 
Q 1903 3394 2198 3281 
Q 2494 3169 2634 2976 
Q 2775 2784 2828 2463 
L 2278 2388 
Q 2241 2644 2061 2787 
Q 1881 2931 1553 2931 
Q 1166 2931 1000 2803 
Q 834 2675 834 2503 
Q 834 2394 903 2306 
Q 972 2216 1119 2156 
Q 1203 2125 1616 2013 
Q 2213 1853 2448 1751 
Q 2684 1650 2818 1456 
Q 2953 1263 2953 975 
Q 2953 694 2789 445 
Q 2625 197 2315 61 
Q 2006 -75 1616 -75 
Q 969 -75 630 194 
Q 291 463 197 991 
z
" transform="scale(0.015625)"/>
      <path id="ArialMT-70" d="M 422 -1272 
L 422 3319 
L 934 3319 
L 934 2888 
Q 1116 3141 1344 3267 
Q 1572 3394 1897 3394 
Q 2322 3394 2647 3175 
Q 2972 2956 3137 2557 
Q 3303 2159 3303 1684 
Q 3303 1175 3120 767 
Q 2938 359 2589 142 
Q 2241 -75 1856 -75 
Q 1575 -75 1351 44 
Q 1128 163 984 344 
L 984 -1272 
L 422 -1272 
z
M 931 1641 
Q 931 1000 1190 694 
Q 1450 388 1819 388 
Q 2194 388 2461 705 
Q 2728 1022 2728 1688 
Q 2728 2322 2467 2637 
Q 2206 2953 1844 2953 
Q 1484 2953 1207 2617 
Q 931 2281 931 1641 
z
" transform="scale(0.015625)"/>
      <path id="ArialMT-2d" d="M 203 1375 
L 203 1941 
L 1931 1941 
L 1931 1375 
L 203 1375 
z
" transform="scale(0.015625)"/>
      <path id="ArialMT-61" d="M 2588 409 
Q 2275 144 1986 34 
Q 1697 -75 1366 -75 
Q 819 -75 525 192 
Q 231 459 231 875 
Q 231 1119 342 1320 
Q 453 1522 633 1644 
Q 813 1766 1038 1828 
Q 1203 1872 1538 1913 
Q 2219 1994 2541 2106 
Q 2544 2222 2544 2253 
Q 2544 2597 2384 2738 
Q 2169 2928 1744 2928 
Q 1347 2928 1158 2789 
Q 969 2650 878 2297 
L 328 2372 
Q 403 2725 575 2942 
Q 747 3159 1072 3276 
Q 1397 3394 1825 3394 
Q 2250 3394 2515 3294 
Q 2781 3194 2906 3042 
Q 3031 2891 3081 2659 
Q 3109 2516 3109 2141 
L 3109 1391 
Q 3109 606 3145 398 
Q 3181 191 3288 0 
L 2700 0 
Q 2613 175 2588 409 
z
M 2541 1666 
Q 2234 1541 1622 1453 
Q 1275 1403 1131 1340 
Q 988 1278 909 1158 
Q 831 1038 831 891 
Q 831 666 1001 516 
Q 1172 366 1500 366 
Q 1825 366 2078 508 
Q 2331 650 2450 897 
Q 2541 1088 2541 1459 
L 2541 1666 
z
" transform="scale(0.015625)"/>
      <path id="ArialMT-28" d="M 1497 -1347 
Q 1031 -759 709 28 
Q 388 816 388 1659 
Q 388 2403 628 3084 
Q 909 3875 1497 4659 
L 1900 4659 
Q 1522 4009 1400 3731 
Q 1209 3300 1100 2831 
Q 966 2247 966 1656 
Q 966 153 1900 -1347 
L 1497 -1347 
z
" transform="scale(0.015625)"/>
      <path id="ArialMT-4b" d="M 469 0 
L 469 4581 
L 1075 4581 
L 1075 2309 
L 3350 4581 
L 4172 4581 
L 2250 2725 
L 4256 0 
L 3456 0 
L 1825 2319 
L 1075 1588 
L 1075 0 
L 469 0 
z
" transform="scale(0.015625)"/>
      <path id="ArialMT-53" d="M 288 1472 
L 859 1522 
Q 900 1178 1048 958 
Q 1197 738 1509 602 
Q 1822 466 2213 466 
Q 2559 466 2825 569 
Q 3091 672 3220 851 
Q 3350 1031 3350 1244 
Q 3350 1459 3225 1620 
Q 3100 1781 2813 1891 
Q 2628 1963 1997 2114 
Q 1366 2266 1113 2400 
Q 784 2572 623 2826 
Q 463 3081 463 3397 
Q 463 3744 659 4045 
Q 856 4347 1234 4503 
Q 1613 4659 2075 4659 
Q 2584 4659 2973 4495 
Q 3363 4331 3572 4012 
Q 3781 3694 3797 3291 
L 3216 3247 
Q 3169 3681 2898 3903 
Q 2628 4125 2100 4125 
Q 1550 4125 1298 3923 
Q 1047 3722 1047 3438 
Q 1047 3191 1225 3031 
Q 1400 2872 2139 2705 
Q 2878 2538 3153 2413 
Q 3553 2228 3743 1945 
Q 3934 1663 3934 1294 
Q 3934 928 3725 604 
Q 3516 281 3123 101 
Q 2731 -78 2241 -78 
Q 1619 -78 1198 103 
Q 778 284 539 648 
Q 300 1013 288 1472 
z
" transform="scale(0.015625)"/>
      <path id="ArialMT-78" d="M 47 0 
L 1259 1725 
L 138 3319 
L 841 3319 
L 1350 2541 
Q 1494 2319 1581 2169 
Q 1719 2375 1834 2534 
L 2394 3319 
L 3066 3319 
L 1919 1756 
L 3153 0 
L 2463 0 
L 1781 1031 
L 1600 1309 
L 728 0 
L 47 0 
z
" transform="scale(0.015625)"/>
      <path id="ArialMT-29" d="M 791 -1347 
L 388 -1347 
Q 1322 153 1322 1656 
Q 1322 2244 1188 2822 
Q 1081 3291 891 3722 
Q 769 4003 388 4659 
L 791 4659 
Q 1378 3875 1659 3084 
Q 1900 2403 1900 1659 
Q 1900 816 1576 28 
Q 1253 -759 791 -1347 
z
" transform="scale(0.015625)"/>
      <path id="ArialMT-72" d="M 416 0 
L 416 3319 
L 922 3319 
L 922 2816 
Q 1116 3169 1280 3281 
Q 1444 3394 1641 3394 
Q 1925 3394 2219 3213 
L 2025 2691 
Q 1819 2813 1613 2813 
Q 1428 2813 1281 2702 
Q 1134 2591 1072 2394 
Q 978 2094 978 1738 
L 978 0 
L 416 0 
z
" transform="scale(0.015625)"/>
      <path id="DejaVuSans-Oblique-5a" d="M 838 4666 
L 4500 4666 
L 4409 4184 
L 794 531 
L 3769 531 
L 3669 0 
L -141 0 
L -50 481 
L 3566 4134 
L 738 4134 
L 838 4666 
z
" transform="scale(0.015625)"/>
      <path id="DejaVuSans-Oblique-6e" d="M 3566 2113 
L 3156 0 
L 2578 0 
L 2988 2091 
Q 3016 2238 3031 2350 
Q 3047 2463 3047 2528 
Q 3047 2791 2881 2937 
Q 2716 3084 2419 3084 
Q 1956 3084 1622 2776 
Q 1288 2469 1184 1941 
L 800 0 
L 225 0 
L 903 3500 
L 1478 3500 
L 1363 2950 
Q 1603 3253 1940 3418 
Q 2278 3584 2650 3584 
Q 3113 3584 3367 3334 
Q 3622 3084 3622 2631 
Q 3622 2519 3608 2391 
Q 3594 2263 3566 2113 
z
" transform="scale(0.015625)"/>
      <path id="DejaVuSans-2f" d="M 1625 4666 
L 2156 4666 
L 531 -594 
L 0 -594 
L 1625 4666 
z
" transform="scale(0.015625)"/>
     </defs>
     <use xlink:href="#ArialMT-c9" transform="translate(0 0.03125)"/>
     <use xlink:href="#ArialMT-76" transform="translate(66.699219 0.03125)"/>
     <use xlink:href="#ArialMT-6f" transform="translate(116.699219 0.03125)"/>
     <use xlink:href="#ArialMT-6c" transform="translate(172.314453 0.03125)"/>
     <use xlink:href="#ArialMT-75" transform="translate(194.53125 0.03125)"/>
     <use xlink:href="#ArialMT-74" transform="translate(250.146484 0.03125)"/>
     <use xlink:href="#ArialMT-69" transform="translate(277.929688 0.03125)"/>
     <use xlink:href="#ArialMT-6f" transform="translate(300.146484 0.03125)"/>
     <use xlink:href="#ArialMT-6e" transform="translate(355.761719 0.03125)"/>
     <use xlink:href="#ArialMT-20" transform="translate(411.376953 0.03125)"/>
     <use xlink:href="#ArialMT-64" transform="translate(439.160156 0.03125)"/>
     <use xlink:href="#ArialMT-65" transform="translate(494.775391 0.03125)"/>
     <use xlink:href="#ArialMT-73" transform="translate(550.390625 0.03125)"/>
     <use xlink:href="#ArialMT-20" transform="translate(600.390625 0.03125)"/>
     <use xlink:href="#ArialMT-70" transform="translate(628.173828 0.03125)"/>
     <use xlink:href="#ArialMT-2d" transform="translate(683.789062 0.03125)"/>
     <use xlink:href="#ArialMT-76" transform="translate(717.089844 0.03125)"/>
     <use xlink:href="#ArialMT-61" transform="translate(767.089844 0.03125)"/>
     <use xlink:href="#ArialMT-6c" transform="translate(822.705078 0.03125)"/>
     <use xlink:href="#ArialMT-75" transform="translate(844.921875 0.03125)"/>
     <use xlink:href="#ArialMT-65" transform="translate(900.537109 0.03125)"/>
     <use xlink:href="#ArialMT-73" transform="translate(956.152344 0.03125)"/>
     <use xlink:href="#ArialMT-20" transform="translate(1006.152344 0.03125)"/>
     <use xlink:href="#ArialMT-28" transform="translate(1033.935547 0.03125)"/>
     <use xlink:href="#ArialMT-74" transform="translate(1067.236328 0.03125)"/>
     <use xlink:href="#ArialMT-65" transform="translate(1095.019531 0.03125)"/>
     <use xlink:href="#ArialMT-73" transform="translate(1150.634766 0.03125)"/>
     <use xlink:href="#ArialMT-74" transform="translate(1200.634766 0.03125)"/>
     <use xlink:href="#ArialMT-20" transform="translate(1228.417969 0.03125)"/>
     <use xlink:href="#ArialMT-4b" transform="translate(1256.201172 0.03125)"/>
     <use xlink:href="#ArialMT-53" transform="translate(1322.900391 0.03125)"/>
     <use xlink:href="#ArialMT-20" transform="translate(1389.599609 0.03125)"/>
     <use xlink:href="#ArialMT-6c" transform="translate(1417.382812 0.03125)"/>
     <use xlink:href="#ArialMT-6f" transform="translate(1439.599609 0.03125)"/>
     <use xlink:href="#ArialMT-69" transform="translate(1495.214844 0.03125)"/>
     <use xlink:href="#ArialMT-20" transform="translate(1517.431641 0.03125)"/>
     <use xlink:href="#ArialMT-65" transform="translate(1545.214844 0.03125)"/>
     <use xlink:href="#ArialMT-78" transform="translate(1600.830078 0.03125)"/>
     <use xlink:href="#ArialMT-70" transform="translate(1650.830078 0.03125)"/>
     <use xlink:href="#ArialMT-6f" transform="translate(1706.445312 0.03125)"/>
     <use xlink:href="#ArialMT-6e" transform="translate(1762.060547 0.03125)"/>
     <use xlink:href="#ArialMT-65" transform="translate(1817.675781 0.03125)"/>
     <use xlink:href="#ArialMT-6e" transform="translate(1873.291016 0.03125)"/>
     <use xlink:href="#ArialMT-74" transform="translate(1928.90625 0.03125)"/>
     <use xlink:href="#ArialMT-69" transform="translate(1956.689453 0.03125)"/>
     <use xlink:href="#ArialMT-65" transform="translate(1978.90625 0.03125)"/>
     <use xlink:href="#ArialMT-6c" transform="translate(2034.521484 0.03125)"/>
     <use xlink:href="#ArialMT-6c" transform="translate(2056.738281 0.03125)"/>
     <use xlink:href="#ArialMT-65" transform="translate(2078.955078 0.03125)"/>
     <use xlink:href="#ArialMT-29" transform="translate(2134.570312 0.03125)"/>
     <use xlink:href="#ArialMT-20" transform="translate(2167.871094 0.03125)"/>
     <use xlink:href="#ArialMT-70" transform="translate(2195.654297 0.03125)"/>
     <use xlink:href="#ArialMT-6f" transform="translate(2251.269531 0.03125)"/>
     <use xlink:href="#ArialMT-75" transform="translate(2306.884766 0.03125)"/>
     <use xlink:href="#ArialMT-72" transform="translate(2362.5 0.03125)"/>
     <use xlink:href="#ArialMT-20" transform="translate(2395.800781 0.03125)"/>
     <use xlink:href="#DejaVuSans-Oblique-5a" transform="translate(2423.583984 0.03125)"/>
     <use xlink:href="#DejaVuSans-Oblique-6e" transform="translate(2492.089844 -16.375) scale(0.7)"/>
     <use xlink:href="#DejaVuSans-2f" transform="translate(2539.189453 0.03125)"/>
     <use xlink:href="#DejaVuSans-Oblique-6e" transform="translate(2572.880859 0.03125)"/>
     <use xlink:href="#ArialMT-20" transform="translate(2636.259766 0.03125)"/>
     <use xlink:href="#ArialMT-70" transform="translate(2664.042969 0.03125)"/>
     <use xlink:href="#ArialMT-61" transform="translate(2719.658203 0.03125)"/>
     <use xlink:href="#ArialMT-72" transform="translate(2775.273438 0.03125)"/>
     <use xlink:href="#ArialMT-20" transform="translate(2808.574219 0.03125)"/>
     <use xlink:href="#ArialMT-6c" transform="translate(2836.357422 0.03125)"/>
     <use xlink:href="#ArialMT-6f" transform="translate(2858.574219 0.03125)"/>
     <use xlink:href="#ArialMT-69" transform="translate(2914.189453 0.03125)"/>
    </g>
    <!-- (lissé avec une fenêtre de taille 15) -->
    <g style="fill: #262626" transform="translate(460.454063 80.4) scale(0.12 -0.12)">
     <defs>
      <path id="ArialMT-e9" d="M 2694 1069 
L 3275 997 
Q 3138 488 2766 206 
Q 2394 -75 1816 -75 
Q 1088 -75 661 373 
Q 234 822 234 1631 
Q 234 2469 665 2931 
Q 1097 3394 1784 3394 
Q 2450 3394 2872 2941 
Q 3294 2488 3294 1666 
Q 3294 1616 3291 1516 
L 816 1516 
Q 847 969 1125 678 
Q 1403 388 1819 388 
Q 2128 388 2347 550 
Q 2566 713 2694 1069 
z
M 847 1978 
L 2700 1978 
Q 2663 2397 2488 2606 
Q 2219 2931 1791 2931 
Q 1403 2931 1139 2672 
Q 875 2413 847 1978 
z
M 1454 3731 
L 1869 4606 
L 2607 4606 
L 1919 3731 
L 1454 3731 
z
" transform="scale(0.015625)"/>
      <path id="ArialMT-63" d="M 2588 1216 
L 3141 1144 
Q 3050 572 2676 248 
Q 2303 -75 1759 -75 
Q 1078 -75 664 370 
Q 250 816 250 1647 
Q 250 2184 428 2587 
Q 606 2991 970 3192 
Q 1334 3394 1763 3394 
Q 2303 3394 2647 3120 
Q 2991 2847 3088 2344 
L 2541 2259 
Q 2463 2594 2264 2762 
Q 2066 2931 1784 2931 
Q 1359 2931 1093 2626 
Q 828 2322 828 1663 
Q 828 994 1084 691 
Q 1341 388 1753 388 
Q 2084 388 2306 591 
Q 2528 794 2588 1216 
z
" transform="scale(0.015625)"/>
      <path id="ArialMT-66" d="M 556 0 
L 556 2881 
L 59 2881 
L 59 3319 
L 556 3319 
L 556 3672 
Q 556 4006 616 4169 
Q 697 4388 901 4523 
Q 1106 4659 1475 4659 
Q 1713 4659 2000 4603 
L 1916 4113 
Q 1741 4144 1584 4144 
Q 1328 4144 1222 4034 
Q 1116 3925 1116 3625 
L 1116 3319 
L 1763 3319 
L 1763 2881 
L 1116 2881 
L 1116 0 
L 556 0 
z
" transform="scale(0.015625)"/>
      <path id="ArialMT-ea" d="M 2694 1069 
L 3275 997 
Q 3138 488 2766 206 
Q 2394 -75 1816 -75 
Q 1088 -75 661 373 
Q 234 822 234 1631 
Q 234 2469 665 2931 
Q 1097 3394 1784 3394 
Q 2450 3394 2872 2941 
Q 3294 2488 3294 1666 
Q 3294 1616 3291 1516 
L 816 1516 
Q 847 969 1125 678 
Q 1403 388 1819 388 
Q 2128 388 2347 550 
Q 2566 713 2694 1069 
z
M 847 1978 
L 2700 1978 
Q 2663 2397 2488 2606 
Q 2219 2931 1791 2931 
Q 1403 2931 1139 2672 
Q 875 2413 847 1978 
z
M 1771 4263 
L 1418 3731 
L 774 3731 
L 1449 4606 
L 2049 4606 
L 2752 3731 
L 2115 3731 
L 1771 4263 
z
" transform="scale(0.015625)"/>
      <path id="ArialMT-35" d="M 266 1200 
L 856 1250 
Q 922 819 1161 601 
Q 1400 384 1738 384 
Q 2144 384 2425 690 
Q 2706 997 2706 1503 
Q 2706 1984 2436 2262 
Q 2166 2541 1728 2541 
Q 1456 2541 1237 2417 
Q 1019 2294 894 2097 
L 366 2166 
L 809 4519 
L 3088 4519 
L 3088 3981 
L 1259 3981 
L 1013 2750 
Q 1425 3038 1878 3038 
Q 2478 3038 2890 2622 
Q 3303 2206 3303 1553 
Q 3303 931 2941 478 
Q 2500 -78 1738 -78 
Q 1113 -78 717 272 
Q 322 622 266 1200 
z
" transform="scale(0.015625)"/>
     </defs>
     <use xlink:href="#ArialMT-28"/>
     <use xlink:href="#ArialMT-6c" x="33.300781"/>
     <use xlink:href="#ArialMT-69" x="55.517578"/>
     <use xlink:href="#ArialMT-73" x="77.734375"/>
     <use xlink:href="#ArialMT-73" x="127.734375"/>
     <use xlink:href="#ArialMT-e9" x="177.734375"/>
     <use xlink:href="#ArialMT-20" x="233.349609"/>
     <use xlink:href="#ArialMT-61" x="261.132812"/>
     <use xlink:href="#ArialMT-76" x="316.748047"/>
     <use xlink:href="#ArialMT-65" x="366.748047"/>
     <use xlink:href="#ArialMT-63" x="422.363281"/>
     <use xlink:href="#ArialMT-20" x="472.363281"/>
     <use xlink:href="#ArialMT-75" x="500.146484"/>
     <use xlink:href="#ArialMT-6e" x="555.761719"/>
     <use xlink:href="#ArialMT-65" x="611.376953"/>
     <use xlink:href="#ArialMT-20" x="666.992188"/>
     <use xlink:href="#ArialMT-66" x="694.775391"/>
     <use xlink:href="#ArialMT-65" x="722.558594"/>
     <use xlink:href="#ArialMT-6e" x="778.173828"/>
     <use xlink:href="#ArialMT-ea" x="833.789062"/>
     <use xlink:href="#ArialMT-74" x="889.404297"/>
     <use xlink:href="#ArialMT-72" x="917.1875"/>
     <use xlink:href="#ArialMT-65" x="950.488281"/>
     <use xlink:href="#ArialMT-20" x="1006.103516"/>
     <use xlink:href="#ArialMT-64" x="1033.886719"/>
     <use xlink:href="#ArialMT-65" x="1089.501953"/>
     <use xlink:href="#ArialMT-20" x="1145.117188"/>
     <use xlink:href="#ArialMT-74" x="1172.900391"/>
     <use xlink:href="#ArialMT-61" x="1200.683594"/>
     <use xlink:href="#ArialMT-69" x="1256.298828"/>
     <use xlink:href="#ArialMT-6c" x="1278.515625"/>
     <use xlink:href="#ArialMT-6c" x="1300.732422"/>
     <use xlink:href="#ArialMT-65" x="1322.949219"/>
     <use xlink:href="#ArialMT-20" x="1378.564453"/>
     <use xlink:href="#ArialMT-31" x="1406.347656"/>
     <use xlink:href="#ArialMT-35" x="1461.962891"/>
     <use xlink:href="#ArialMT-29" x="1517.578125"/>
    </g>
   </g>
   <g id="legend_1">
    <g id="patch_7">
     <path d="M 142.7 316.456406 
L 382.419219 316.456406 
Q 384.619219 316.456406 384.619219 314.256406 
L 384.619219 94.1 
Q 384.619219 91.9 382.419219 91.9 
L 142.7 91.9 
Q 140.5 91.9 140.5 94.1 
L 140.5 314.256406 
Q 140.5 316.456406 142.7 316.456406 
z
" style="fill: #eaeaf2; opacity: 0.8; stroke: #cccccc; stroke-linejoin: miter"/>
    </g>
    <g id="line2d_25">
     <path d="M 144.9 100.457656 
L 155.9 100.457656 
L 166.9 100.457656 
" style="fill: none; stroke: #4c72b0; stroke-width: 1.5; stroke-linecap: round"/>
    </g>
    <g id="text_12">
     <!-- Poisson (λ = 1) -->
     <g style="fill: #262626" transform="translate(175.7 104.307656) scale(0.11 -0.11)">
      <defs>
       <path id="ArialMT-50" d="M 494 0 
L 494 4581 
L 2222 4581 
Q 2678 4581 2919 4538 
Q 3256 4481 3484 4323 
Q 3713 4166 3852 3881 
Q 3991 3597 3991 3256 
Q 3991 2672 3619 2267 
Q 3247 1863 2275 1863 
L 1100 1863 
L 1100 0 
L 494 0 
z
M 1100 2403 
L 2284 2403 
Q 2872 2403 3119 2622 
Q 3366 2841 3366 3238 
Q 3366 3525 3220 3729 
Q 3075 3934 2838 4000 
Q 2684 4041 2272 4041 
L 1100 4041 
L 1100 2403 
z
" transform="scale(0.015625)"/>
       <path id="ArialMT-3bb" d="M 1597 2481 
L 669 0 
L 75 0 
L 1306 3256 
L 813 4581 
L 1406 4581 
L 3119 0 
L 2525 0 
L 1597 2481 
z
" transform="scale(0.015625)"/>
       <path id="ArialMT-3d" d="M 3381 2694 
L 356 2694 
L 356 3219 
L 3381 3219 
L 3381 2694 
z
M 3381 1303 
L 356 1303 
L 356 1828 
L 3381 1828 
L 3381 1303 
z
" transform="scale(0.015625)"/>
      </defs>
      <use xlink:href="#ArialMT-50"/>
      <use xlink:href="#ArialMT-6f" x="66.699219"/>
      <use xlink:href="#ArialMT-69" x="122.314453"/>
      <use xlink:href="#ArialMT-73" x="144.53125"/>
      <use xlink:href="#ArialMT-73" x="194.53125"/>
      <use xlink:href="#ArialMT-6f" x="244.53125"/>
      <use xlink:href="#ArialMT-6e" x="300.146484"/>
      <use xlink:href="#ArialMT-20" x="355.761719"/>
      <use xlink:href="#ArialMT-28" x="383.544922"/>
      <use xlink:href="#ArialMT-3bb" x="416.845703"/>
      <use xlink:href="#ArialMT-20" x="466.845703"/>
      <use xlink:href="#ArialMT-3d" x="494.628906"/>
      <use xlink:href="#ArialMT-20" x="553.027344"/>
      <use xlink:href="#ArialMT-31" x="580.810547"/>
      <use xlink:href="#ArialMT-29" x="636.425781"/>
     </g>
    </g>
    <g id="line2d_26">
     <path d="M 144.9 116.280469 
L 155.9 116.280469 
L 166.9 116.280469 
" style="fill: none; stroke: #dd8452; stroke-width: 1.5; stroke-linecap: round"/>
    </g>
    <g id="text_13">
     <!-- Uniforme {0, 1, 2} -->
     <g style="fill: #262626" transform="translate(175.7 120.130469) scale(0.11 -0.11)">
      <defs>
       <path id="ArialMT-55" d="M 3500 4581 
L 4106 4581 
L 4106 1934 
Q 4106 1244 3950 837 
Q 3794 431 3386 176 
Q 2978 -78 2316 -78 
Q 1672 -78 1262 144 
Q 853 366 678 786 
Q 503 1206 503 1934 
L 503 4581 
L 1109 4581 
L 1109 1938 
Q 1109 1341 1220 1058 
Q 1331 775 1601 622 
Q 1872 469 2263 469 
Q 2931 469 3215 772 
Q 3500 1075 3500 1938 
L 3500 4581 
z
" transform="scale(0.015625)"/>
       <path id="ArialMT-6d" d="M 422 0 
L 422 3319 
L 925 3319 
L 925 2853 
Q 1081 3097 1340 3245 
Q 1600 3394 1931 3394 
Q 2300 3394 2536 3241 
Q 2772 3088 2869 2813 
Q 3263 3394 3894 3394 
Q 4388 3394 4653 3120 
Q 4919 2847 4919 2278 
L 4919 0 
L 4359 0 
L 4359 2091 
Q 4359 2428 4304 2576 
Q 4250 2725 4106 2815 
Q 3963 2906 3769 2906 
Q 3419 2906 3187 2673 
Q 2956 2441 2956 1928 
L 2956 0 
L 2394 0 
L 2394 2156 
Q 2394 2531 2256 2718 
Q 2119 2906 1806 2906 
Q 1569 2906 1367 2781 
Q 1166 2656 1075 2415 
Q 984 2175 984 1722 
L 984 0 
L 422 0 
z
" transform="scale(0.015625)"/>
       <path id="ArialMT-7b" d="M 178 1913 
Q 419 1919 570 2042 
Q 722 2166 772 2381 
Q 822 2597 825 3119 
Q 828 3641 844 3806 
Q 872 4069 948 4228 
Q 1025 4388 1137 4483 
Q 1250 4578 1425 4628 
Q 1544 4659 1813 4659 
L 1988 4659 
L 1988 4169 
L 1891 4169 
Q 1566 4169 1459 4051 
Q 1353 3934 1353 3528 
Q 1353 2709 1319 2494 
Q 1263 2159 1127 1978 
Q 991 1797 700 1656 
Q 1044 1513 1198 1217 
Q 1353 922 1353 250 
Q 1353 -359 1366 -475 
Q 1391 -688 1492 -772 
Q 1594 -856 1891 -856 
L 1988 -856 
L 1988 -1347 
L 1813 -1347 
Q 1506 -1347 1369 -1297 
Q 1169 -1225 1037 -1064 
Q 906 -903 867 -656 
Q 828 -409 825 153 
Q 822 716 772 931 
Q 722 1147 570 1272 
Q 419 1397 178 1403 
L 178 1913 
z
" transform="scale(0.015625)"/>
       <path id="ArialMT-2c" d="M 569 0 
L 569 641 
L 1209 641 
L 1209 0 
Q 1209 -353 1084 -570 
Q 959 -788 688 -906 
L 531 -666 
Q 709 -588 793 -436 
Q 878 -284 888 0 
L 569 0 
z
" transform="scale(0.015625)"/>
       <path id="ArialMT-7d" d="M 1956 1913 
L 1956 1403 
Q 1716 1397 1564 1272 
Q 1413 1147 1363 933 
Q 1313 719 1309 197 
Q 1306 -325 1291 -491 
Q 1263 -756 1186 -914 
Q 1109 -1072 996 -1167 
Q 884 -1263 709 -1313 
Q 591 -1347 322 -1347 
L 147 -1347 
L 147 -856 
L 244 -856 
Q 569 -856 675 -739 
Q 781 -622 781 -213 
Q 781 569 809 778 
Q 859 1125 1009 1333 
Q 1159 1541 1434 1656 
Q 1075 1828 928 2111 
Q 781 2394 781 3066 
Q 781 3675 766 3794 
Q 744 4003 642 4086 
Q 541 4169 244 4169 
L 147 4169 
L 147 4659 
L 322 4659 
Q 628 4659 766 4609 
Q 966 4541 1097 4378 
Q 1228 4216 1267 3969 
Q 1306 3722 1309 3159 
Q 1313 2597 1363 2383 
Q 1413 2169 1564 2044 
Q 1716 1919 1956 1913 
z
" transform="scale(0.015625)"/>
      </defs>
      <use xlink:href="#ArialMT-55"/>
      <use xlink:href="#ArialMT-6e" x="72.216797"/>
      <use xlink:href="#ArialMT-69" x="127.832031"/>
      <use xlink:href="#ArialMT-66" x="150.048828"/>
      <use xlink:href="#ArialMT-6f" x="177.832031"/>
      <use xlink:href="#ArialMT-72" x="233.447266"/>
      <use xlink:href="#ArialMT-6d" x="266.748047"/>
      <use xlink:href="#ArialMT-65" x="350.048828"/>
      <use xlink:href="#ArialMT-20" x="405.664062"/>
      <use xlink:href="#ArialMT-7b" x="433.447266"/>
      <use xlink:href="#ArialMT-30" x="466.845703"/>
      <use xlink:href="#ArialMT-2c" x="522.460938"/>
      <use xlink:href="#ArialMT-20" x="550.244141"/>
      <use xlink:href="#ArialMT-31" x="578.027344"/>
      <use xlink:href="#ArialMT-2c" x="633.642578"/>
      <use xlink:href="#ArialMT-20" x="661.425781"/>
      <use xlink:href="#ArialMT-32" x="689.208984"/>
      <use xlink:href="#ArialMT-7d" x="744.824219"/>
     </g>
    </g>
    <g id="line2d_27">
     <path d="M 144.9 132.103281 
L 155.9 132.103281 
L 166.9 132.103281 
" style="fill: none; stroke: #55a868; stroke-width: 1.5; stroke-linecap: round"/>
    </g>
    <g id="text_14">
     <!-- Binomiale (n=2, p=1/2) -->
     <g style="fill: #262626" transform="translate(175.7 135.953281) scale(0.11 -0.11)">
      <defs>
       <path id="ArialMT-42" d="M 469 0 
L 469 4581 
L 2188 4581 
Q 2713 4581 3030 4442 
Q 3347 4303 3526 4014 
Q 3706 3725 3706 3409 
Q 3706 3116 3547 2856 
Q 3388 2597 3066 2438 
Q 3481 2316 3704 2022 
Q 3928 1728 3928 1328 
Q 3928 1006 3792 729 
Q 3656 453 3456 303 
Q 3256 153 2954 76 
Q 2653 0 2216 0 
L 469 0 
z
M 1075 2656 
L 2066 2656 
Q 2469 2656 2644 2709 
Q 2875 2778 2992 2937 
Q 3109 3097 3109 3338 
Q 3109 3566 3000 3739 
Q 2891 3913 2687 3977 
Q 2484 4041 1991 4041 
L 1075 4041 
L 1075 2656 
z
M 1075 541 
L 2216 541 
Q 2509 541 2628 563 
Q 2838 600 2978 687 
Q 3119 775 3209 942 
Q 3300 1109 3300 1328 
Q 3300 1584 3169 1773 
Q 3038 1963 2805 2039 
Q 2572 2116 2134 2116 
L 1075 2116 
L 1075 541 
z
" transform="scale(0.015625)"/>
       <path id="ArialMT-2f" d="M 0 -78 
L 1328 4659 
L 1778 4659 
L 453 -78 
L 0 -78 
z
" transform="scale(0.015625)"/>
      </defs>
      <use xlink:href="#ArialMT-42"/>
      <use xlink:href="#ArialMT-69" x="66.699219"/>
      <use xlink:href="#ArialMT-6e" x="88.916016"/>
      <use xlink:href="#ArialMT-6f" x="144.53125"/>
      <use xlink:href="#ArialMT-6d" x="200.146484"/>
      <use xlink:href="#ArialMT-69" x="283.447266"/>
      <use xlink:href="#ArialMT-61" x="305.664062"/>
      <use xlink:href="#ArialMT-6c" x="361.279297"/>
      <use xlink:href="#ArialMT-65" x="383.496094"/>
      <use xlink:href="#ArialMT-20" x="439.111328"/>
      <use xlink:href="#ArialMT-28" x="466.894531"/>
      <use xlink:href="#ArialMT-6e" x="500.195312"/>
      <use xlink:href="#ArialMT-3d" x="555.810547"/>
      <use xlink:href="#ArialMT-32" x="614.208984"/>
      <use xlink:href="#ArialMT-2c" x="669.824219"/>
      <use xlink:href="#ArialMT-20" x="697.607422"/>
      <use xlink:href="#ArialMT-70" x="725.390625"/>
      <use xlink:href="#ArialMT-3d" x="781.005859"/>
      <use xlink:href="#ArialMT-31" x="839.404297"/>
      <use xlink:href="#ArialMT-2f" x="895.019531"/>
      <use xlink:href="#ArialMT-32" x="922.802734"/>
      <use xlink:href="#ArialMT-29" x="978.417969"/>
     </g>
    </g>
    <g id="line2d_28">
     <path d="M 144.9 147.926094 
L 155.9 147.926094 
L 166.9 147.926094 
" style="fill: none; stroke: #c44e52; stroke-width: 1.5; stroke-linecap: round"/>
    </g>
    <g id="text_15">
     <!-- Binomiale (n=10, p=1/10) -->
     <g style="fill: #262626" transform="translate(175.7 151.776094) scale(0.11 -0.11)">
      <use xlink:href="#ArialMT-42"/>
      <use xlink:href="#ArialMT-69" x="66.699219"/>
      <use xlink:href="#ArialMT-6e" x="88.916016"/>
      <use xlink:href="#ArialMT-6f" x="144.53125"/>
      <use xlink:href="#ArialMT-6d" x="200.146484"/>
      <use xlink:href="#ArialMT-69" x="283.447266"/>
      <use xlink:href="#ArialMT-61" x="305.664062"/>
      <use xlink:href="#ArialMT-6c" x="361.279297"/>
      <use xlink:href="#ArialMT-65" x="383.496094"/>
      <use xlink:href="#ArialMT-20" x="439.111328"/>
      <use xlink:href="#ArialMT-28" x="466.894531"/>
      <use xlink:href="#ArialMT-6e" x="500.195312"/>
      <use xlink:href="#ArialMT-3d" x="555.810547"/>
      <use xlink:href="#ArialMT-31" x="614.208984"/>
      <use xlink:href="#ArialMT-30" x="669.824219"/>
      <use xlink:href="#ArialMT-2c" x="725.439453"/>
      <use xlink:href="#ArialMT-20" x="753.222656"/>
      <use xlink:href="#ArialMT-70" x="781.005859"/>
      <use xlink:href="#ArialMT-3d" x="836.621094"/>
      <use xlink:href="#ArialMT-31" x="895.019531"/>
      <use xlink:href="#ArialMT-2f" x="950.634766"/>
      <use xlink:href="#ArialMT-31" x="978.417969"/>
      <use xlink:href="#ArialMT-30" x="1034.033203"/>
      <use xlink:href="#ArialMT-29" x="1089.648438"/>
     </g>
    </g>
    <g id="line2d_29">
     <path d="M 144.9 163.748906 
L 155.9 163.748906 
L 166.9 163.748906 
" style="fill: none; stroke: #8172b3; stroke-width: 1.5; stroke-linecap: round"/>
    </g>
    <g id="text_16">
     <!-- Binomiale (n=50, p=1/50) -->
     <g style="fill: #262626" transform="translate(175.7 167.598906) scale(0.11 -0.11)">
      <use xlink:href="#ArialMT-42"/>
      <use xlink:href="#ArialMT-69" x="66.699219"/>
      <use xlink:href="#ArialMT-6e" x="88.916016"/>
      <use xlink:href="#ArialMT-6f" x="144.53125"/>
      <use xlink:href="#ArialMT-6d" x="200.146484"/>
      <use xlink:href="#ArialMT-69" x="283.447266"/>
      <use xlink:href="#ArialMT-61" x="305.664062"/>
      <use xlink:href="#ArialMT-6c" x="361.279297"/>
      <use xlink:href="#ArialMT-65" x="383.496094"/>
      <use xlink:href="#ArialMT-20" x="439.111328"/>
      <use xlink:href="#ArialMT-28" x="466.894531"/>
      <use xlink:href="#ArialMT-6e" x="500.195312"/>
      <use xlink:href="#ArialMT-3d" x="555.810547"/>
      <use xlink:href="#ArialMT-35" x="614.208984"/>
      <use xlink:href="#ArialMT-30" x="669.824219"/>
      <use xlink:href="#ArialMT-2c" x="725.439453"/>
      <use xlink:href="#ArialMT-20" x="753.222656"/>
      <use xlink:href="#ArialMT-70" x="781.005859"/>
      <use xlink:href="#ArialMT-3d" x="836.621094"/>
      <use xlink:href="#ArialMT-31" x="895.019531"/>
      <use xlink:href="#ArialMT-2f" x="950.634766"/>
      <use xlink:href="#ArialMT-35" x="978.417969"/>
      <use xlink:href="#ArialMT-30" x="1034.033203"/>
      <use xlink:href="#ArialMT-29" x="1089.648438"/>
     </g>
    </g>
    <g id="line2d_30">
     <path d="M 144.9 179.571719 
L 155.9 179.571719 
L 166.9 179.571719 
" style="fill: none; stroke: #937860; stroke-width: 1.5; stroke-linecap: round"/>
    </g>
    <g id="text_17">
     <!-- Bêta-Binomiale (n=2, α=3, β=3) -->
     <g style="fill: #262626" transform="translate(175.7 183.421719) scale(0.11 -0.11)">
      <defs>
       <path id="ArialMT-3b1" d="M 2884 3319 
L 3459 3319 
Q 3241 2631 3056 1659 
Q 3275 453 3459 0 
L 2900 0 
Q 2766 313 2697 606 
Q 2438 -75 1613 -75 
Q 988 -75 606 394 
Q 225 863 225 1666 
Q 225 2491 608 2942 
Q 991 3394 1622 3394 
Q 2013 3394 2259 3236 
Q 2506 3078 2719 2756 
Q 2741 2866 2884 3319 
z
M 1716 2928 
Q 1313 2928 1078 2603 
Q 844 2278 844 1666 
Q 844 1069 1066 728 
Q 1288 388 1684 388 
Q 2072 388 2331 723 
Q 2591 1059 2591 1691 
Q 2591 2303 2348 2615 
Q 2106 2928 1716 2928 
z
" transform="scale(0.015625)"/>
       <path id="ArialMT-33" d="M 269 1209 
L 831 1284 
Q 928 806 1161 595 
Q 1394 384 1728 384 
Q 2125 384 2398 659 
Q 2672 934 2672 1341 
Q 2672 1728 2419 1979 
Q 2166 2231 1775 2231 
Q 1616 2231 1378 2169 
L 1441 2663 
Q 1497 2656 1531 2656 
Q 1891 2656 2178 2843 
Q 2466 3031 2466 3422 
Q 2466 3731 2256 3934 
Q 2047 4138 1716 4138 
Q 1388 4138 1169 3931 
Q 950 3725 888 3313 
L 325 3413 
Q 428 3978 793 4289 
Q 1159 4600 1703 4600 
Q 2078 4600 2393 4439 
Q 2709 4278 2876 4000 
Q 3044 3722 3044 3409 
Q 3044 3113 2884 2869 
Q 2725 2625 2413 2481 
Q 2819 2388 3044 2092 
Q 3269 1797 3269 1353 
Q 3269 753 2831 336 
Q 2394 -81 1725 -81 
Q 1122 -81 723 278 
Q 325 638 269 1209 
z
" transform="scale(0.015625)"/>
       <path id="ArialMT-3b2" d="M 997 422 
L 997 -1272 
L 438 -1272 
L 438 3144 
Q 438 3672 580 3970 
Q 722 4269 1069 4464 
Q 1416 4659 1841 4659 
Q 2469 4659 2792 4298 
Q 3116 3938 3116 3509 
Q 3116 3091 2855 2834 
Q 2594 2578 2256 2519 
Q 2800 2466 3095 2128 
Q 3391 1791 3391 1297 
Q 3391 766 3042 345 
Q 2694 -75 2034 -75 
Q 1359 -75 997 422 
z
M 1494 2700 
Q 2069 2700 2331 2900 
Q 2594 3100 2594 3478 
Q 2594 3784 2370 3990 
Q 2147 4197 1813 4197 
Q 1522 4197 1308 4044 
Q 1094 3891 1045 3703 
Q 997 3516 997 3047 
L 997 1788 
Q 997 1250 1072 997 
Q 1147 744 1394 541 
Q 1641 338 1963 338 
Q 2353 338 2579 605 
Q 2806 872 2806 1266 
Q 2806 1591 2639 1848 
Q 2472 2106 2226 2198 
Q 1981 2291 1575 2291 
L 1494 2291 
L 1494 2700 
z
" transform="scale(0.015625)"/>
      </defs>
      <use xlink:href="#ArialMT-42"/>
      <use xlink:href="#ArialMT-ea" x="66.699219"/>
      <use xlink:href="#ArialMT-74" x="122.314453"/>
      <use xlink:href="#ArialMT-61" x="150.097656"/>
      <use xlink:href="#ArialMT-2d" x="205.712891"/>
      <use xlink:href="#ArialMT-42" x="239.013672"/>
      <use xlink:href="#ArialMT-69" x="305.712891"/>
      <use xlink:href="#ArialMT-6e" x="327.929688"/>
      <use xlink:href="#ArialMT-6f" x="383.544922"/>
      <use xlink:href="#ArialMT-6d" x="439.160156"/>
      <use xlink:href="#ArialMT-69" x="522.460938"/>
      <use xlink:href="#ArialMT-61" x="544.677734"/>
      <use xlink:href="#ArialMT-6c" x="600.292969"/>
      <use xlink:href="#ArialMT-65" x="622.509766"/>
      <use xlink:href="#ArialMT-20" x="678.125"/>
      <use xlink:href="#ArialMT-28" x="705.908203"/>
      <use xlink:href="#ArialMT-6e" x="739.208984"/>
      <use xlink:href="#ArialMT-3d" x="794.824219"/>
      <use xlink:href="#ArialMT-32" x="853.222656"/>
      <use xlink:href="#ArialMT-2c" x="908.837891"/>
      <use xlink:href="#ArialMT-20" x="936.621094"/>
      <use xlink:href="#ArialMT-3b1" x="964.404297"/>
      <use xlink:href="#ArialMT-3d" x="1022.216797"/>
      <use xlink:href="#ArialMT-33" x="1080.615234"/>
      <use xlink:href="#ArialMT-2c" x="1136.230469"/>
      <use xlink:href="#ArialMT-20" x="1164.013672"/>
      <use xlink:href="#ArialMT-3b2" x="1191.796875"/>
      <use xlink:href="#ArialMT-3d" x="1249.316406"/>
      <use xlink:href="#ArialMT-33" x="1307.714844"/>
      <use xlink:href="#ArialMT-29" x="1363.330078"/>
     </g>
    </g>
    <g id="line2d_31">
     <path d="M 144.9 195.394531 
L 155.9 195.394531 
L 166.9 195.394531 
" style="fill: none; stroke: #da8bc3; stroke-width: 1.5; stroke-linecap: round"/>
    </g>
    <g id="text_18">
     <!-- Bêta-Binomiale (n=5, α=5, β=20) -->
     <g style="fill: #262626" transform="translate(175.7 199.244531) scale(0.11 -0.11)">
      <use xlink:href="#ArialMT-42"/>
      <use xlink:href="#ArialMT-ea" x="66.699219"/>
      <use xlink:href="#ArialMT-74" x="122.314453"/>
      <use xlink:href="#ArialMT-61" x="150.097656"/>
      <use xlink:href="#ArialMT-2d" x="205.712891"/>
      <use xlink:href="#ArialMT-42" x="239.013672"/>
      <use xlink:href="#ArialMT-69" x="305.712891"/>
      <use xlink:href="#ArialMT-6e" x="327.929688"/>
      <use xlink:href="#ArialMT-6f" x="383.544922"/>
      <use xlink:href="#ArialMT-6d" x="439.160156"/>
      <use xlink:href="#ArialMT-69" x="522.460938"/>
      <use xlink:href="#ArialMT-61" x="544.677734"/>
      <use xlink:href="#ArialMT-6c" x="600.292969"/>
      <use xlink:href="#ArialMT-65" x="622.509766"/>
      <use xlink:href="#ArialMT-20" x="678.125"/>
      <use xlink:href="#ArialMT-28" x="705.908203"/>
      <use xlink:href="#ArialMT-6e" x="739.208984"/>
      <use xlink:href="#ArialMT-3d" x="794.824219"/>
      <use xlink:href="#ArialMT-35" x="853.222656"/>
      <use xlink:href="#ArialMT-2c" x="908.837891"/>
      <use xlink:href="#ArialMT-20" x="936.621094"/>
      <use xlink:href="#ArialMT-3b1" x="964.404297"/>
      <use xlink:href="#ArialMT-3d" x="1022.216797"/>
      <use xlink:href="#ArialMT-35" x="1080.615234"/>
      <use xlink:href="#ArialMT-2c" x="1136.230469"/>
      <use xlink:href="#ArialMT-20" x="1164.013672"/>
      <use xlink:href="#ArialMT-3b2" x="1191.796875"/>
      <use xlink:href="#ArialMT-3d" x="1249.316406"/>
      <use xlink:href="#ArialMT-32" x="1307.714844"/>
      <use xlink:href="#ArialMT-30" x="1363.330078"/>
      <use xlink:href="#ArialMT-29" x="1418.945312"/>
     </g>
    </g>
    <g id="line2d_32">
     <path d="M 144.9 211.217344 
L 155.9 211.217344 
L 166.9 211.217344 
" style="fill: none; stroke: #8c8c8c; stroke-width: 1.5; stroke-linecap: round"/>
    </g>
    <g id="text_19">
     <!-- Bêta-Binomiale (n=3, α=5, β=10) -->
     <g style="fill: #262626" transform="translate(175.7 215.067344) scale(0.11 -0.11)">
      <use xlink:href="#ArialMT-42"/>
      <use xlink:href="#ArialMT-ea" x="66.699219"/>
      <use xlink:href="#ArialMT-74" x="122.314453"/>
      <use xlink:href="#ArialMT-61" x="150.097656"/>
      <use xlink:href="#ArialMT-2d" x="205.712891"/>
      <use xlink:href="#ArialMT-42" x="239.013672"/>
      <use xlink:href="#ArialMT-69" x="305.712891"/>
      <use xlink:href="#ArialMT-6e" x="327.929688"/>
      <use xlink:href="#ArialMT-6f" x="383.544922"/>
      <use xlink:href="#ArialMT-6d" x="439.160156"/>
      <use xlink:href="#ArialMT-69" x="522.460938"/>
      <use xlink:href="#ArialMT-61" x="544.677734"/>
      <use xlink:href="#ArialMT-6c" x="600.292969"/>
      <use xlink:href="#ArialMT-65" x="622.509766"/>
      <use xlink:href="#ArialMT-20" x="678.125"/>
      <use xlink:href="#ArialMT-28" x="705.908203"/>
      <use xlink:href="#ArialMT-6e" x="739.208984"/>
      <use xlink:href="#ArialMT-3d" x="794.824219"/>
      <use xlink:href="#ArialMT-33" x="853.222656"/>
      <use xlink:href="#ArialMT-2c" x="908.837891"/>
      <use xlink:href="#ArialMT-20" x="936.621094"/>
      <use xlink:href="#ArialMT-3b1" x="964.404297"/>
      <use xlink:href="#ArialMT-3d" x="1022.216797"/>
      <use xlink:href="#ArialMT-35" x="1080.615234"/>
      <use xlink:href="#ArialMT-2c" x="1136.230469"/>
      <use xlink:href="#ArialMT-20" x="1164.013672"/>
      <use xlink:href="#ArialMT-3b2" x="1191.796875"/>
      <use xlink:href="#ArialMT-3d" x="1249.316406"/>
      <use xlink:href="#ArialMT-31" x="1307.714844"/>
      <use xlink:href="#ArialMT-30" x="1363.330078"/>
      <use xlink:href="#ArialMT-29" x="1418.945312"/>
     </g>
    </g>
    <g id="line2d_33">
     <path d="M 144.9 227.040156 
L 155.9 227.040156 
L 166.9 227.040156 
" style="fill: none; stroke: #ccb974; stroke-width: 1.5; stroke-linecap: round"/>
    </g>
    <g id="text_20">
     <!-- Bêta-Binomiale (n=10, α=5, β=45) -->
     <g style="fill: #262626" transform="translate(175.7 230.890156) scale(0.11 -0.11)">
      <use xlink:href="#ArialMT-42"/>
      <use xlink:href="#ArialMT-ea" x="66.699219"/>
      <use xlink:href="#ArialMT-74" x="122.314453"/>
      <use xlink:href="#ArialMT-61" x="150.097656"/>
      <use xlink:href="#ArialMT-2d" x="205.712891"/>
      <use xlink:href="#ArialMT-42" x="239.013672"/>
      <use xlink:href="#ArialMT-69" x="305.712891"/>
      <use xlink:href="#ArialMT-6e" x="327.929688"/>
      <use xlink:href="#ArialMT-6f" x="383.544922"/>
      <use xlink:href="#ArialMT-6d" x="439.160156"/>
      <use xlink:href="#ArialMT-69" x="522.460938"/>
      <use xlink:href="#ArialMT-61" x="544.677734"/>
      <use xlink:href="#ArialMT-6c" x="600.292969"/>
      <use xlink:href="#ArialMT-65" x="622.509766"/>
      <use xlink:href="#ArialMT-20" x="678.125"/>
      <use xlink:href="#ArialMT-28" x="705.908203"/>
      <use xlink:href="#ArialMT-6e" x="739.208984"/>
      <use xlink:href="#ArialMT-3d" x="794.824219"/>
      <use xlink:href="#ArialMT-31" x="853.222656"/>
      <use xlink:href="#ArialMT-30" x="908.837891"/>
      <use xlink:href="#ArialMT-2c" x="964.453125"/>
      <use xlink:href="#ArialMT-20" x="992.236328"/>
      <use xlink:href="#ArialMT-3b1" x="1020.019531"/>
      <use xlink:href="#ArialMT-3d" x="1077.832031"/>
      <use xlink:href="#ArialMT-35" x="1136.230469"/>
      <use xlink:href="#ArialMT-2c" x="1191.845703"/>
      <use xlink:href="#ArialMT-20" x="1219.628906"/>
      <use xlink:href="#ArialMT-3b2" x="1247.412109"/>
      <use xlink:href="#ArialMT-3d" x="1304.931641"/>
      <use xlink:href="#ArialMT-34" x="1363.330078"/>
      <use xlink:href="#ArialMT-35" x="1418.945312"/>
      <use xlink:href="#ArialMT-29" x="1474.560547"/>
     </g>
    </g>
    <g id="line2d_34">
     <path d="M 144.9 242.862969 
L 155.9 242.862969 
L 166.9 242.862969 
" style="fill: none; stroke: #64b5cd; stroke-width: 1.5; stroke-linecap: round"/>
    </g>
    <g id="text_21">
     <!-- Négative Binomiale (n=1, p=0.5) -->
     <g style="fill: #262626" transform="translate(175.7 246.712969) scale(0.11 -0.11)">
      <defs>
       <path id="ArialMT-4e" d="M 488 0 
L 488 4581 
L 1109 4581 
L 3516 984 
L 3516 4581 
L 4097 4581 
L 4097 0 
L 3475 0 
L 1069 3600 
L 1069 0 
L 488 0 
z
" transform="scale(0.015625)"/>
       <path id="ArialMT-67" d="M 319 -275 
L 866 -356 
Q 900 -609 1056 -725 
Q 1266 -881 1628 -881 
Q 2019 -881 2231 -725 
Q 2444 -569 2519 -288 
Q 2563 -116 2559 434 
Q 2191 0 1641 0 
Q 956 0 581 494 
Q 206 988 206 1678 
Q 206 2153 378 2554 
Q 550 2956 876 3175 
Q 1203 3394 1644 3394 
Q 2231 3394 2613 2919 
L 2613 3319 
L 3131 3319 
L 3131 450 
Q 3131 -325 2973 -648 
Q 2816 -972 2473 -1159 
Q 2131 -1347 1631 -1347 
Q 1038 -1347 672 -1080 
Q 306 -813 319 -275 
z
M 784 1719 
Q 784 1066 1043 766 
Q 1303 466 1694 466 
Q 2081 466 2343 764 
Q 2606 1063 2606 1700 
Q 2606 2309 2336 2618 
Q 2066 2928 1684 2928 
Q 1309 2928 1046 2623 
Q 784 2319 784 1719 
z
" transform="scale(0.015625)"/>
      </defs>
      <use xlink:href="#ArialMT-4e"/>
      <use xlink:href="#ArialMT-e9" x="72.216797"/>
      <use xlink:href="#ArialMT-67" x="127.832031"/>
      <use xlink:href="#ArialMT-61" x="183.447266"/>
      <use xlink:href="#ArialMT-74" x="239.0625"/>
      <use xlink:href="#ArialMT-69" x="266.845703"/>
      <use xlink:href="#ArialMT-76" x="289.0625"/>
      <use xlink:href="#ArialMT-65" x="339.0625"/>
      <use xlink:href="#ArialMT-20" x="394.677734"/>
      <use xlink:href="#ArialMT-42" x="422.460938"/>
      <use xlink:href="#ArialMT-69" x="489.160156"/>
      <use xlink:href="#ArialMT-6e" x="511.376953"/>
      <use xlink:href="#ArialMT-6f" x="566.992188"/>
      <use xlink:href="#ArialMT-6d" x="622.607422"/>
      <use xlink:href="#ArialMT-69" x="705.908203"/>
      <use xlink:href="#ArialMT-61" x="728.125"/>
      <use xlink:href="#ArialMT-6c" x="783.740234"/>
      <use xlink:href="#ArialMT-65" x="805.957031"/>
      <use xlink:href="#ArialMT-20" x="861.572266"/>
      <use xlink:href="#ArialMT-28" x="889.355469"/>
      <use xlink:href="#ArialMT-6e" x="922.65625"/>
      <use xlink:href="#ArialMT-3d" x="978.271484"/>
      <use xlink:href="#ArialMT-31" x="1036.669922"/>
      <use xlink:href="#ArialMT-2c" x="1092.285156"/>
      <use xlink:href="#ArialMT-20" x="1120.068359"/>
      <use xlink:href="#ArialMT-70" x="1147.851562"/>
      <use xlink:href="#ArialMT-3d" x="1203.466797"/>
      <use xlink:href="#ArialMT-30" x="1261.865234"/>
      <use xlink:href="#ArialMT-2e" x="1317.480469"/>
      <use xlink:href="#ArialMT-35" x="1345.263672"/>
      <use xlink:href="#ArialMT-29" x="1400.878906"/>
     </g>
    </g>
    <g id="line2d_35">
     <path d="M 144.9 258.685781 
L 155.9 258.685781 
L 166.9 258.685781 
" style="fill: none; stroke: #4c72b0; stroke-width: 1.5; stroke-linecap: round"/>
    </g>
    <g id="text_22">
     <!-- Négative Binomiale (n=10, p=10/11) -->
     <g style="fill: #262626" transform="translate(175.7 262.535781) scale(0.11 -0.11)">
      <use xlink:href="#ArialMT-4e"/>
      <use xlink:href="#ArialMT-e9" x="72.216797"/>
      <use xlink:href="#ArialMT-67" x="127.832031"/>
      <use xlink:href="#ArialMT-61" x="183.447266"/>
      <use xlink:href="#ArialMT-74" x="239.0625"/>
      <use xlink:href="#ArialMT-69" x="266.845703"/>
      <use xlink:href="#ArialMT-76" x="289.0625"/>
      <use xlink:href="#ArialMT-65" x="339.0625"/>
      <use xlink:href="#ArialMT-20" x="394.677734"/>
      <use xlink:href="#ArialMT-42" x="422.460938"/>
      <use xlink:href="#ArialMT-69" x="489.160156"/>
      <use xlink:href="#ArialMT-6e" x="511.376953"/>
      <use xlink:href="#ArialMT-6f" x="566.992188"/>
      <use xlink:href="#ArialMT-6d" x="622.607422"/>
      <use xlink:href="#ArialMT-69" x="705.908203"/>
      <use xlink:href="#ArialMT-61" x="728.125"/>
      <use xlink:href="#ArialMT-6c" x="783.740234"/>
      <use xlink:href="#ArialMT-65" x="805.957031"/>
      <use xlink:href="#ArialMT-20" x="861.572266"/>
      <use xlink:href="#ArialMT-28" x="889.355469"/>
      <use xlink:href="#ArialMT-6e" x="922.65625"/>
      <use xlink:href="#ArialMT-3d" x="978.271484"/>
      <use xlink:href="#ArialMT-31" x="1036.669922"/>
      <use xlink:href="#ArialMT-30" x="1092.285156"/>
      <use xlink:href="#ArialMT-2c" x="1147.900391"/>
      <use xlink:href="#ArialMT-20" x="1175.683594"/>
      <use xlink:href="#ArialMT-70" x="1203.466797"/>
      <use xlink:href="#ArialMT-3d" x="1259.082031"/>
      <use xlink:href="#ArialMT-31" x="1317.480469"/>
      <use xlink:href="#ArialMT-30" x="1373.095703"/>
      <use xlink:href="#ArialMT-2f" x="1428.710938"/>
      <use xlink:href="#ArialMT-31" x="1456.494141"/>
      <use xlink:href="#ArialMT-31" x="1504.734375"/>
      <use xlink:href="#ArialMT-29" x="1560.349609"/>
     </g>
    </g>
    <g id="line2d_36">
     <path d="M 144.9 274.508594 
L 155.9 274.508594 
L 166.9 274.508594 
" style="fill: none; stroke: #dd8452; stroke-width: 1.5; stroke-linecap: round"/>
    </g>
    <g id="text_23">
     <!-- Hyper-Géométrique (N=10, n=2, p=0.5) -->
     <g style="fill: #262626" transform="translate(175.7 278.358594) scale(0.11 -0.11)">
      <defs>
       <path id="ArialMT-48" d="M 513 0 
L 513 4581 
L 1119 4581 
L 1119 2700 
L 3500 2700 
L 3500 4581 
L 4106 4581 
L 4106 0 
L 3500 0 
L 3500 2159 
L 1119 2159 
L 1119 0 
L 513 0 
z
" transform="scale(0.015625)"/>
       <path id="ArialMT-79" d="M 397 -1278 
L 334 -750 
Q 519 -800 656 -800 
Q 844 -800 956 -737 
Q 1069 -675 1141 -563 
Q 1194 -478 1313 -144 
Q 1328 -97 1363 -6 
L 103 3319 
L 709 3319 
L 1400 1397 
Q 1534 1031 1641 628 
Q 1738 1016 1872 1384 
L 2581 3319 
L 3144 3319 
L 1881 -56 
Q 1678 -603 1566 -809 
Q 1416 -1088 1222 -1217 
Q 1028 -1347 759 -1347 
Q 597 -1347 397 -1278 
z
" transform="scale(0.015625)"/>
       <path id="ArialMT-47" d="M 2638 1797 
L 2638 2334 
L 4578 2338 
L 4578 638 
Q 4131 281 3656 101 
Q 3181 -78 2681 -78 
Q 2006 -78 1454 211 
Q 903 500 622 1047 
Q 341 1594 341 2269 
Q 341 2938 620 3517 
Q 900 4097 1425 4378 
Q 1950 4659 2634 4659 
Q 3131 4659 3532 4498 
Q 3934 4338 4162 4050 
Q 4391 3763 4509 3300 
L 3963 3150 
Q 3859 3500 3706 3700 
Q 3553 3900 3268 4020 
Q 2984 4141 2638 4141 
Q 2222 4141 1919 4014 
Q 1616 3888 1430 3681 
Q 1244 3475 1141 3228 
Q 966 2803 966 2306 
Q 966 1694 1177 1281 
Q 1388 869 1791 669 
Q 2194 469 2647 469 
Q 3041 469 3416 620 
Q 3791 772 3984 944 
L 3984 1797 
L 2638 1797 
z
" transform="scale(0.015625)"/>
       <path id="ArialMT-71" d="M 2538 -1272 
L 2538 353 
Q 2406 169 2170 47 
Q 1934 -75 1669 -75 
Q 1078 -75 651 397 
Q 225 869 225 1691 
Q 225 2191 398 2587 
Q 572 2984 901 3189 
Q 1231 3394 1625 3394 
Q 2241 3394 2594 2875 
L 2594 3319 
L 3100 3319 
L 3100 -1272 
L 2538 -1272 
z
M 803 1669 
Q 803 1028 1072 708 
Q 1341 388 1716 388 
Q 2075 388 2334 692 
Q 2594 997 2594 1619 
Q 2594 2281 2320 2615 
Q 2047 2950 1678 2950 
Q 1313 2950 1058 2639 
Q 803 2328 803 1669 
z
" transform="scale(0.015625)"/>
      </defs>
      <use xlink:href="#ArialMT-48"/>
      <use xlink:href="#ArialMT-79" x="72.216797"/>
      <use xlink:href="#ArialMT-70" x="122.216797"/>
      <use xlink:href="#ArialMT-65" x="177.832031"/>
      <use xlink:href="#ArialMT-72" x="233.447266"/>
      <use xlink:href="#ArialMT-2d" x="266.748047"/>
      <use xlink:href="#ArialMT-47" x="300.048828"/>
      <use xlink:href="#ArialMT-e9" x="377.832031"/>
      <use xlink:href="#ArialMT-6f" x="433.447266"/>
      <use xlink:href="#ArialMT-6d" x="489.0625"/>
      <use xlink:href="#ArialMT-e9" x="572.363281"/>
      <use xlink:href="#ArialMT-74" x="627.978516"/>
      <use xlink:href="#ArialMT-72" x="655.761719"/>
      <use xlink:href="#ArialMT-69" x="689.0625"/>
      <use xlink:href="#ArialMT-71" x="711.279297"/>
      <use xlink:href="#ArialMT-75" x="766.894531"/>
      <use xlink:href="#ArialMT-65" x="822.509766"/>
      <use xlink:href="#ArialMT-20" x="878.125"/>
      <use xlink:href="#ArialMT-28" x="905.908203"/>
      <use xlink:href="#ArialMT-4e" x="939.208984"/>
      <use xlink:href="#ArialMT-3d" x="1011.425781"/>
      <use xlink:href="#ArialMT-31" x="1069.824219"/>
      <use xlink:href="#ArialMT-30" x="1125.439453"/>
      <use xlink:href="#ArialMT-2c" x="1181.054688"/>
      <use xlink:href="#ArialMT-20" x="1208.837891"/>
      <use xlink:href="#ArialMT-6e" x="1236.621094"/>
      <use xlink:href="#ArialMT-3d" x="1292.236328"/>
      <use xlink:href="#ArialMT-32" x="1350.634766"/>
      <use xlink:href="#ArialMT-2c" x="1406.25"/>
      <use xlink:href="#ArialMT-20" x="1434.033203"/>
      <use xlink:href="#ArialMT-70" x="1461.816406"/>
      <use xlink:href="#ArialMT-3d" x="1517.431641"/>
      <use xlink:href="#ArialMT-30" x="1575.830078"/>
      <use xlink:href="#ArialMT-2e" x="1631.445312"/>
      <use xlink:href="#ArialMT-35" x="1659.228516"/>
      <use xlink:href="#ArialMT-29" x="1714.84375"/>
     </g>
    </g>
    <g id="line2d_37">
     <path d="M 144.9 290.331406 
L 155.9 290.331406 
L 166.9 290.331406 
" style="fill: none; stroke: #55a868; stroke-width: 1.5; stroke-linecap: round"/>
    </g>
    <g id="text_24">
     <!-- Hyper-Géométrique (N=100, n=10, p=0.1) -->
     <g style="fill: #262626" transform="translate(175.7 294.181406) scale(0.11 -0.11)">
      <use xlink:href="#ArialMT-48"/>
      <use xlink:href="#ArialMT-79" x="72.216797"/>
      <use xlink:href="#ArialMT-70" x="122.216797"/>
      <use xlink:href="#ArialMT-65" x="177.832031"/>
      <use xlink:href="#ArialMT-72" x="233.447266"/>
      <use xlink:href="#ArialMT-2d" x="266.748047"/>
      <use xlink:href="#ArialMT-47" x="300.048828"/>
      <use xlink:href="#ArialMT-e9" x="377.832031"/>
      <use xlink:href="#ArialMT-6f" x="433.447266"/>
      <use xlink:href="#ArialMT-6d" x="489.0625"/>
      <use xlink:href="#ArialMT-e9" x="572.363281"/>
      <use xlink:href="#ArialMT-74" x="627.978516"/>
      <use xlink:href="#ArialMT-72" x="655.761719"/>
      <use xlink:href="#ArialMT-69" x="689.0625"/>
      <use xlink:href="#ArialMT-71" x="711.279297"/>
      <use xlink:href="#ArialMT-75" x="766.894531"/>
      <use xlink:href="#ArialMT-65" x="822.509766"/>
      <use xlink:href="#ArialMT-20" x="878.125"/>
      <use xlink:href="#ArialMT-28" x="905.908203"/>
      <use xlink:href="#ArialMT-4e" x="939.208984"/>
      <use xlink:href="#ArialMT-3d" x="1011.425781"/>
      <use xlink:href="#ArialMT-31" x="1069.824219"/>
      <use xlink:href="#ArialMT-30" x="1125.439453"/>
      <use xlink:href="#ArialMT-30" x="1181.054688"/>
      <use xlink:href="#ArialMT-2c" x="1236.669922"/>
      <use xlink:href="#ArialMT-20" x="1264.453125"/>
      <use xlink:href="#ArialMT-6e" x="1292.236328"/>
      <use xlink:href="#ArialMT-3d" x="1347.851562"/>
      <use xlink:href="#ArialMT-31" x="1406.25"/>
      <use xlink:href="#ArialMT-30" x="1461.865234"/>
      <use xlink:href="#ArialMT-2c" x="1517.480469"/>
      <use xlink:href="#ArialMT-20" x="1545.263672"/>
      <use xlink:href="#ArialMT-70" x="1573.046875"/>
      <use xlink:href="#ArialMT-3d" x="1628.662109"/>
      <use xlink:href="#ArialMT-30" x="1687.060547"/>
      <use xlink:href="#ArialMT-2e" x="1742.675781"/>
      <use xlink:href="#ArialMT-31" x="1770.458984"/>
      <use xlink:href="#ArialMT-29" x="1826.074219"/>
     </g>
    </g>
    <g id="line2d_38">
     <path d="M 144.9 306.020156 
L 155.9 306.020156 
L 166.9 306.020156 
" style="fill: none; stroke-dasharray: 5.55,2.4; stroke-dashoffset: 0; stroke: #000000; stroke-width: 1.5"/>
    </g>
    <g id="text_25">
     <!-- $\alpha = 0.05$ -->
     <g style="fill: #262626" transform="translate(175.7 309.870156) scale(0.11 -0.11)">
      <defs>
       <path id="DejaVuSans-Oblique-3b1" d="M 2619 1628 
L 2622 2350 
Q 2625 3088 2069 3091 
Q 1653 3094 1394 2747 
Q 1069 2319 959 1747 
Q 825 1059 994 731 
Q 1169 397 1547 397 
Q 1966 397 2319 1063 
L 2619 1628 
z
M 2166 3578 
Q 3141 3594 3128 2584 
Q 3128 2584 3616 3500 
L 4128 3500 
L 3119 1603 
L 3109 919 
Q 3109 766 3194 638 
Q 3291 488 3391 488 
L 3669 488 
L 3575 0 
L 3228 0 
Q 2934 0 2722 263 
Q 2622 394 2619 669 
Q 2416 334 2066 50 
Q 1900 -81 1453 -78 
Q 722 -72 456 397 
Q 184 884 353 1747 
Q 534 2675 1009 3097 
Q 1544 3569 2166 3578 
z
" transform="scale(0.015625)"/>
       <path id="DejaVuSans-3d" d="M 678 2906 
L 4684 2906 
L 4684 2381 
L 678 2381 
L 678 2906 
z
M 678 1631 
L 4684 1631 
L 4684 1100 
L 678 1100 
L 678 1631 
z
" transform="scale(0.015625)"/>
       <path id="DejaVuSans-30" d="M 2034 4250 
Q 1547 4250 1301 3770 
Q 1056 3291 1056 2328 
Q 1056 1369 1301 889 
Q 1547 409 2034 409 
Q 2525 409 2770 889 
Q 3016 1369 3016 2328 
Q 3016 3291 2770 3770 
Q 2525 4250 2034 4250 
z
M 2034 4750 
Q 2819 4750 3233 4129 
Q 3647 3509 3647 2328 
Q 3647 1150 3233 529 
Q 2819 -91 2034 -91 
Q 1250 -91 836 529 
Q 422 1150 422 2328 
Q 422 3509 836 4129 
Q 1250 4750 2034 4750 
z
" transform="scale(0.015625)"/>
       <path id="DejaVuSans-2e" d="M 684 794 
L 1344 794 
L 1344 0 
L 684 0 
L 684 794 
z
" transform="scale(0.015625)"/>
       <path id="DejaVuSans-35" d="M 691 4666 
L 3169 4666 
L 3169 4134 
L 1269 4134 
L 1269 2991 
Q 1406 3038 1543 3061 
Q 1681 3084 1819 3084 
Q 2600 3084 3056 2656 
Q 3513 2228 3513 1497 
Q 3513 744 3044 326 
Q 2575 -91 1722 -91 
Q 1428 -91 1123 -41 
Q 819 9 494 109 
L 494 744 
Q 775 591 1075 516 
Q 1375 441 1709 441 
Q 2250 441 2565 725 
Q 2881 1009 2881 1497 
Q 2881 1984 2565 2268 
Q 2250 2553 1709 2553 
Q 1456 2553 1204 2497 
Q 953 2441 691 2322 
L 691 4666 
z
" transform="scale(0.015625)"/>
      </defs>
      <use xlink:href="#DejaVuSans-Oblique-3b1" transform="translate(0 0.78125)"/>
      <use xlink:href="#DejaVuSans-3d" transform="translate(85.400391 0.78125)"/>
      <use xlink:href="#DejaVuSans-30" transform="translate(188.671875 0.78125)"/>
      <use xlink:href="#DejaVuSans-2e" transform="translate(252.294922 0.78125)"/>
      <use xlink:href="#DejaVuSans-30" transform="translate(284.082031 0.78125)"/>
      <use xlink:href="#DejaVuSans-35" transform="translate(347.705078 0.78125)"/>
     </g>
    </g>
   </g>
  </g>
 </g>
 <defs>
  <clipPath id="p132bd72c4c">
   <rect x="135" y="86.4" width="837" height="554.4"/>
  </clipPath>
 </defs>
</svg>
